SplineFontDB: 3.0
FontName: Evolventa-Oblique
FullName: Evolventa Oblique
FamilyName: Evolventa
Weight: Regular
Copyright: Copyright \\(c\\) 2016 by Alex I. Kuznetsov.\\012\\012This font is free software. You are allowed to distribute and/or modify it under the terms of either \\(or both\\) of the following two licenses \\(your choice\\):\\012\\0121\\) GNU General Public License version 2 \\(https://gnu.org/licenses/old-licenses/gpl-2.0.txt\\)\\0122\\) The LaTeX Project Public License version 1.3c or \\(at your option\\) any later version \\(http://www.latex-project.org/lppl.txt\\)\\012\\012Contains work kindly released to the open source community by URW++ Design and Development GmbH as "URW Gothic L" \\(version 001.005\\) with the following copyright notice: Copyright URW Software, Copyright 1996 by URW.\\012\\012Original URW fonts can be obtained at the Evolventa website \\(https://evolventa.github.io\\).
Version: 001.001
ItalicAngle: -10.5
UnderlinePosition: -154
UnderlineWidth: 58
Ascent: 800
Descent: 200
InvalidEm: 0
sfntRevision: 0x00010000
LayerCount: 2
Layer: 0 0 "Back" 1
Layer: 1 0 "Fore" 0
XUID: [1021 1017 285194369 4066]
StyleMap: 0x0001
FSType: 0
OS2Version: 3
OS2_WeightWidthSlopeOnly: 0
OS2_UseTypoMetrics: 0
CreationTime: 832050856
ModificationTime: 1494978969
PfmFamily: 17
TTFWeight: 400
TTFWidth: 5
LineGap: 330
VLineGap: 0
Panose: 2 0 5 3 4 0 0 2 0 4
OS2TypoAscent: 800
OS2TypoAOffset: 0
OS2TypoDescent: -200
OS2TypoDOffset: 0
OS2TypoLinegap: 330
OS2WinAscent: 1060
OS2WinAOffset: 0
OS2WinDescent: 270
OS2WinDOffset: 0
HheadAscent: 800
HheadAOffset: 0
HheadDescent: -200
HheadDOffset: 0
OS2SubXSize: 650
OS2SubYSize: 699
OS2SubXOff: 25
OS2SubYOff: 140
OS2SupXSize: 650
OS2SupYSize: 699
OS2SupXOff: -87
OS2SupYOff: 479
OS2StrikeYSize: 49
OS2StrikeYPos: 258
OS2CapHeight: 739
OS2XHeight: 547
OS2FamilyClass: 2052
OS2Vendor: 'PfEd'
OS2CodePages: 00000005.00000000
OS2UnicodeRanges: 8000026f.5000004a.00000000.00000000

StartChar: .notdef
Encoding: 256 -1 0
Width: 761
Flags: MW
HStem: 0 63<162 222 563 623> 676 63<275 335 275 275 676 736 676 676>
LayerCount: 2
Fore
SplineSet
685 0 m 1
 76 0 l 1
 213 739 l 1
 822 739 l 1
 685 0 l 1
222 63 m 1
 437 306 l 1
 563 63 l 1
 623 63 l 1
 630 105 l 1
 495 370 l 1
 729 634 l 1
 736 676 l 1
 676 676 l 1
 460 434 l 1
 335 676 l 1
 275 676 l 1
 268 634 l 1
 405 370 l 1
 169 105 l 1
 162 63 l 1
 222 63 l 1
EndSplineSet
EndChar

StartChar: exclam
Encoding: 33 33 2
Width: 295
Flags: MW
HStem: 0 21G<111 111 111 185> 719 20G<248 322 322 322>
VStem: 111 211
LayerCount: 2
Fore
SplineSet
111 0 m 1
 134 126 l 1
 208 126 l 1
 185 0 l 1
 111 0 l 1
148 197 m 1
 248 739 l 1
 322 739 l 1
 222 197 l 1
 148 197 l 1
EndSplineSet
EndChar

StartChar: quotedbl
Encoding: 34 34 3
Width: 309
Flags: MW
HStem: 513 226<211 219 169 261 324 332 211 282>
VStem: 169 205
LayerCount: 2
Fore
SplineSet
332 513 m 1
 282 513 l 1
 324 739 l 1
 374 739 l 1
 332 513 l 1
219 513 m 1
 169 513 l 1
 211 739 l 1
 261 739 l 1
 219 513 l 1
EndSplineSet
EndChar

StartChar: numbersign
Encoding: 35 35 4
Width: 554
Flags: MW
HStem: 0 21G<59 124 59 59 290 356 290 290> 237 61<60 148 49 171 236 377 60 213 466 578> 453 61<116 229 105 251 116 294 316 457 545 633> 719 20G<335 399 399 399 561 628 628 628>
LayerCount: 2
Fore
SplineSet
589 298 m 1
 578 237 l 1
 443 237 l 1
 356 0 l 1
 290 0 l 1
 377 237 l 1
 213 237 l 1
 124 0 l 1
 59 0 l 1
 148 237 l 1
 49 237 l 1
 60 298 l 1
 171 298 l 1
 229 453 l 1
 105 453 l 1
 116 514 l 1
 251 514 l 1
 335 739 l 1
 399 739 l 1
 316 514 l 1
 479 514 l 1
 561 739 l 1
 628 739 l 1
 545 514 l 1
 644 514 l 1
 633 453 l 1
 523 453 l 1
 466 298 l 1
 589 298 l 1
457 453 m 1
 294 453 l 1
 236 298 l 1
 399 298 l 1
 457 453 l 1
EndSplineSet
EndChar

StartChar: dollar
Encoding: 36 36 5
Width: 554
Flags: MW
HStem: 547 21G<504 574 504 504>
VStem: 111 73<165 185.5> 199 73<500 521> 449 76<259.5 265> 506 71<575.5 600>
LayerCount: 2
Fore
SplineSet
235 -56 m 1xf0
 250 29 l 1
 157 47 111 96 111 178 c 0
 111 193 113 210 116 228 c 1
 186 228 l 1
 185 218 184 209 184 200 c 0
 184 130 224 90 294 90 c 0
 369 90 433 146 447 224 c 0
 449 233 449 242 449 251 c 0xf0
 449 279 439 303 422 321 c 0
 405 337 384 348 337 363 c 0
 266 386 240 403 220 436 c 0
 206 457 199 485 199 515 c 0
 199 527 200 539 202 552 c 0
 219 643 288 710 380 728 c 1
 395 810 l 1
 461 810 l 1
 446 728 l 1
 530 715 577 661 577 581 c 0
 577 570 576 559 574 547 c 1
 504 547 l 1
 505 555 506 563 506 570 c 0xe8
 506 630 471 665 410 665 c 0
 341 665 289 619 275 546 c 0
 273 536 272 527 272 519 c 0
 272 476 300 453 375 428 c 0
 442 405 469 390 491 363 c 0
 513 338 525 304 525 266 c 0
 525 253 524 240 521 226 c 0
 501 120 417 39 316 29 c 1
 301 -56 l 1
 235 -56 l 1xf0
EndSplineSet
EndChar

StartChar: percent
Encoding: 37 37 6
Width: 775
Flags: MW
HStem: -13 66<560 616 560 622.5> 0 21G<182 254 182 182> 272 66<595.5 652> 397 66<247.5 303.5 247.5 310.5> 683 66<284 340.5> 719 20G<651 725 725 725>
VStem: 116 67<527.5 546> 404 69<600 620> 428 68<117.5 135> 716 69<189 208.5>
LayerCount: 2
Fore
SplineSet
651 739 m 1x7640
 725 739 l 1
 254 0 l 1
 182 0 l 1
 651 739 l 1x7640
642 338 m 0
 726 338 785 275 785 194 c 0
 785 184 784 174 782 163 c 0
 764 66 671 -13 574 -13 c 0
 489 -13 428 49 428 130 c 0xb2c0
 428 140 429 151 431 162 c 0
 449 261 542 338 642 338 c 0
625 272 m 0
 566 272 509 222 498 163 c 0
 497 156 496 150 496 143 c 0
 496 92 534 53 586 53 c 0
 646 53 703 102 714 162 c 0
 715 169 716 176 716 183 c 0
 716 234 679 272 625 272 c 0
330 749 m 0x3b40
 413 749 473 686 473 605 c 0
 473 595 472 584 470 573 c 0
 452 476 359 397 262 397 c 0
 177 397 116 459 116 541 c 0
 116 551 117 562 119 573 c 0
 137 671 230 749 330 749 c 0x3b40
313 683 m 0
 255 683 196 633 185 573 c 0
 184 566 183 560 183 553 c 0
 183 502 221 463 274 463 c 0
 333 463 391 512 402 572 c 0
 403 579 404 587 404 594 c 0
 404 646 368 683 313 683 c 0
EndSplineSet
EndChar

StartChar: ampersand
Encoding: 38 38 7
Width: 757
Flags: MW
HStem: -13 67<256.5 330.5 256.5 337> 685 67<420 476>
VStem: 92 73<141.5 176> 251 76<558 563> 539 70<610 630>
LayerCount: 2
Fore
SplineSet
691 481 m 1
 773 481 l 1
 589 220 l 1
 742 38 l 1
 682 -13 l 1
 541 153 l 1
 461 36 386 -13 288 -13 c 0
 170 -13 92 62 92 169 c 0
 92 183 93 198 96 213 c 0
 108 280 149 338 212 381 c 0
 236 397 262 412 307 433 c 1
 267 485 251 520 251 558 c 0
 251 568 252 578 254 588 c 0
 271 680 361 752 459 752 c 0
 549 752 609 695 609 615 c 0
 609 605 608 594 606 583 c 0
 596 528 566 486 512 453 c 0
 495 441 477 433 430 411 c 1
 545 273 l 1
 691 481 l 1
496 206 m 1
 350 380 l 1
 230 327 182 280 168 205 c 0
 166 196 165 186 165 177 c 0
 165 106 218 54 295 54 c 0
 366 54 422 96 496 206 c 1
386 464 m 1
 480 498 527 537 537 589 c 0
 538 595 539 601 539 607 c 0
 539 653 503 685 449 685 c 0
 391 685 338 643 328 590 c 0
 327 584 327 579 327 574 c 0
 327 542 345 509 386 464 c 1
EndSplineSet
EndChar

StartChar: quotesingle
Encoding: 39 39 8
Width: 198
Flags: MW
HStem: 513 226<211 219 169 261>
VStem: 169 92
LayerCount: 2
Fore
SplineSet
219 513 m 1
 169 513 l 1
 211 739 l 1
 261 739 l 1
 219 513 l 1
EndSplineSet
EndChar

StartChar: parenleft
Encoding: 40 40 9
Width: 369
Flags: MW
HStem: 719 20G<472 472>
VStem: 106 75<197.5 234.5>
LayerCount: 2
Fore
SplineSet
472 739 m 1
 460 676 l 1
 394 640 350 603 303 545 c 0
 242 469 203 389 188 309 c 0
 183 284 181 259 181 234 c 0
 181 161 200 89 236 29 c 0
 258 -6 282 -31 324 -60 c 1
 312 -125 l 1
 239 -97 193 -53 153 26 c 0
 122 87 106 152 106 220 c 0
 106 249 108 278 114 309 c 0
 138 436 216 565 323 656 c 0
 372 698 410 719 472 739 c 1
EndSplineSet
EndChar

StartChar: parenright
Encoding: 41 41 10
Width: 369
Flags: MW
HStem: 719 20G<171 171>
VStem: 301 76<380.5 416.5>
LayerCount: 2
Fore
SplineSet
11 -125 m 1
 23 -61 l 1
 88 -26 133 11 180 70 c 0
 241 146 280 225 295 306 c 0
 300 330 301 355 301 380 c 0
 301 453 282 526 246 585 c 0
 224 620 201 645 159 674 c 1
 171 739 l 1
 244 711 290 668 330 589 c 0
 361 528 377 463 377 395 c 0
 377 366 375 336 369 305 c 0
 346 179 267 49 160 -42 c 0
 111 -83 73 -105 11 -125 c 1
EndSplineSet
EndChar

StartChar: asterisk
Encoding: 42 42 11
Width: 425
Flags: MW
HStem: 585 47<277 286> 732 20G<301 301 406 406>
VStem: 172 306<583 635>
LayerCount: 2
Fore
SplineSet
406 752 m 1
 448 724 l 1
 374 632 l 1
 478 635 l 1
 468 583 l 1
 366 585 l 1
 405 495 l 1
 353 468 l 1
 317 559 l 1
 247 468 l 1
 204 496 l 1
 277 585 l 1
 172 583 l 1
 182 635 l 1
 286 632 l 1
 247 724 l 1
 301 752 l 1
 338 662 l 1
 406 752 l 1
EndSplineSet
EndChar

StartChar: plus
Encoding: 43 43 12
Width: 606
Flags: MW
HStem: 267 74<114 314 100 328 405 604 114 391> 537 20G<368 445 445 445>
LayerCount: 2
Fore
SplineSet
328 341 m 1
 368 557 l 1
 445 557 l 1
 405 341 l 1
 618 341 l 1
 604 267 l 1
 391 267 l 1
 351 49 l 1
 274 49 l 1
 314 267 l 1
 100 267 l 1
 114 341 l 1
 328 341 l 1
EndSplineSet
EndChar

StartChar: comma
Encoding: 44 44 13
Width: 277
Flags: MW
HStem: -67 193<79 276 79 276>
VStem: 79 197<-67 126>
LayerCount: 2
Fore
SplineSet
79 -67 m 1
 202 126 l 1
 276 126 l 1
 153 -67 l 1
 79 -67 l 1
EndSplineSet
EndChar

StartChar: hyphen
Encoding: 45 45 14
Width: 332
Flags: MW
HStem: 233 63<86 345 74 357>
VStem: 74 283<233 296>
LayerCount: 2
Fore
SplineSet
86 296 m 1
 357 296 l 1
 345 233 l 1
 74 233 l 1
 86 296 l 1
EndSplineSet
EndChar

StartChar: period
Encoding: 46 46 15
Width: 277
Flags: MW
HStem: 0 126<101 198 124 175>
VStem: 101 97
LayerCount: 2
Fore
SplineSet
101 0 m 1
 124 126 l 1
 198 126 l 1
 175 0 l 1
 101 0 l 1
EndSplineSet
EndChar

StartChar: slash
Encoding: 47 47 16
Width: 437
Flags: MW
HStem: 719 20G<464 534 534 534>
LayerCount: 2
Fore
SplineSet
16 -128 m 1
 464 739 l 1
 534 739 l 1
 83 -128 l 1
 16 -128 l 1
EndSplineSet
EndChar

StartChar: zero
Encoding: 48 48 17
Width: 554
Flags: MW
HStem: -13 67<259.5 324.5> 685 67<376 433.5>
VStem: 71 74<178 193> 548 76<554 566.5>
LayerCount: 2
Fore
SplineSet
80 269 m 2
 119 479 l 2
 136 569 163 627 212 674 c 0
 264 725 336 752 416 752 c 0
 507 752 574 715 606 648 c 0
 618 623 624 598 624 566 c 0
 624 542 621 514 614 479 c 2
 575 269 l 2
 559 183 531 117 491 74 c 0
 438 16 368 -13 281 -13 c 0
 179 -13 110 27 82 103 c 0
 74 125 71 150 71 180 c 0
 71 206 74 236 80 269 c 2
504 281 m 2
 538 462 l 2
 545 499 548 527 548 551 c 0
 548 582 542 603 530 623 c 0
 506 663 462 685 405 685 c 0
 338 685 276 654 239 603 c 0
 217 573 201 529 189 462 c 2
 155 281 l 2
 148 246 145 217 145 193 c 0
 145 163 150 139 160 120 c 0
 184 77 229 54 290 54 c 0
 361 54 421 84 456 138 c 0
 476 168 493 219 504 281 c 2
EndSplineSet
Substitution2: "'pnum' Proportional Numbers in Latin lookup 22 subtable" zero.fitted
Substitution2: "'pnum' Proportional Numbers in Cyrillic lookup 21 subtable" zero.fitted
Substitution2: "'pnum' Proportional Numbers lookup 20 subtable" zero.fitted
Substitution2: "'aalt' Access All Alternates lookup 0 subtable" zero.fitted
EndChar

StartChar: one
Encoding: 49 49 18
Width: 554
Flags: MW
HStem: 0 21G<281 281 281 354> 672 67<292 406 280 491>
VStem: 281 210
LayerCount: 2
Fore
SplineSet
281 0 m 1
 406 672 l 1
 280 672 l 1
 292 739 l 1
 491 739 l 1
 354 0 l 1
 281 0 l 1
EndSplineSet
Substitution2: "'pnum' Proportional Numbers in Latin lookup 22 subtable" one.fitted
Substitution2: "'pnum' Proportional Numbers in Cyrillic lookup 21 subtable" one.fitted
Substitution2: "'pnum' Proportional Numbers lookup 20 subtable" one.fitted
Substitution2: "'aalt' Access All Alternates lookup 0 subtable" one.fitted
EndChar

StartChar: two
Encoding: 50 50 19
Width: 554
Flags: MW
HStem: 0 67<33 45 45 45 145 502> 685 67<366.5 440>
VStem: 132 73<500 500> 533 75<565 598.5>
LayerCount: 2
Fore
SplineSet
33 0 m 1
 45 67 l 1
 351 317 l 2
 429 380 428 380 455 407 c 0
 499 449 522 487 530 531 c 0
 532 542 533 552 533 562 c 0
 533 635 481 685 399 685 c 0
 334 685 275 652 240 598 c 0
 223 572 213 544 205 500 c 1
 132 500 l 1
 142 552 149 573 168 608 c 0
 219 698 309 752 412 752 c 0
 531 752 608 679 608 572 c 0
 608 558 607 543 604 527 c 0
 589 448 546 393 424 294 c 2
 145 67 l 1
 514 67 l 1
 502 0 l 1
 33 0 l 1
EndSplineSet
Substitution2: "'pnum' Proportional Numbers in Latin lookup 22 subtable" two.fitted
Substitution2: "'pnum' Proportional Numbers in Cyrillic lookup 21 subtable" two.fitted
Substitution2: "'pnum' Proportional Numbers lookup 20 subtable" two.fitted
Substitution2: "'aalt' Access All Alternates lookup 0 subtable" two.fitted
EndChar

StartChar: three
Encoding: 51 51 20
Width: 554
Flags: MW
HStem: -13 67<253 325.5 253 335.5> 388 66<291 303> 555 21G<185 258 185 185> 685 67<360 424.5>
VStem: 71 75<173.5 184.5> 185 73<555 555> 474 76<262.5 284> 489 75<598.5 622>
LayerCount: 2
Fore
SplineSet
258 555 m 1xfd
 185 555 l 1
 211 676 297 752 408 752 c 0
 504 752 564 693 564 605 c 0xfd
 564 592 563 579 560 565 c 0
 549 504 516 459 457 423 c 1
 519 389 550 337 550 270 c 0
 550 255 549 240 546 224 c 0
 521 91 400 -13 271 -13 c 0
 179 -13 108 33 82 108 c 0
 75 129 71 151 71 176 c 0
 71 193 73 210 76 231 c 1
 149 231 l 1
 147 214 146 200 146 187 c 0
 146 160 151 141 161 122 c 0
 183 79 226 54 280 54 c 0
 371 54 454 126 471 220 c 0
 473 231 474 242 474 252 c 0xfe
 474 316 437 367 376 382 c 0
 357 386 340 387 291 388 c 1
 303 454 l 1
 332 452 333 452 339 452 c 0
 416 452 473 497 486 569 c 0
 488 578 489 587 489 595 c 0
 489 649 453 685 396 685 c 0
 324 685 274 638 258 555 c 1xfd
EndSplineSet
Substitution2: "'pnum' Proportional Numbers in Latin lookup 22 subtable" three.fitted
Substitution2: "'pnum' Proportional Numbers in Cyrillic lookup 21 subtable" three.fitted
Substitution2: "'pnum' Proportional Numbers lookup 20 subtable" three.fitted
Substitution2: "'aalt' Access All Alternates lookup 0 subtable" three.fitted
EndChar

StartChar: four
Encoding: 52 52 21
Width: 554
Flags: MW
HStem: 0 21G<386 386 386 459> 135 67<49 49 134 411 37 49 496 552> 719 20G<509 596 596 596>
LayerCount: 2
Fore
SplineSet
386 0 m 1
 411 135 l 1
 37 135 l 1
 49 202 l 1
 509 739 l 1
 596 739 l 1
 496 202 l 1
 564 202 l 1
 552 135 l 1
 484 135 l 1
 459 0 l 1
 386 0 l 1
423 202 m 1
 504 637 l 1
 134 202 l 1
 423 202 l 1
EndSplineSet
Substitution2: "'pnum' Proportional Numbers in Latin lookup 22 subtable" four.fitted
Substitution2: "'pnum' Proportional Numbers in Cyrillic lookup 21 subtable" four.fitted
Substitution2: "'pnum' Proportional Numbers lookup 20 subtable" four.fitted
Substitution2: "'aalt' Access All Alternates lookup 0 subtable" four.fitted
EndChar

StartChar: five
Encoding: 53 53 22
Width: 554
Flags: MW
HStem: -13 67<242.5 337 242.5 347.5> 436 67<354 402> 672 67<317 591 317 317>
VStem: 68 72<184 202> 503 75<289.5 330>
LayerCount: 2
Fore
SplineSet
137 375 m 1
 270 739 l 1
 603 739 l 1
 591 672 l 1
 317 672 l 1
 243 468 l 1
 293 493 332 503 376 503 c 0
 497 503 578 417 578 298 c 0
 578 281 577 264 574 246 c 0
 547 100 417 -13 278 -13 c 0
 179 -13 102 43 76 134 c 0
 70 155 68 171 68 197 c 0
 68 207 68 219 69 232 c 1
 141 232 l 1
 141 227 140 221 140 216 c 0
 140 119 198 54 287 54 c 0
 387 54 480 138 500 246 c 0
 503 260 503 273 503 286 c 0
 503 374 446 436 358 436 c 0
 300 436 244 409 189 353 c 1
 137 375 l 1
EndSplineSet
Substitution2: "'pnum' Proportional Numbers in Latin lookup 22 subtable" five.fitted
Substitution2: "'pnum' Proportional Numbers in Cyrillic lookup 21 subtable" five.fitted
Substitution2: "'pnum' Proportional Numbers lookup 20 subtable" five.fitted
Substitution2: "'aalt' Access All Alternates lookup 0 subtable" five.fitted
EndChar

StartChar: six
Encoding: 54 54 23
Width: 554
Flags: MW
HStem: -13 67<244 340.5 244 350> 436 67<370.5 403> 719 20G<433 518 518 518>
VStem: 65 76<160.5 200.5> 505 75<291.5 333.5>
LayerCount: 2
Fore
SplineSet
433 739 m 1
 518 739 l 1
 296 482 l 1
 332 498 355 503 386 503 c 0
 502 503 580 417 580 300 c 0
 580 283 578 267 575 249 c 0
 547 97 422 -13 278 -13 c 0
 150 -13 65 72 65 192 c 0
 65 209 67 226 70 244 c 0
 84 318 109 361 200 467 c 2
 433 739 l 1
357 436 m 0
 257 436 165 354 145 246 c 0
 142 232 141 218 141 205 c 0
 141 116 199 54 289 54 c 0
 392 54 479 134 500 245 c 0
 503 260 505 275 505 289 c 0
 505 378 449 436 357 436 c 0
EndSplineSet
Substitution2: "'pnum' Proportional Numbers in Latin lookup 22 subtable" six.fitted
Substitution2: "'pnum' Proportional Numbers in Cyrillic lookup 21 subtable" six.fitted
Substitution2: "'pnum' Proportional Numbers lookup 20 subtable" six.fitted
Substitution2: "'aalt' Access All Alternates lookup 0 subtable" six.fitted
EndChar

StartChar: seven
Encoding: 55 55 24
Width: 554
Flags: MW
HStem: 0 21G<110 110 110 188> 672 67<201 539 189 627 615 615>
LayerCount: 2
Fore
SplineSet
110 0 m 1
 539 672 l 1
 189 672 l 1
 201 739 l 1
 627 739 l 1
 615 672 l 1
 188 0 l 1
 110 0 l 1
EndSplineSet
Substitution2: "'pnum' Proportional Numbers in Latin lookup 22 subtable" seven.fitted
Substitution2: "'pnum' Proportional Numbers in Cyrillic lookup 21 subtable" seven.fitted
Substitution2: "'pnum' Proportional Numbers lookup 20 subtable" seven.fitted
Substitution2: "'aalt' Access All Alternates lookup 0 subtable" seven.fitted
EndChar

StartChar: eight
Encoding: 56 56 25
Width: 554
Flags: MW
HStem: -13 67<247 335.5 247 345.5> 375 69<330.5 387.5> 685 67<367 434.5>
VStem: 78 74<143.5 179> 182 76<513 531.5> 481 76<256 287.5> 506 75<594.5 619.5>
LayerCount: 2
Fore
SplineSet
244 413 m 1xfc
 221 428 211 437 201 452 c 0
 188 473 182 498 182 526 c 0
 182 537 183 549 185 561 c 0
 205 670 305 752 417 752 c 0
 517 752 581 692 581 601 c 0xfa
 581 588 580 575 577 561 c 0
 563 488 527 441 462 413 c 1
 524 383 557 331 557 263 c 0
 557 249 555 234 552 218 c 0
 527 83 413 -13 278 -13 c 0
 158 -13 78 64 78 172 c 0
 78 186 79 200 82 215 c 0
 98 304 156 374 244 413 c 1xfc
345 375 m 0
 252 375 173 308 155 213 c 0
 153 202 152 191 152 181 c 0
 152 106 205 54 289 54 c 0
 382 54 460 121 478 216 c 0
 480 228 481 239 481 250 c 0xfc
 481 325 430 375 345 375 c 0
402 685 m 0
 332 685 273 635 260 566 c 0
 258 558 258 550 258 542 c 0
 258 484 299 444 362 444 c 0
 430 444 491 496 504 565 c 0
 506 574 506 583 506 591 c 0xfa
 506 648 467 685 402 685 c 0
EndSplineSet
Substitution2: "'pnum' Proportional Numbers in Latin lookup 22 subtable" eight.fitted
Substitution2: "'pnum' Proportional Numbers in Cyrillic lookup 21 subtable" eight.fitted
Substitution2: "'pnum' Proportional Numbers lookup 20 subtable" eight.fitted
Substitution2: "'aalt' Access All Alternates lookup 0 subtable" eight.fitted
EndChar

StartChar: nine
Encoding: 57 57 26
Width: 554
Flags: MW
HStem: 0 21G<173 258 173 173> 236 67<287.5 320.5> 685 67<349 445>
VStem: 111 75<407 447.5> 550 76<538.5 578.5>
LayerCount: 2
Fore
SplineSet
258 0 m 1
 173 0 l 1
 395 257 l 1
 359 241 336 236 305 236 c 0
 189 236 111 322 111 439 c 0
 111 456 113 472 116 490 c 0
 144 642 269 752 413 752 c 0
 541 752 626 667 626 547 c 0
 626 530 624 513 621 495 c 0
 607 421 582 378 491 272 c 2
 258 0 l 1
399 685 m 0
 299 685 211 604 190 493 c 0
 187 478 186 464 186 451 c 0
 186 363 243 303 332 303 c 0
 434 303 526 384 546 493 c 0
 549 507 550 521 550 534 c 0
 550 623 491 685 399 685 c 0
EndSplineSet
Substitution2: "'pnum' Proportional Numbers in Latin lookup 22 subtable" nine.fitted
Substitution2: "'pnum' Proportional Numbers in Cyrillic lookup 21 subtable" nine.fitted
Substitution2: "'pnum' Proportional Numbers lookup 20 subtable" nine.fitted
Substitution2: "'aalt' Access All Alternates lookup 0 subtable" nine.fitted
EndChar

StartChar: colon
Encoding: 58 58 27
Width: 277
Flags: MW
HStem: 0 21G<101 101 101 175>
VStem: 101 168
LayerCount: 2
Fore
SplineSet
101 0 m 1
 124 126 l 1
 198 126 l 1
 175 0 l 1
 101 0 l 1
172 381 m 1
 195 507 l 1
 269 507 l 1
 246 381 l 1
 172 381 l 1
EndSplineSet
EndChar

StartChar: semicolon
Encoding: 59 59 28
Width: 277
Flags: MW
VStem: 29 264
LayerCount: 2
Fore
SplineSet
29 -67 m 1
 152 126 l 1
 226 126 l 1
 103 -67 l 1
 29 -67 l 1
196 381 m 1
 219 507 l 1
 293 507 l 1
 270 381 l 1
 196 381 l 1
EndSplineSet
EndChar

StartChar: less
Encoding: 60 60 29
Width: 606
Flags: MW
HStem: 545 20G<663 663>
LayerCount: 2
Fore
SplineSet
663 565 m 1
 648 487 l 1
 213 300 l 1
 579 115 l 1
 565 37 l 1
 99 268 l 1
 111 333 l 1
 663 565 l 1
EndSplineSet
EndChar

StartChar: equal
Encoding: 61 61 30
Width: 606
Flags: MW
HStem: 164 74<95 585 81 599> 362 74<132 622 118 636>
LayerCount: 2
Fore
SplineSet
636 436 m 1
 622 362 l 1
 118 362 l 1
 132 436 l 1
 636 436 l 1
599 238 m 1
 585 164 l 1
 81 164 l 1
 95 238 l 1
 599 238 l 1
EndSplineSet
EndChar

StartChar: greater
Encoding: 62 62 31
Width: 606
Flags: MW
HStem: 545 20G<153 153>
LayerCount: 2
Fore
SplineSet
55 37 m 1
 69 115 l 1
 506 302 l 1
 138 487 l 1
 153 565 l 1
 619 334 l 1
 607 269 l 1
 55 37 l 1
EndSplineSet
EndChar

StartChar: question
Encoding: 63 63 32
Width: 591
Flags: MW
HStem: 0 21G<261 261 261 335> 685 67<396.5 464.5>
VStem: 159 70<508 508> 553 75<571 602>
LayerCount: 2
Fore
SplineSet
261 0 m 1
 284 126 l 1
 358 126 l 1
 335 0 l 1
 261 0 l 1
229 508 m 1
 159 508 l 1
 173 575 190 613 225 654 c 0
 280 717 355 752 438 752 c 0
 553 752 628 681 628 578 c 0
 628 564 627 550 624 535 c 0
 612 470 580 425 503 365 c 0
 417 300 382 256 369 193 c 1
 299 193 l 1
 315 275 352 328 441 397 c 0
 520 460 542 488 551 537 c 0
 553 547 553 557 553 567 c 0
 553 637 503 685 426 685 c 0
 364 685 304 655 269 604 c 0
 252 580 242 555 229 508 c 1
EndSplineSet
EndChar

StartChar: at
Encoding: 64 64 33
Width: 867
Flags: MW
HStem: -13 50<378.5 503.5> 139 52<602.5 613> 144 58<387.5 407.5> 539 54<520.5 583.5> 701 51<491.5 635 485.5 657>
VStem: 132 53<229 306.5> 270 73<250 263.5> 832 51<483.5 527 483.5 546>
LayerCount: 2
Fore
SplineSet
762 574 m 1xbf
 618 296 l 2
 587 234 587 234 584 219 c 0
 584 217 583 216 583 214 c 0
 583 200 594 191 611 191 c 0
 637 191 675 209 710 239 c 0
 772 291 813 361 827 434 c 0
 830 450 832 466 832 482 c 0
 832 610 732 701 582 701 c 0
 401 701 225 551 191 368 c 0
 187 347 185 326 185 306 c 0
 185 152 297 37 460 37 c 0
 551 37 638 72 713 138 c 1
 746 105 l 1
 669 32 558 -13 449 -13 c 0
 261 -13 132 118 132 295 c 0
 132 318 134 342 139 367 c 0
 179 581 380 752 591 752 c 0
 679 752 760 721 813 667 c 0
 860 620 883 561 883 493 c 0
 883 474 881 454 877 433 c 0
 860 342 809 259 732 198 c 0
 682 158 636 139 590 139 c 0xdf
 543 139 520 155 512 196 c 1
 468 159 431 144 384 144 c 0
 314 144 270 189 270 258 c 0
 270 269 271 280 273 292 c 0
 301 445 449 593 573 593 c 0
 603 593 631 585 649 571 c 0
 663 561 669 549 675 524 c 1
 701 574 l 1
 762 574 l 1xbf
563 539 m 0
 478 539 367 415 345 294 c 0
 343 286 343 278 343 271 c 0
 343 229 367 202 408 202 c 0xbf
 455 202 496 231 544 297 c 0
 583 351 619 422 626 462 c 0
 627 468 627 474 627 480 c 0
 627 517 604 539 563 539 c 0
EndSplineSet
EndChar

StartChar: A
Encoding: 65 65 34
Width: 740
Flags: MW
HStem: 0 21G<11 11 11 89 648 648 648 729> 249 67<284 571 284 587 243 571> 719 20G<465 548 548 548>
LayerCount: 2
Fore
SplineSet
11 0 m 1
 465 739 l 1
 548 739 l 1
 729 0 l 1
 648 0 l 1
 587 249 l 1
 243 249 l 1
 89 0 l 1
 11 0 l 1
284 316 m 1
 571 316 l 1
 491 655 l 1
 284 316 l 1
EndSplineSet
EndChar

StartChar: B
Encoding: 66 66 35
Width: 574
Flags: MW
HStem: 0 67<162 259> 354 67<228 304 216 318> 672 67<275 364 275 275>
VStem: 511 77<251.5 265.5> 531 77<583 591.5>
LayerCount: 2
Fore
SplineSet
76 0 m 1xf0
 213 739 l 1
 386 739 l 2
 476 739 529 726 565 696 c 0
 593 672 608 635 608 590 c 0xe8
 608 576 606 562 603 547 c 0
 589 474 556 426 493 394 c 1
 558 365 588 323 588 259 c 0
 588 244 586 229 583 212 c 0
 569 136 526 71 468 39 c 0
 416 11 358 0 259 0 c 2
 76 0 l 1xf0
162 67 m 1
 263 67 l 2
 338 67 389 75 428 94 c 0
 466 112 499 157 508 208 c 0
 510 220 511 230 511 241 c 0xf0
 511 290 488 326 447 340 c 0
 416 350 380 354 304 354 c 2
 216 354 l 1
 162 67 l 1
228 421 m 1
 318 421 l 2
 385 421 418 426 452 440 c 0
 492 457 519 495 528 546 c 0
 530 556 531 566 531 576 c 0xe8
 531 607 521 633 504 646 c 0
 480 665 440 672 364 672 c 2
 275 672 l 1
 228 421 l 1
EndSplineSet
EndChar

StartChar: C
Encoding: 67 67 36
Width: 813
Flags: MW
HStem: -13 68<365 475.5 365 505> 547 21G<785 868 785 785> 684 68<468.5 588.5>
VStem: 105 77<239 306>
LayerCount: 2
Fore
SplineSet
724 194 m 1
 806 194 l 1
 707 57 580 -13 430 -13 c 0
 235 -13 105 115 105 294 c 0
 105 318 107 342 112 367 c 0
 153 588 346 752 566 752 c 0
 719 752 835 674 868 547 c 1
 785 547 l 1
 765 593 748 615 717 637 c 0
 674 668 620 684 557 684 c 0
 380 684 221 548 188 370 c 0
 184 350 182 331 182 312 c 0
 182 166 289 55 441 55 c 0
 510 55 581 78 640 119 c 0
 667 138 688 156 724 194 c 1
EndSplineSet
EndChar

StartChar: D
Encoding: 68 68 37
Width: 744
Flags: MW
HStem: 0 67<162 265 265 275> 672 67<275 378 275 275>
VStem: 700 76<436 475.5>
LayerCount: 2
Fore
SplineSet
76 0 m 1
 213 739 l 1
 387 739 l 2
 525 739 602 722 665 676 c 0
 738 624 776 546 776 449 c 0
 776 423 773 396 768 367 c 0
 742 226 659 115 531 51 c 0
 461 16 382 0 275 0 c 2
 76 0 l 1
162 67 m 1
 265 67 l 2
 400 67 482 87 551 138 c 0
 625 193 677 276 694 370 c 0
 698 392 700 413 700 433 c 0
 700 518 664 588 600 628 c 0
 552 659 486 672 378 672 c 2
 275 672 l 1
 162 67 l 1
EndSplineSet
EndChar

StartChar: E
Encoding: 69 69 38
Width: 536
Flags: MW
HStem: 0 67<162 480> 340 67<225 532 213 544> 672 67<275 605 275 275>
LayerCount: 2
Fore
SplineSet
76 0 m 1
 213 739 l 1
 617 739 l 1
 605 672 l 1
 275 672 l 1
 225 407 l 1
 544 407 l 1
 532 340 l 1
 213 340 l 1
 162 67 l 1
 492 67 l 1
 480 0 l 1
 76 0 l 1
EndSplineSet
EndChar

StartChar: F
Encoding: 70 70 39
Width: 485
Flags: MW
HStem: 0 21G<76 76 76 150> 338 67<225 503 213 515> 672 67<275 576 275 275>
LayerCount: 2
Fore
SplineSet
76 0 m 1
 213 739 l 1
 588 739 l 1
 576 672 l 1
 275 672 l 1
 225 405 l 1
 515 405 l 1
 503 338 l 1
 213 338 l 1
 150 0 l 1
 76 0 l 1
EndSplineSet
EndChar

StartChar: G
Encoding: 71 71 40
Width: 872
Flags: MW
HStem: -13 68<372.5 497 372.5 501> 274 67<392 793 380 894> 684 68<477.5 626>
VStem: 106 76<237 311.5>
LayerCount: 2
Fore
SplineSet
392 341 m 1
 894 341 l 1
 873 255 824 174 748 106 c 0
 663 28 558 -13 444 -13 c 0
 243 -13 106 119 106 300 c 0
 106 323 108 347 113 371 c 0
 153 585 355 752 575 752 c 0
 736 752 860 668 886 542 c 1
 803 542 l 1
 769 632 683 684 569 684 c 0
 386 684 220 547 187 369 c 0
 183 349 182 330 182 311 c 0
 182 163 292 55 453 55 c 0
 541 55 626 87 695 147 c 0
 743 189 773 228 793 274 c 1
 380 274 l 1
 392 341 l 1
EndSplineSet
EndChar

StartChar: H
Encoding: 72 72 41
Width: 683
Flags: MW
HStem: 0 21G<76 76 76 150 533 533 533 607> 347 67<227 597 214 610> 719 20G<213 287 287 287 670 744 744 744>
LayerCount: 2
Fore
SplineSet
76 0 m 1
 213 739 l 1
 287 739 l 1
 227 414 l 1
 610 414 l 1
 670 739 l 1
 744 739 l 1
 607 0 l 1
 533 0 l 1
 597 347 l 1
 214 347 l 1
 150 0 l 1
 76 0 l 1
EndSplineSet
EndChar

StartChar: I
Encoding: 73 73 42
Width: 226
Flags: MW
HStem: 0 21G<76 76 76 150> 719 20G<213 287 287 287>
VStem: 76 211
LayerCount: 2
Fore
SplineSet
76 0 m 1
 213 739 l 1
 287 739 l 1
 150 0 l 1
 76 0 l 1
EndSplineSet
EndChar

StartChar: J
Encoding: 74 74 43
Width: 482
Flags: MW
HStem: -14 68<187 260 187 270> 719 20G<469 543 543 543>
VStem: 41 74<123.5 144.5>
LayerCount: 2
Fore
SplineSet
543 739 m 1
 449 231 l 2
 420 72 334 -14 206 -14 c 0
 100 -14 41 42 41 139 c 0
 41 150 41 163 43 175 c 1
 116 175 l 1
 115 168 115 161 115 155 c 0
 115 92 154 54 220 54 c 0
 300 54 353 114 375 231 c 2
 469 739 l 1
 543 739 l 1
EndSplineSet
EndChar

StartChar: K
Encoding: 75 75 44
Width: 591
Flags: MW
HStem: 0 21G<76 76 76 150 492 492 492 585> 719 20G<213 287 287 287 629 722 722 722>
LayerCount: 2
Fore
SplineSet
76 0 m 1
 213 739 l 1
 287 739 l 1
 208 314 l 1
 629 739 l 1
 722 739 l 1
 363 379 l 1
 585 0 l 1
 492 0 l 1
 305 320 l 1
 187 202 l 1
 150 0 l 1
 76 0 l 1
EndSplineSet
EndChar

StartChar: L
Encoding: 76 76 45
Width: 462
Flags: MW
HStem: 0 67<162 456> 719 20G<213 287 287 287>
LayerCount: 2
Fore
SplineSet
76 0 m 1
 213 739 l 1
 287 739 l 1
 162 67 l 1
 468 67 l 1
 456 0 l 1
 76 0 l 1
EndSplineSet
EndChar

StartChar: M
Encoding: 77 77 46
Width: 919
Flags: MW
HStem: 0 21G<76 76 76 150 427 427 427 491 769 769 769 843> 719 20G<213 328 328 328 865 980 980 980>
LayerCount: 2
Fore
SplineSet
76 0 m 1
 213 739 l 1
 328 739 l 1
 480 110 l 1
 865 739 l 1
 980 739 l 1
 843 0 l 1
 769 0 l 1
 891 658 l 1
 491 0 l 1
 427 0 l 1
 272 658 l 1
 150 0 l 1
 76 0 l 1
EndSplineSet
EndChar

StartChar: N
Encoding: 78 78 47
Width: 740
Flags: MW
HStem: 0 21G<76 76 76 150 590 590 590 664> 719 20G<213 313 313 313 727 801 801 801>
LayerCount: 2
Fore
SplineSet
76 0 m 1
 213 739 l 1
 313 739 l 1
 613 126 l 1
 727 739 l 1
 801 739 l 1
 664 0 l 1
 590 0 l 1
 270 650 l 1
 150 0 l 1
 76 0 l 1
EndSplineSet
EndChar

StartChar: O
Encoding: 79 79 48
Width: 869
Flags: MW
HStem: -13 68<368 531 368 540> 684 68<473.5 636.5>
VStem: 106 76<240 313> 824 76<426 499.5>
LayerCount: 2
Fore
SplineSet
579 752 m 0
 765 752 900 615 900 437 c 0
 900 415 897 392 893 369 c 0
 854 159 647 -13 433 -13 c 0
 242 -13 106 124 106 302 c 0
 106 324 108 346 112 369 c 0
 151 582 359 752 579 752 c 0
558 684 m 0
 389 684 219 539 187 369 c 0
 183 350 182 331 182 313 c 0
 182 167 291 55 445 55 c 0
 617 55 786 197 818 368 c 0
 822 388 824 407 824 426 c 0
 824 573 715 684 558 684 c 0
EndSplineSet
EndChar

StartChar: P
Encoding: 80 80 49
Width: 592
Flags: MW
HStem: 0 21G<76 76 76 150> 299 67<218 347 205 355> 672 67<275 380 275 275>
VStem: 590 76<561.5 581.5>
LayerCount: 2
Fore
SplineSet
76 0 m 1
 213 739 l 1
 417 739 l 2
 512 739 566 728 607 700 c 0
 646 674 666 629 666 570 c 0
 666 553 664 534 660 515 c 0
 646 441 609 380 555 345 c 0
 504 312 447 299 347 299 c 2
 205 299 l 1
 150 0 l 1
 76 0 l 1
218 366 m 1
 355 366 l 2
 423 366 467 373 501 391 c 0
 544 412 575 458 586 516 c 0
 589 530 590 543 590 556 c 0
 590 607 569 642 529 656 c 0
 498 667 453 672 380 672 c 2
 275 672 l 1
 218 366 l 1
EndSplineSet
EndChar

StartChar: Q
Encoding: 81 81 50
Width: 871
Flags: MW
HStem: -13 68<394.5 482> 237 68<316.5 384> 684 68<477.5 649.5>
VStem: 106 75<302 311> 838 77<433 503.5>
LayerCount: 2
Fore
SplineSet
837 56 m 1
 825 -13 l 1
 756 -12 716 4 674 51 c 1
 603 9 523 -13 441 -13 c 0
 243 -13 106 120 106 300 c 0
 106 322 108 346 112 369 c 0
 153 588 354 752 583 752 c 0
 783 752 915 625 915 445 c 0
 915 421 913 397 908 371 c 0
 887 257 826 161 733 93 c 1
 765 66 791 55 822 55 c 0
 825 55 830 55 837 56 c 1
201 216 m 1
 235 119 336 55 453 55 c 0
 516 55 569 69 624 100 c 1
 535 198 447 237 321 237 c 0
 274 237 244 232 201 216 c 1
182 279 m 1
 243 298 288 305 345 305 c 0
 452 305 538 276 612 215 c 0
 637 193 660 171 689 142 c 1
 769 208 817 284 833 371 c 0
 837 391 838 411 838 430 c 0
 838 577 730 684 569 684 c 0
 386 684 220 545 186 363 c 0
 182 343 181 327 181 306 c 0
 181 298 182 289 182 279 c 1
EndSplineSet
EndChar

StartChar: R
Encoding: 82 82 51
Width: 607
Flags: MW
HStem: 0 21G<76 150 76 76 474 566 474 474> 672 67<275 379 275 275>
VStem: 599 76<546.5 566>
LayerCount: 2
Fore
SplineSet
410 276 m 1
 566 0 l 1
 474 0 l 1
 287 335 l 1
 377 335 423 339 460 349 c 0
 535 370 580 422 595 503 c 0
 598 517 599 530 599 542 c 0
 599 590 580 626 544 645 c 0
 508 664 457 672 379 672 c 2
 275 672 l 1
 150 0 l 1
 76 0 l 1
 213 739 l 1
 396 739 l 2
 497 739 559 727 601 701 c 0
 650 669 675 619 675 555 c 0
 675 538 673 521 670 502 c 0
 646 370 555 291 410 276 c 1
EndSplineSet
EndChar

StartChar: S
Encoding: 83 83 52
Width: 498
Flags: MW
HStem: -13 68<242 307.5 242 315> 552 21G<483 560 483 483> 684 68<339 410>
VStem: 58 80<164.5 176> 145 77<519.5 522> 441 77<240.5 247> 485 79<585 607.5>
LayerCount: 2
Fore
SplineSet
60 207 m 1xfc
 139 207 l 1
 138 197 138 188 138 180 c 0
 138 149 144 128 158 107 c 0
 179 74 219 55 265 55 c 0
 350 55 422 117 438 202 c 0
 440 212 441 222 441 231 c 0xfc
 441 263 430 290 408 308 c 0
 386 325 357 339 302 356 c 0
 220 383 200 394 176 422 c 0
 155 445 145 479 145 516 c 0
 145 528 146 540 148 553 c 0
 170 669 271 752 390 752 c 0
 497 752 564 689 564 591 c 0
 564 579 562 566 560 552 c 1
 483 552 l 1
 484 560 485 567 485 574 c 0xfa
 485 641 444 684 376 684 c 0
 302 684 238 630 224 555 c 0
 223 547 222 540 222 532 c 0
 222 507 230 484 243 469 c 0
 260 452 280 443 343 423 c 0
 415 400 443 386 470 364 c 0
 501 337 518 295 518 247 c 0
 518 234 517 220 514 206 c 0
 491 80 379 -13 251 -13 c 0
 131 -13 58 58 58 170 c 0
 58 182 58 194 60 207 c 1xfc
EndSplineSet
EndChar

StartChar: T
Encoding: 84 84 53
Width: 426
Flags: MW
HStem: 0 21G<176 176 176 250> 672 67<144 301 132 556 375 375 375 544>
LayerCount: 2
Fore
SplineSet
176 0 m 1
 301 672 l 1
 132 672 l 1
 144 739 l 1
 556 739 l 1
 544 672 l 1
 375 672 l 1
 250 0 l 1
 176 0 l 1
EndSplineSet
EndChar

StartChar: U
Encoding: 85 85 54
Width: 655
Flags: MW
HStem: -13 68<307 366.5> 719 20G<213 287 287 287 642 716 716 716>
VStem: 117 76<184 195.5>
LayerCount: 2
Fore
SplineSet
213 739 m 1
 287 739 l 1
 202 278 l 2
 197 249 193 222 193 199 c 0
 193 169 198 145 207 125 c 0
 227 82 277 55 337 55 c 0
 398 55 458 82 494 125 c 0
 523 160 545 211 557 278 c 2
 642 739 l 1
 716 739 l 1
 631 278 l 2
 613 183 587 127 541 78 c 0
 486 20 408 -13 325 -13 c 0
 243 -13 175 20 142 78 c 0
 125 108 117 140 117 182 c 0
 117 209 121 241 128 278 c 2
 213 739 l 1
EndSplineSet
EndChar

StartChar: V
Encoding: 86 86 55
Width: 702
Flags: MW
HStem: 0 21G<314 314 314 386> 719 20G<147 228 228 228 749 829 829 829>
LayerCount: 2
Fore
SplineSet
314 0 m 1
 147 739 l 1
 228 739 l 1
 368 92 l 1
 749 739 l 1
 829 739 l 1
 386 0 l 1
 314 0 l 1
EndSplineSet
EndChar

StartChar: W
Encoding: 87 87 56
Width: 960
Flags: MW
HStem: 0 21G<221 221 221 317 643 643 643 738> 719 20G<147 223 223 223 582 652 652 652 1011 1087 1087 1087>
LayerCount: 2
Fore
SplineSet
221 0 m 1
 147 739 l 1
 223 739 l 1
 286 96 l 1
 582 739 l 1
 652 739 l 1
 710 96 l 1
 1011 739 l 1
 1087 739 l 1
 738 0 l 1
 643 0 l 1
 591 606 l 1
 317 0 l 1
 221 0 l 1
EndSplineSet
EndChar

StartChar: X
Encoding: 88 88 57
Width: 609
Flags: MW
HStem: 0 21G<8 8 8 95 514 514 514 601> 719 20G<159 246 246 246 637 723 723 723>
LayerCount: 2
Fore
SplineSet
8 0 m 1
 329 378 l 1
 159 739 l 1
 246 739 l 1
 387 443 l 1
 637 739 l 1
 723 739 l 1
 419 378 l 1
 601 0 l 1
 514 0 l 1
 364 316 l 1
 95 0 l 1
 8 0 l 1
EndSplineSet
EndChar

StartChar: Y
Encoding: 89 89 58
Width: 592
Flags: MW
HStem: 0 21G<258 258 258 332> 719 20G<139 221 221 221 646 727 727 727>
LayerCount: 2
Fore
SplineSet
258 0 m 1
 304 247 l 1
 139 739 l 1
 221 739 l 1
 354 325 l 1
 646 739 l 1
 727 739 l 1
 378 247 l 1
 332 0 l 1
 258 0 l 1
EndSplineSet
EndChar

StartChar: Z
Encoding: 90 90 59
Width: 480
Flags: MW
HStem: 0 67<17 29 29 29 113 474> 672 67<165 505 153 600 588 588>
LayerCount: 2
Fore
SplineSet
17 0 m 1
 29 67 l 1
 505 672 l 1
 153 672 l 1
 165 739 l 1
 600 739 l 1
 588 672 l 1
 113 67 l 1
 486 67 l 1
 474 0 l 1
 17 0 l 1
EndSplineSet
EndChar

StartChar: bracketleft
Encoding: 91 91 60
Width: 351
Flags: MW
HStem: 719 20G<450 450>
VStem: 133 73<59 91.5>
LayerCount: 2
Fore
SplineSet
304 -50 m 1
 290 -125 l 1
 236 -109 197 -81 168 -38 c 0
 145 -4 133 31 133 79 c 0
 133 104 136 132 142 164 c 2
 198 462 l 2
 214 551 250 616 314 668 c 0
 358 705 397 726 450 739 c 1
 436 664 l 1
 330 621 287 566 265 448 c 2
 215 177 l 2
 209 146 206 119 206 95 c 0
 206 23 235 -17 304 -50 c 1
EndSplineSet
EndChar

StartChar: backslash
Encoding: 92 92 61
Width: 605
Flags: MW
HStem: 0 21G<394 464 394 394> 719 20G<221 291 291 291>
VStem: 221 243
LayerCount: 2
Fore
SplineSet
464 0 m 1
 394 0 l 1
 221 739 l 1
 291 739 l 1
 464 0 l 1
EndSplineSet
EndChar

StartChar: bracketright
Encoding: 93 93 62
Width: 351
Flags: MW
HStem: 719 20G<175 175>
VStem: 259 72<522.5 555>
LayerCount: 2
Fore
SplineSet
161 664 m 1
 175 739 l 1
 229 723 268 695 297 653 c 0
 320 620 331 583 331 535 c 0
 331 510 328 482 322 450 c 2
 267 153 l 2
 250 63 215 -1 151 -54 c 0
 107 -91 69 -111 15 -125 c 1
 29 -50 l 1
 135 -6 178 48 200 166 c 2
 250 438 l 2
 256 469 259 496 259 519 c 0
 259 591 230 631 161 664 c 1
EndSplineSet
EndChar

StartChar: asciicircum
Encoding: 94 94 63
Width: 606
Flags: MW
HStem: 719 20G<398 483 483 483>
LayerCount: 2
Fore
SplineSet
621 180 m 1
 540 180 l 1
 426 660 l 1
 132 180 l 1
 51 180 l 1
 398 739 l 1
 483 739 l 1
 621 180 l 1
EndSplineSet
EndChar

StartChar: underscore
Encoding: 95 95 64
Width: 500
Flags: MW
HStem: -125 58<-12 477 -23 488>
LayerCount: 2
Fore
SplineSet
-12 -67 m 1
 488 -67 l 1
 477 -125 l 1
 -23 -125 l 1
 -12 -67 l 1
EndSplineSet
EndChar

StartChar: grave
Encoding: 96 96 65
Width: 378
Flags: MW
HStem: 610 166<250 384>
VStem: 207 220<666 718>
LayerCount: 2
Fore
SplineSet
250 776 m 1
 427 666 l 1
 384 610 l 1
 207 718 l 1
 250 776 l 1
EndSplineSet
EndChar

StartChar: a
Encoding: 97 97 66
Width: 683
Flags: MW
HStem: -13 68<291.5 380.5> 0 21G<546 620 546 546> 492 68<361.5 474.5> 527 20G<647 721 721 721>
VStem: 87 77<181.5 225>
LayerCount: 2
Fore
SplineSet
721 547 m 1x18
 620 0 l 1
 546 0 l 1x58
 564 96 l 1
 492 18 427 -13 334 -13 c 0
 185 -13 87 81 87 216 c 0
 87 234 88 253 92 272 c 0
 122 436 270 560 434 560 c 0xa8
 529 560 588 527 629 450 c 1
 647 547 l 1
 721 547 l 1x18
420 492 m 0xa8
 303 492 190 395 168 275 c 0
 165 261 164 246 164 233 c 0
 164 130 238 55 345 55 c 0
 464 55 574 151 597 275 c 0
 600 290 601 304 601 318 c 0
 601 420 529 492 420 492 c 0xa8
EndSplineSet
EndChar

StartChar: b
Encoding: 98 98 67
Width: 682
Flags: MW
HStem: -13 68<305.5 420.5 305.5 431.5> 0 21G<63 63 63 137> 492 68<410 493.5> 719 20G<200 274 274 274>
VStem: 620 76<320 371>
LayerCount: 2
Fore
SplineSet
63 0 m 1x78
 200 739 l 1
 274 739 l 1
 221 453 l 1
 281 522 364 560 456 560 c 0
 599 560 696 463 696 329 c 0
 696 311 694 293 691 274 c 0
 661 110 514 -13 349 -13 c 0xb8
 259 -13 187 26 154 94 c 1
 137 0 l 1
 63 0 l 1x78
438 492 m 0
 317 492 206 396 183 273 c 0
 180 259 179 245 179 232 c 0
 179 131 252 55 359 55 c 0
 482 55 593 149 616 275 c 0
 619 290 620 306 620 320 c 0
 620 422 549 492 438 492 c 0
EndSplineSet
EndChar

StartChar: c
Encoding: 99 99 68
Width: 647
Flags: MW
HStem: -13 68<292.5 371> 492 68<364 465.5>
VStem: 88 76<181 229.5>
LayerCount: 2
Fore
SplineSet
554 161 m 1
 638 161 l 1
 596 103 569 74 527 46 c 0
 470 7 404 -13 338 -13 c 0
 189 -13 88 85 88 221 c 0
 88 238 90 256 93 275 c 0
 122 434 275 560 439 560 c 0
 563 560 654 491 678 381 c 1
 595 381 l 1
 566 453 506 492 425 492 c 0
 303 492 191 396 168 273 c 0
 165 259 164 245 164 232 c 0
 164 130 238 55 347 55 c 0
 425 55 483 85 554 161 c 1
EndSplineSet
EndChar

StartChar: d
Encoding: 100 100 69
Width: 685
Flags: MW
HStem: -13 68<293 384> 0 21G<548 622 548 548> 492 68<360.5 474.5> 719 20G<685 759 759 759>
VStem: 87 77<182 226.5>
LayerCount: 2
Fore
SplineSet
759 739 m 1xb8
 622 0 l 1
 548 0 l 1x78
 566 99 l 1
 495 20 430 -13 338 -13 c 0
 188 -13 87 83 87 218 c 0
 87 235 89 254 92 272 c 0
 122 436 271 560 437 560 c 0
 523 560 591 525 633 460 c 1
 685 739 l 1
 759 739 l 1xb8
419 492 m 0
 302 492 190 395 168 274 c 0
 165 260 164 246 164 233 c 0
 164 131 238 55 348 55 c 0xb8
 465 55 580 154 602 275 c 0
 605 289 606 302 606 315 c 0
 606 417 530 492 419 492 c 0
EndSplineSet
EndChar

StartChar: e
Encoding: 101 101 70
Width: 650
Flags: MW
HStem: -13 68<287 380.5 287 388.5> 249 67<177 596 177 657 162 596> 492 68<364 469>
VStem: 88 73<176 228 176 230> 596 71<316 349>
LayerCount: 2
Fore
SplineSet
657 249 m 1
 162 249 l 1
 161 241 161 232 161 224 c 0
 161 128 235 55 339 55 c 0
 422 55 508 105 553 180 c 1
 630 180 l 1
 569 65 448 -13 329 -13 c 0
 186 -13 88 86 88 221 c 0
 88 239 90 257 93 276 c 0
 122 435 271 560 429 560 c 0
 537 560 623 503 654 411 c 0
 662 386 667 363 667 335 c 0
 667 311 663 283 657 249 c 1
177 316 m 1
 596 316 l 1
 591 425 522 492 416 492 c 0
 312 492 216 421 177 316 c 1
EndSplineSet
EndChar

StartChar: f
Encoding: 102 102 71
Width: 314
Flags: MW
HStem: 0 21G<101 101 101 175> 480 67<117 190 105 202 117 264 276 400> 672 67<385 436>
LayerCount: 2
Fore
SplineSet
101 0 m 1
 190 480 l 1
 105 480 l 1
 117 547 l 1
 202 547 l 1
 226 677 307 739 448 739 c 1
 436 672 l 1
 334 672 293 639 276 547 c 1
 412 547 l 1
 400 480 l 1
 264 480 l 1
 175 0 l 1
 101 0 l 1
EndSplineSet
EndChar

StartChar: g
Encoding: 103 103 72
Width: 673
Flags: MW
HStem: -215 68<278.5 344.5> -37 20G<59 131 131 131> -13 68<284.5 374.5> 492 68<353.5 465.5> 527 20G<637 711 711 711>
VStem: 87 77<178.5 225>
LayerCount: 2
Fore
SplineSet
711 547 m 1xec
 628 98 l 2
 608 -9 583 -67 537 -117 c 0
 478 -180 392 -215 297 -215 c 0
 159 -215 75 -145 59 -17 c 1
 131 -17 l 1
 147 -60 155 -77 172 -95 c 0
 205 -130 249 -147 308 -147 c 0
 393 -147 464 -111 505 -48 c 0
 527 -14 540 20 550 74 c 2
 557 111 l 1
 498 27 424 -13 325 -13 c 0
 183 -13 87 83 87 216 c 0
 87 234 89 252 92 271 c 0
 123 437 265 560 425 560 c 0xf4
 518 560 578 526 619 450 c 1
 637 547 l 1
 711 547 l 1xec
411 492 m 0
 296 492 191 399 168 277 c 0
 165 261 164 245 164 230 c 0
 164 127 232 55 337 55 c 0
 456 55 564 152 588 279 c 0
 591 294 592 308 592 322 c 0
 592 423 520 492 411 492 c 0
EndSplineSet
EndChar

StartChar: h
Encoding: 104 104 73
Width: 610
Flags: MW
HStem: 0 21G<63 63 63 137 473 473 473 547> 492 68<377 420.5> 719 20G<200 274 274 274>
VStem: 534 76<365.5 374>
LayerCount: 2
Fore
SplineSet
63 0 m 1
 200 739 l 1
 274 739 l 1
 225 476 l 1
 272 530 340 560 414 560 c 0
 494 560 557 529 588 476 c 0
 603 449 610 417 610 378 c 0
 610 353 607 326 601 294 c 2
 547 0 l 1
 473 0 l 1
 527 294 l 2
 532 318 534 339 534 358 c 0
 534 390 528 415 514 436 c 0
 491 471 446 492 395 492 c 0
 338 492 280 465 243 421 c 0
 217 391 204 357 193 300 c 2
 137 0 l 1
 63 0 l 1
EndSplineSet
EndChar

StartChar: i
Encoding: 105 105 74
Width: 200
Flags: MW
HStem: 0 21G<63 63 63 137> 527 20G<164 238 238 238> 719 20G<200 274 274 274>
VStem: 63 211
LayerCount: 2
Fore
SplineSet
63 0 m 1
 164 547 l 1
 238 547 l 1
 137 0 l 1
 63 0 l 1
177 613 m 1
 200 739 l 1
 274 739 l 1
 251 613 l 1
 177 613 l 1
EndSplineSet
Substitution2: "Single Substitution lookup 26 subtable" i.dotless
Substitution2: "'aalt' Access All Alternates lookup 0 subtable" i.dotless
EndChar

StartChar: j
Encoding: 106 106 75
Width: 203
Flags: MW
HStem: -192 71<-81 -67> 527 20G<167 241 241 241> 719 20G<203 277 277 277>
LayerCount: 2
Fore
SplineSet
241 547 m 1
 147 38 l 2
 127 -72 100 -118 36 -158 c 0
 0 -180 -35 -190 -81 -192 c 1
 -67 -121 l 1
 17 -116 52 -76 73 38 c 2
 167 547 l 1
 241 547 l 1
180 613 m 1
 203 739 l 1
 277 739 l 1
 254 613 l 1
 180 613 l 1
EndSplineSet
Substitution2: "Single Substitution lookup 26 subtable" j.dotless
Substitution2: "'aalt' Access All Alternates lookup 0 subtable" j.dotless
EndChar

StartChar: k
Encoding: 107 107 76
Width: 502
Flags: MW
HStem: 0 21G<63 63 63 137 405 405 405 497> 527 20G<493 584 584 584> 719 20G<200 274 274 274>
LayerCount: 2
Fore
SplineSet
63 0 m 1
 200 739 l 1
 274 739 l 1
 177 215 l 1
 493 547 l 1
 584 547 l 1
 320 272 l 1
 497 0 l 1
 405 0 l 1
 264 219 l 1
 158 113 l 1
 137 0 l 1
 63 0 l 1
EndSplineSet
EndChar

StartChar: l
Encoding: 108 108 77
Width: 200
Flags: MW
HStem: 0 21G<63 63 63 137> 719 20G<200 274 274 274>
VStem: 63 211
LayerCount: 2
Fore
SplineSet
63 0 m 1
 200 739 l 1
 274 739 l 1
 137 0 l 1
 63 0 l 1
EndSplineSet
EndChar

StartChar: m
Encoding: 109 109 78
Width: 938
Flags: MW
HStem: 0 21G<63 63 63 137 432 432 432 506 801 801 801 875> 492 68<360.5 397 721 770> 527 20G<164 238 238 238>
VStem: 866 77<384.5 389>
LayerCount: 2
Fore
SplineSet
63 0 m 1xd0
 164 547 l 1
 238 547 l 1xb0
 227 484 l 1
 280 539 326 560 395 560 c 0
 478 560 525 529 554 455 c 1
 614 528 679 560 763 560 c 0
 837 560 895 531 923 479 c 0
 936 455 943 428 943 395 c 0
 943 374 940 351 935 325 c 2
 875 0 l 1
 801 0 l 1
 860 317 l 2
 864 339 866 358 866 375 c 0
 866 403 860 426 850 443 c 0
 832 474 793 492 747 492 c 0
 694 492 642 467 608 426 c 0
 587 400 574 367 565 317 c 2
 506 0 l 1
 432 0 l 1
 491 319 l 2
 495 340 497 359 497 375 c 0
 497 404 490 426 477 445 c 0
 456 475 419 492 375 492 c 0
 283 492 216 428 196 319 c 2
 137 0 l 1
 63 0 l 1xd0
EndSplineSet
EndChar

StartChar: n
Encoding: 110 110 79
Width: 610
Flags: MW
HStem: 0 21G<63 63 63 137 473 473 473 547> 492 68<381 421.5> 527 20G<164 238 238 238>
VStem: 534 76<367 376.5>
LayerCount: 2
Fore
SplineSet
63 0 m 1xd0
 164 547 l 1
 238 547 l 1xb0
 225 476 l 1
 282 533 345 560 417 560 c 0
 494 560 554 530 587 475 c 0
 603 447 610 418 610 380 c 0
 610 354 607 324 600 287 c 2
 547 0 l 1
 473 0 l 1
 526 287 l 2
 531 316 534 340 534 361 c 0
 534 392 528 415 515 436 c 0
 492 472 448 492 395 492 c 0
 335 492 278 466 241 422 c 0
 216 392 204 360 193 301 c 2
 137 0 l 1
 63 0 l 1xd0
EndSplineSet
EndChar

StartChar: o
Encoding: 111 111 80
Width: 655
Flags: MW
HStem: -13 68<287.5 402 287.5 412.5> 492 68<357 471>
VStem: 87 76<177 226> 593 76<321.5 370.5>
LayerCount: 2
Fore
SplineSet
436 560 m 0
 577 560 669 465 669 331 c 0
 669 312 667 292 663 272 c 0
 633 108 493 -13 332 -13 c 0
 185 -13 87 82 87 217 c 0
 87 235 89 254 93 273 c 0
 124 439 268 560 436 560 c 0
417 492 m 0
 297 492 190 398 167 272 c 0
 164 257 163 242 163 228 c 0
 163 126 233 55 342 55 c 0
 462 55 565 145 588 271 c 0
 591 288 593 304 593 319 c 0
 593 422 525 492 417 492 c 0
EndSplineSet
EndChar

StartChar: p
Encoding: 112 112 81
Width: 682
Flags: MW
HStem: -192 21G<27 101 27 27> -13 68<305 420.5 305 430> 492 68<409 492.5> 527 20G<164 238 238 238>
VStem: 620 76<320 369>
LayerCount: 2
Fore
SplineSet
164 547 m 1xd8
 238 547 l 1xd8
 221 453 l 1
 280 523 362 560 456 560 c 0xe8
 600 560 696 464 696 329 c 0
 696 311 695 292 691 273 c 0
 661 112 512 -13 348 -13 c 0
 257 -13 189 24 154 94 c 1
 101 -192 l 1
 27 -192 l 1
 164 547 l 1xd8
437 492 m 0xe8
 317 492 206 396 183 273 c 0
 180 258 179 245 179 231 c 0
 179 129 251 55 359 55 c 0
 482 55 592 148 615 271 c 0
 618 287 620 302 620 317 c 0
 620 421 548 492 437 492 c 0xe8
EndSplineSet
EndChar

StartChar: q
Encoding: 113 113 82
Width: 682
Flags: MW
HStem: -192 21G<509 583 509 509> -13 68<289 375.5> 492 68<361 477> 527 20G<646 720 720 720>
VStem: 87 76<178 228>
LayerCount: 2
Fore
SplineSet
720 547 m 1xd8
 583 -192 l 1
 509 -192 l 1
 562 94 l 1
 501 24 421 -13 330 -13 c 0
 185 -13 87 85 87 219 c 0
 87 237 90 254 93 273 c 0
 123 436 271 560 434 560 c 0xe8
 528 560 596 523 629 453 c 1
 646 547 l 1
 720 547 l 1xd8
422 492 m 0
 300 492 190 397 167 272 c 0
 164 257 163 243 163 229 c 0
 163 127 235 55 343 55 c 0
 466 55 578 150 601 273 c 0
 604 288 605 302 605 316 c 0
 605 419 532 492 422 492 c 0
EndSplineSet
EndChar

StartChar: r
Encoding: 114 114 83
Width: 301
Flags: MW
HStem: 0 21G<63 63 63 137> 487 73<382 396> 527 20G<164 238 238 238>
LayerCount: 2
Fore
SplineSet
63 0 m 1xc0
 164 547 l 1
 238 547 l 1xa0
 224 469 l 1
 264 529 316 556 396 560 c 1
 382 487 l 1
 277 477 215 421 196 319 c 2
 137 0 l 1
 63 0 l 1xc0
EndSplineSet
EndChar

StartChar: s
Encoding: 115 115 84
Width: 388
Flags: MW
HStem: -13 68<176.5 231 176.5 241.5> 492 68<261 304.5>
VStem: 44 75<112 129> 111 77<364 400.5> 316 77<185.5 189.5> 349 76<434.5 448>
LayerCount: 2
Fore
SplineSet
48 161 m 1xe8
 121 161 l 1
 120 153 119 146 119 139 c 0
 119 85 149 55 204 55 c 0
 258 55 304 95 314 150 c 0
 316 158 316 165 316 172 c 0xe8
 316 207 294 226 227 255 c 0
 156 287 155 287 136 308 c 0
 119 327 111 350 111 378 c 0
 111 387 111 396 113 406 c 0
 129 495 207 560 297 560 c 0
 376 560 425 512 425 439 c 0
 425 430 424 421 423 412 c 1
 348 412 l 1
 349 417 349 422 349 427 c 0
 349 469 326 492 283 492 c 0
 239 492 198 457 190 413 c 0
 189 408 188 403 188 398 c 0xd4
 188 374 201 355 227 340 c 0
 242 333 245 331 321 297 c 0
 370 275 393 240 393 191 c 0
 393 180 392 169 390 157 c 0
 371 57 291 -13 192 -13 c 0
 99 -13 44 39 44 123 c 0
 44 135 46 148 48 161 c 1xe8
EndSplineSet
EndChar

StartChar: t
Encoding: 116 116 85
Width: 339
Flags: MW
HStem: 0 21G<130 130 130 204> 480 67<113 219 101 231 113 293 305 416> 719 20G<267 341 341 341>
VStem: 101 327<480 547>
LayerCount: 2
Fore
SplineSet
130 0 m 1
 219 480 l 1
 101 480 l 1
 113 547 l 1
 231 547 l 1
 267 739 l 1
 341 739 l 1
 305 547 l 1
 428 547 l 1
 416 480 l 1
 293 480 l 1
 204 0 l 1
 130 0 l 1
EndSplineSet
EndChar

StartChar: u
Encoding: 117 117 86
Width: 608
Flags: MW
HStem: -13 68<280.5 335.5> 0 21G<471 545 471 471> 527 20G<164 238 238 238 572 646 646 646>
VStem: 100 76<168.5 176>
LayerCount: 2
Fore
SplineSet
646 547 m 1xb0
 545 0 l 1
 471 0 l 1x70
 487 85 l 1
 437 17 378 -13 293 -13 c 0
 208 -13 147 19 118 79 c 0
 106 102 100 129 100 163 c 0
 100 189 104 218 110 252 c 2
 164 547 l 1
 238 547 l 1
 184 252 l 2
 179 226 176 202 176 181 c 0
 176 156 180 136 187 120 c 0
 205 79 251 55 310 55 c 0
 368 55 422 79 461 123 c 0
 490 157 508 199 520 266 c 2
 572 547 l 1
 646 547 l 1xb0
EndSplineSet
EndChar

StartChar: v
Encoding: 118 118 87
Width: 554
Flags: MW
HStem: 0 21G<238 238 238 316> 527 20G<109 184 184 184 572 647 647 647>
LayerCount: 2
Fore
SplineSet
238 0 m 1
 109 547 l 1
 184 547 l 1
 291 87 l 1
 572 547 l 1
 647 547 l 1
 316 0 l 1
 238 0 l 1
EndSplineSet
EndChar

StartChar: w
Encoding: 119 119 88
Width: 831
Flags: MW
HStem: 0 21G<216 216 216 296 533 533 533 612> 527 20G<108 182 182 182 853 925 925 925>
LayerCount: 2
Fore
SplineSet
216 0 m 1
 108 547 l 1
 182 547 l 1
 271 89 l 1
 473 480 l 1
 534 480 l 1
 590 89 l 1
 853 547 l 1
 925 547 l 1
 612 0 l 1
 533 0 l 1
 481 363 l 1
 296 0 l 1
 216 0 l 1
EndSplineSet
EndChar

StartChar: x
Encoding: 120 120 89
Width: 480
Flags: MW
HStem: 0 21G<8 8 8 92 387 387 387 472> 527 20G<109 193 193 193 488 573 573 573>
LayerCount: 2
Fore
SplineSet
8 0 m 1
 250 279 l 1
 109 547 l 1
 193 547 l 1
 302 336 l 1
 488 547 l 1
 573 547 l 1
 333 279 l 1
 472 0 l 1
 387 0 l 1
 281 219 l 1
 92 0 l 1
 8 0 l 1
EndSplineSet
EndChar

StartChar: y
Encoding: 121 121 90
Width: 536
Flags: MW
HStem: -192 21G<96 96 96 175> 527 20G<110 191 191 191 549 628 628 628>
LayerCount: 2
Fore
SplineSet
96 -192 m 1
 224 18 l 1
 110 547 l 1
 191 547 l 1
 284 111 l 1
 549 547 l 1
 628 547 l 1
 175 -192 l 1
 96 -192 l 1
EndSplineSet
EndChar

StartChar: z
Encoding: 122 122 91
Width: 425
Flags: MW
HStem: 0 67<10 22 22 22 109 415> 480 67<121 401 109 497>
LayerCount: 2
Fore
SplineSet
10 0 m 1
 22 67 l 1
 401 480 l 1
 109 480 l 1
 121 547 l 1
 497 547 l 1
 486 484 l 1
 109 67 l 1
 427 67 l 1
 415 0 l 1
 10 0 l 1
EndSplineSet
EndChar

StartChar: braceleft
Encoding: 123 123 92
Width: 351
Flags: MW
HStem: 272 69<108 121> 672 67<417 429>
VStem: 135 78<-29.5 -27> 175 78<220 235>
LayerCount: 2
Fore
SplineSet
182 306 m 1xd0
 199 300 l 2
 237 284 253 265 253 226 c 0xd0
 253 214 251 199 248 182 c 2
 216 12 l 2
 214 1 213 -7 213 -15 c 0
 213 -44 229 -54 270 -58 c 2
 281 -59 l 1
 269 -126 l 1
 202 -125 185 -121 164 -105 c 0
 145 -91 135 -68 135 -34 c 0xe0
 135 -20 136 -4 139 13 c 2
 171 183 l 2
 174 197 175 208 175 218 c 0
 175 252 157 263 108 272 c 1
 121 341 l 1
 188 352 206 368 217 430 c 2
 248 600 l 2
 259 660 281 698 316 718 c 0
 343 734 362 737 429 739 c 1
 417 672 l 1
 376 668 370 667 360 662 c 0
 344 654 331 631 325 601 c 2
 294 431 l 2
 281 362 259 333 201 313 c 0
 195 311 189 309 182 306 c 1xd0
EndSplineSet
EndChar

StartChar: bar
Encoding: 124 124 93
Width: 672
Flags: MW
HStem: 0 21G<304 368 304 304> 719 20G<441 505 505 505>
VStem: 304 201
LayerCount: 2
Fore
SplineSet
505 739 m 1
 368 0 l 1
 304 0 l 1
 441 739 l 1
 505 739 l 1
EndSplineSet
EndChar

StartChar: braceright
Encoding: 125 125 94
Width: 348
Flags: MW
HStem: 272 69<340 354> 719 20G<196 196>
VStem: 212 78<377.5 393> 251 79<620.5 659>
LayerCount: 2
Fore
SplineSet
283 306 m 1xe0
 266 313 l 2
 228 329 212 348 212 387 c 0xe0
 212 399 214 414 217 431 c 2
 248 601 l 2
 249 609 251 617 251 624 c 0
 251 637 249 649 244 656 c 0
 238 665 225 668 194 671 c 2
 184 672 l 1
 196 739 l 1
 274 737 297 730 317 702 c 0
 325 690 330 671 330 647 c 0xd0
 330 633 328 617 325 600 c 2
 294 430 l 2
 291 416 290 404 290 394 c 0
 290 361 307 349 354 341 c 1
 340 272 l 1
 275 261 259 245 248 183 c 2
 216 13 l 2
 206 -40 188 -78 160 -98 c 0
 131 -119 108 -125 36 -126 c 1
 48 -59 l 1
 59 -58 l 2
 96 -55 109 -51 119 -38 c 0
 128 -27 135 -8 139 12 c 2
 171 182 l 2
 184 251 206 279 264 300 c 2
 283 306 l 1xe0
EndSplineSet
EndChar

StartChar: asciitilde
Encoding: 126 126 95
Width: 606
Flags: MW
HStem: 231 77<463 483.5> 300 77<237 260>
LayerCount: 2
Fore
SplineSet
583 390 m 1x80
 619 343 l 1
 572 275 509 231 458 231 c 0x80
 435 231 410 238 370 257 c 2
 319 279 l 2
 279 297 270 300 250 300 c 0
 224 300 198 287 177 265 c 0
 163 250 157 242 132 210 c 1
 99 257 l 1
 163 343 208 377 264 377 c 0x40
 285 377 309 371 337 358 c 2
 397 331 l 2
 438 313 453 308 473 308 c 0
 505 308 538 332 583 390 c 1x80
EndSplineSet
EndChar

StartChar: uni0401
Encoding: 161 1025 97
Width: 536
Flags: MW
HStem: 0 67<162 480> 340 67<225 532 213 544> 672 67<275 605 275 275> 805 126<341 391 317 415 341 464 488 538>
LayerCount: 2
Fore
SplineSet
76 0 m 1
 213 739 l 1
 617 739 l 1
 605 672 l 1
 275 672 l 1
 225 407 l 1
 544 407 l 1
 532 340 l 1
 213 340 l 1
 162 67 l 1
 492 67 l 1
 480 0 l 1
 76 0 l 1
341 931 m 1
 415 931 l 1
 391 805 l 1
 317 805 l 1
 341 931 l 1
488 931 m 1
 562 931 l 1
 538 805 l 1
 464 805 l 1
 488 931 l 1
EndSplineSet
EndChar

StartChar: uni0402
Encoding: 162 1026 98
Width: 670
Flags: MW
HStem: -13 67<362 443 362 458> 0 21G<176 250 176 176> 373 67<332 461 319 479> 672 67<144 301 132 576 375 375 375 564>
VStem: 615 76<266 278.5>
LayerCount: 2
Fore
SplineSet
362 54 m 1xb8
 524 54 588 92 612 224 c 0
 614 236 615 247 615 258 c 0
 615 299 599 331 573 348 c 0
 546 366 521 373 461 373 c 2
 319 373 l 1
 250 0 l 1
 176 0 l 1x78
 301 672 l 1
 132 672 l 1
 144 739 l 1
 576 739 l 1
 564 672 l 1
 375 672 l 1
 332 440 l 1
 479 440 l 2
 571 440 606 426 644 394 c 0
 675 368 691 325 691 274 c 0
 691 258 690 241 687 224 c 0
 655 50 566 -13 350 -13 c 1
 362 54 l 1xb8
EndSplineSet
EndChar

StartChar: uni0403
Encoding: 163 1027 99
Width: 444
Flags: MW
HStem: 0 21G<76 150 76 76> 672 67<275 562 275 275> 792 172
VStem: 283 238<848 906>
LayerCount: 2
Fore
SplineSet
283 848 m 1
 498 964 l 1
 521 906 l 1
 307 792 l 1
 283 848 l 1
562 672 m 1
 275 672 l 1
 150 0 l 1
 76 0 l 1
 213 739 l 1
 574 739 l 1
 562 672 l 1
EndSplineSet
EndChar

StartChar: uni0404
Encoding: 164 1028 100
Width: 813
Flags: MW
HStem: -13 68<364.5 500.5 364.5 505> 343 67<197 653 184 665> 547 21G<785 868 785 785> 684 68<475.5 618>
VStem: 105 77<240 306>
LayerCount: 2
Fore
SplineSet
724 194 m 1
 806 194 l 1
 707 57 580 -13 430 -13 c 0
 235 -13 105 115 105 294 c 0
 105 318 107 342 112 367 c 0
 153 588 346 752 566 752 c 0
 719 752 835 674 868 547 c 1
 785 547 l 1
 748 631 679 684 557 684 c 0
 394 684 245 568 197 410 c 1
 665 410 l 1
 653 343 l 1
 184 343 l 1
 183 333 182 323 182 313 c 0
 182 167 288 55 441 55 c 0
 560 55 649 115 724 194 c 1
EndSplineSet
EndChar

StartChar: uni0405
Encoding: 165 1029 101
Width: 498
Flags: MW
HStem: -13 68<242 307.5 242 315> 552 21G<483 560 483 483> 684 68<339 410>
VStem: 58 80<164.5 176> 145 77<519.5 522> 441 77<240.5 247> 485 79<585 607.5>
LayerCount: 2
Fore
SplineSet
60 207 m 1xfc
 139 207 l 1
 138 197 138 188 138 180 c 0
 138 149 144 128 158 107 c 0
 179 74 219 55 265 55 c 0
 350 55 422 117 438 202 c 0
 440 212 441 222 441 231 c 0xfc
 441 263 430 290 408 308 c 0
 386 325 357 339 302 356 c 0
 220 383 200 394 176 422 c 0
 155 445 145 479 145 516 c 0
 145 528 146 540 148 553 c 0
 170 669 271 752 390 752 c 0
 497 752 564 689 564 591 c 0
 564 579 562 566 560 552 c 1
 483 552 l 1
 484 560 485 567 485 574 c 0xfa
 485 641 444 684 376 684 c 0
 302 684 238 630 224 555 c 0
 223 547 222 540 222 532 c 0
 222 507 230 484 243 469 c 0
 260 452 280 443 343 423 c 0
 415 400 443 386 470 364 c 0
 501 337 518 295 518 247 c 0
 518 234 517 220 514 206 c 0
 491 80 379 -13 251 -13 c 0
 131 -13 58 58 58 170 c 0
 58 182 58 194 60 207 c 1xfc
EndSplineSet
EndChar

StartChar: uni0406
Encoding: 166 1030 102
Width: 226
Flags: MW
HStem: 0 21G<76 76 76 150> 719 20G<213 287 287 287>
VStem: 76 211
LayerCount: 2
Fore
SplineSet
76 0 m 1
 213 739 l 1
 287 739 l 1
 150 0 l 1
 76 0 l 1
EndSplineSet
EndChar

StartChar: uni0407
Encoding: 167 1031 103
Width: 226
Flags: MW
HStem: 0 21G<77 77 77 151> 719 20G<214 288 288 288> 805 126<176 226 152 250 176 299 323 373>
VStem: 77 320
LayerCount: 2
Fore
SplineSet
77 0 m 1
 214 739 l 1
 288 739 l 1
 151 0 l 1
 77 0 l 1
176 931 m 1
 250 931 l 1
 226 805 l 1
 152 805 l 1
 176 931 l 1
323 931 m 1
 397 931 l 1
 373 805 l 1
 299 805 l 1
 323 931 l 1
EndSplineSet
EndChar

StartChar: uni0408
Encoding: 168 1032 104
Width: 482
Flags: MW
HStem: -14 68<187 260 187 270> 719 20G<469 543 543 543>
VStem: 41 74<123.5 144.5>
LayerCount: 2
Fore
SplineSet
543 739 m 1
 449 231 l 2
 420 72 334 -14 206 -14 c 0
 100 -14 41 42 41 139 c 0
 41 150 41 163 43 175 c 1
 116 175 l 1
 115 168 115 161 115 155 c 0
 115 92 154 54 220 54 c 0
 300 54 353 114 375 231 c 2
 469 739 l 1
 543 739 l 1
EndSplineSet
EndChar

StartChar: uni0409
Encoding: 169 1033 105
Width: 1057
Flags: MW
HStem: 0 67<629 734 734 747> 358 67<683 838 696 820> 719 20G<659 754 754 754>
VStem: 1000 77<256.5 268.5>
LayerCount: 2
Fore
SplineSet
683 358 m 1
 629 67 l 1
 734 67 l 2
 807 67 854 72 889 82 c 0
 945 98 984 147 997 215 c 0
 999 227 1000 238 1000 249 c 0
 1000 288 986 318 958 334 c 0
 930 351 888 358 820 358 c 2
 683 358 l 1
662 644 m 1
 99 0 l 1
 11 0 l 1
 659 739 l 1
 754 739 l 1
 696 425 l 1
 838 425 l 2
 938 425 990 413 1029 381 c 0
 1061 355 1077 314 1077 264 c 0
 1077 249 1075 233 1072 216 c 0
 1057 134 1013 70 951 38 c 0
 900 11 842 0 747 0 c 2
 543 0 l 1
 662 644 l 1
EndSplineSet
EndChar

StartChar: uni040A
Encoding: 170 1034 106
Width: 1017
Flags: MW
HStem: 0 67<589 694 694 707> 358 67<229 569 216 582 229 643 656 780> 719 20G<213 287 287 287 640 714 714 714>
VStem: 960 77<256.5 268.5>
LayerCount: 2
Fore
SplineSet
643 358 m 1
 589 67 l 1
 694 67 l 2
 767 67 814 72 849 82 c 0
 905 98 944 147 957 215 c 0
 959 227 960 238 960 249 c 0
 960 288 946 318 918 334 c 0
 890 351 848 358 780 358 c 2
 643 358 l 1
569 358 m 1
 216 358 l 1
 150 0 l 1
 76 0 l 1
 213 739 l 1
 287 739 l 1
 229 425 l 1
 582 425 l 1
 640 739 l 1
 714 739 l 1
 656 425 l 1
 798 425 l 2
 898 425 950 413 989 381 c 0
 1021 355 1037 314 1037 264 c 0
 1037 249 1035 233 1032 216 c 0
 1017 134 973 70 911 38 c 0
 860 11 802 0 707 0 c 2
 503 0 l 1
 569 358 l 1
EndSplineSet
EndChar

StartChar: uni040B
Encoding: 171 1035 107
Width: 705
Flags: MW
HStem: 0 21G<176 250 176 176 559 633 559 559> 375 67<443 472.5> 672 67<144 301 132 576 375 375 375 564>
VStem: 604 76<268 279.5>
LayerCount: 2
Fore
SplineSet
633 0 m 1
 559 0 l 1
 601 226 l 2
 603 237 604 249 604 259 c 0
 604 300 588 333 562 350 c 0
 535 368 495 375 450 375 c 0
 404 375 370 374 319 371 c 1
 250 0 l 1
 176 0 l 1
 301 672 l 1
 132 672 l 1
 144 739 l 1
 576 739 l 1
 564 672 l 1
 375 672 l 1
 331 438 l 1
 380 440 419 442 467 442 c 0
 535 442 594 428 632 396 c 0
 663 370 680 327 680 276 c 0
 680 260 678 243 675 226 c 2
 633 0 l 1
EndSplineSet
EndChar

StartChar: uni040C
Encoding: 172 1036 108
Width: 591
Flags: MW
HStem: 0 21G<76 150 76 76 485 585 485 485> 719 20G<213 287 287 287 624 722 722 722> 792 172
VStem: 337 238<848 906>
LayerCount: 2
Fore
SplineSet
337 848 m 1
 552 964 l 1
 575 906 l 1
 361 792 l 1
 337 848 l 1
485 0 m 1
 214 344 l 1
 150 0 l 1
 76 0 l 1
 213 739 l 1
 287 739 l 1
 224 400 l 1
 624 739 l 1
 722 739 l 1
 289 373 l 1
 585 0 l 1
 485 0 l 1
EndSplineSet
EndChar

StartChar: uni00AD
Encoding: 173 173 109
Width: 332
Flags: MW
HStem: 233 63<86 345 74 357>
VStem: 74 283<233 296>
LayerCount: 2
Fore
SplineSet
86 296 m 1
 357 296 l 1
 345 233 l 1
 74 233 l 1
 86 296 l 1
EndSplineSet
EndChar

StartChar: uni040E
Encoding: 174 1038 110
Width: 564
Flags: MW
HStem: 0 21G<159 237 159 159> 719 20G<147 225 225 225 613 691 691 691> 796 46<413 467 413 474>
VStem: 288 72<883.5 910 883.5 931> 547 75<931 931>
LayerCount: 2
Fore
SplineSet
288 931 m 1
 363 931 l 1
 361 922 360 914 360 906 c 0
 360 861 388 842 438 842 c 0
 496 842 535 868 547 931 c 1
 622 931 l 1
 588 836 518 796 430 796 c 0
 342 796 288 836 288 931 c 1
691 739 m 1
 237 0 l 1
 159 0 l 1
 279 196 l 1
 147 739 l 1
 225 739 l 1
 335 287 l 1
 613 739 l 1
 691 739 l 1
EndSplineSet
EndChar

StartChar: uni040F
Encoding: 175 1039 111
Width: 668
Flags: MW
HStem: 0 67<162 293 375 530 162 592 375 375> 719 20G<213 287 287 287 655 729 729 729>
VStem: 283 52<-136 -136>
LayerCount: 2
Fore
SplineSet
655 739 m 1
 729 739 l 1
 592 0 l 1
 375 0 l 1
 335 -136 l 1
 283 -136 l 1
 293 0 l 1
 76 0 l 1
 213 739 l 1
 287 739 l 1
 162 67 l 1
 530 67 l 1
 655 739 l 1
EndSplineSet
EndChar

StartChar: uni0410
Encoding: 176 1040 112
Width: 740
Flags: MW
HStem: 0 21G<11 11 11 89 648 648 648 729> 249 67<284 571 284 587 243 571> 719 20G<465 548 548 548>
LayerCount: 2
Fore
SplineSet
11 0 m 1
 465 739 l 1
 548 739 l 1
 729 0 l 1
 648 0 l 1
 587 249 l 1
 243 249 l 1
 89 0 l 1
 11 0 l 1
284 316 m 1
 571 316 l 1
 491 655 l 1
 284 316 l 1
EndSplineSet
EndChar

StartChar: uni0411
Encoding: 177 1041 113
Width: 585
Flags: MW
HStem: 0 67<162 264 264 277> 365 67<218 369 230 351> 672 67<275 275 275 634>
VStem: 524 77<264 275.5>
LayerCount: 2
Fore
SplineSet
218 365 m 1
 162 67 l 1
 264 67 l 2
 335 67 380 72 414 83 c 0
 468 100 508 149 521 219 c 0
 523 232 524 244 524 256 c 0
 524 295 510 326 484 341 c 0
 457 359 417 365 351 365 c 2
 218 365 l 1
275 672 m 1
 230 432 l 1
 369 432 l 2
 467 432 517 419 555 387 c 0
 586 361 601 321 601 272 c 0
 601 256 599 238 596 220 c 0
 581 137 537 72 476 39 c 0
 426 11 370 0 277 0 c 2
 76 0 l 1
 213 739 l 1
 646 739 l 1
 634 672 l 1
 275 672 l 1
EndSplineSet
EndChar

StartChar: uni0412
Encoding: 178 1042 114
Width: 574
Flags: MW
HStem: 0 67<162 259> 354 67<228 304 216 318> 672 67<275 364 275 275>
VStem: 511 77<251.5 265.5> 531 77<583 591.5>
LayerCount: 2
Fore
SplineSet
76 0 m 1xf0
 213 739 l 1
 386 739 l 2
 476 739 529 726 565 696 c 0
 593 672 608 635 608 590 c 0xe8
 608 576 606 562 603 547 c 0
 589 474 556 426 493 394 c 1
 558 365 588 323 588 259 c 0
 588 244 586 229 583 212 c 0
 569 136 526 71 468 39 c 0
 416 11 358 0 259 0 c 2
 76 0 l 1xf0
162 67 m 1
 263 67 l 2
 338 67 389 75 428 94 c 0
 466 112 499 157 508 208 c 0
 510 220 511 230 511 241 c 0xf0
 511 290 488 326 447 340 c 0
 416 350 380 354 304 354 c 2
 216 354 l 1
 162 67 l 1
228 421 m 1
 318 421 l 2
 385 421 418 426 452 440 c 0
 492 457 519 495 528 546 c 0
 530 556 531 566 531 576 c 0xe8
 531 607 521 633 504 646 c 0
 480 665 440 672 364 672 c 2
 275 672 l 1
 228 421 l 1
EndSplineSet
EndChar

StartChar: uni0413
Encoding: 179 1043 115
Width: 444
Flags: MW
HStem: 0 21G<76 150 76 76> 672 67<275 562 275 275>
LayerCount: 2
Fore
SplineSet
562 672 m 1
 275 672 l 1
 150 0 l 1
 76 0 l 1
 213 739 l 1
 574 739 l 1
 562 672 l 1
EndSplineSet
EndChar

StartChar: uni0414
Encoding: 180 1044 116
Width: 848
Flags: MW
HStem: 0 67<98 106 185 687 98 98> 719 20G<519 603 603 603>
VStem: 753 52<-136 -136>
LayerCount: 2
Fore
SplineSet
185 67 m 1
 687 67 l 1
 545 655 l 1
 185 67 l 1
842 67 m 1
 805 -136 l 1
 753 -136 l 1
 750 0 l 1
 98 0 l 1
 45 -136 l 1
 -7 -136 l 1
 30 67 l 1
 106 67 l 1
 519 739 l 1
 603 739 l 1
 766 67 l 1
 842 67 l 1
EndSplineSet
Substitution2: "'locl' Localized Forms in Cyrillic lookup 7 subtable" uni0414.loclBGR
Substitution2: "'aalt' Access All Alternates lookup 0 subtable" uni0414.loclBGR
EndChar

StartChar: uni0415
Encoding: 181 1045 117
Width: 536
Flags: MW
HStem: 0 67<162 480> 340 67<225 532 213 544> 672 67<275 605 275 275>
LayerCount: 2
Fore
SplineSet
76 0 m 1
 213 739 l 1
 617 739 l 1
 605 672 l 1
 275 672 l 1
 225 407 l 1
 544 407 l 1
 532 340 l 1
 213 340 l 1
 162 67 l 1
 492 67 l 1
 480 0 l 1
 76 0 l 1
EndSplineSet
EndChar

StartChar: uni0416
Encoding: 182 1046 118
Width: 830
Flags: MW
HStem: 0 21G<6 99 6 6 378 452 378 378 731 731 731 824> 719 20G<143 235 235 235 515 589 589 589 869 961 961 961>
LayerCount: 2
Fore
SplineSet
452 0 m 1
 378 0 l 1
 443 350 l 1
 99 0 l 1
 6 0 l 1
 374 373 l 1
 143 739 l 1
 235 739 l 1
 451 394 l 1
 515 739 l 1
 589 739 l 1
 525 394 l 1
 869 739 l 1
 961 739 l 1
 594 373 l 1
 824 0 l 1
 731 0 l 1
 517 350 l 1
 452 0 l 1
EndSplineSet
Substitution2: "'locl' Localized Forms in Cyrillic lookup 7 subtable" uni0416.loclBGR
Substitution2: "'aalt' Access All Alternates lookup 0 subtable" uni0416.loclBGR
EndChar

StartChar: uni0417
Encoding: 183 1047 119
Width: 518
Flags: MW
HStem: -13 70<224 305 224 313> 367 67<288 322.5> 556 21G<151 228 151 151> 683 69<341.5 406.5>
VStem: 54 80<148 180.5> 151 77<556 556> 448 78<241.5 290> 478 79<586.5 608>
LayerCount: 2
Fore
SplineSet
288 434 m 1xfe
 392 434 461 477 476 556 c 0
 477 564 478 571 478 579 c 0
 478 637 437 683 376 683 c 0
 307 683 241 625 228 556 c 1
 151 556 l 1
 171 662 277 752 388 752 c 0
 487 752 557 682 557 592 c 0xfd
 557 581 555 570 553 558 c 0
 536 466 457 418 403 406 c 1
 459 394 526 337 526 247 c 0
 526 236 525 223 523 211 c 0
 500 88 377 -13 249 -13 c 0
 135 -13 54 69 54 174 c 0
 54 187 55 200 57 213 c 1
 136 213 l 1
 134 203 134 193 134 184 c 0
 134 112 186 57 262 57 c 0
 348 57 428 127 444 213 c 0
 446 225 448 236 448 246 c 0
 448 334 369 367 276 367 c 1
 288 434 l 1xfe
EndSplineSet
EndChar

StartChar: uni0418
Encoding: 184 1048 120
Width: 740
Flags: MW
HStem: 0 21G<76 150 76 76 590 664 590 590> 719 20G<213 287 287 287 727 801 801 801>
LayerCount: 2
Fore
SplineSet
727 739 m 1
 801 739 l 1
 664 0 l 1
 590 0 l 1
 707 629 l 1
 150 0 l 1
 76 0 l 1
 213 739 l 1
 287 739 l 1
 170 110 l 1
 727 739 l 1
EndSplineSet
EndChar

StartChar: uni0419
Encoding: 185 1049 121
Width: 740
Flags: MW
HStem: 0 21G<76 150 76 76 590 664 590 590> 719 20G<213 287 287 287 727 801 801 801> 796 46<501 555 501 562>
VStem: 376 72<883.5 910 883.5 931> 635 75<931 931>
LayerCount: 2
Fore
SplineSet
376 931 m 1
 451 931 l 1
 449 922 448 914 448 906 c 0
 448 861 476 842 526 842 c 0
 584 842 623 868 635 931 c 1
 710 931 l 1
 676 836 606 796 518 796 c 0
 430 796 376 836 376 931 c 1
727 739 m 1
 801 739 l 1
 664 0 l 1
 590 0 l 1
 707 629 l 1
 150 0 l 1
 76 0 l 1
 213 739 l 1
 287 739 l 1
 170 110 l 1
 727 739 l 1
EndSplineSet
EndChar

StartChar: uni041A
Encoding: 186 1050 122
Width: 591
Flags: MW
HStem: 0 21G<76 150 76 76 485 585 485 485> 719 20G<213 287 287 287 624 722 722 722>
LayerCount: 2
Fore
SplineSet
485 0 m 1
 214 344 l 1
 150 0 l 1
 76 0 l 1
 213 739 l 1
 287 739 l 1
 224 400 l 1
 624 739 l 1
 722 739 l 1
 289 373 l 1
 585 0 l 1
 485 0 l 1
EndSplineSet
Substitution2: "'locl' Localized Forms in Cyrillic lookup 7 subtable" uni041A.loclBGR
Substitution2: "'aalt' Access All Alternates lookup 0 subtable" uni041A.loclBGR
EndChar

StartChar: uni041B
Encoding: 187 1051 123
Width: 740
Flags: MW
HStem: 0 21G<11 91 11 11 649 729 649 649> 719 20G<466 548 548 548>
LayerCount: 2
Fore
SplineSet
649 0 m 1
 491 655 l 1
 91 0 l 1
 11 0 l 1
 466 739 l 1
 548 739 l 1
 729 0 l 1
 649 0 l 1
EndSplineSet
Substitution2: "'locl' Localized Forms in Cyrillic lookup 7 subtable" uni041B.loclBGR
Substitution2: "'aalt' Access All Alternates lookup 0 subtable" uni041B.loclBGR
EndChar

StartChar: uni041C
Encoding: 188 1052 124
Width: 919
Flags: MW
HStem: 0 21G<76 76 76 150 427 427 427 491 769 769 769 843> 719 20G<213 328 328 328 865 980 980 980>
LayerCount: 2
Fore
SplineSet
76 0 m 1
 213 739 l 1
 328 739 l 1
 480 110 l 1
 865 739 l 1
 980 739 l 1
 843 0 l 1
 769 0 l 1
 891 658 l 1
 491 0 l 1
 427 0 l 1
 272 658 l 1
 150 0 l 1
 76 0 l 1
EndSplineSet
EndChar

StartChar: uni041D
Encoding: 189 1053 125
Width: 683
Flags: MW
HStem: 0 21G<76 76 76 150 533 533 533 607> 347 67<227 597 214 610> 719 20G<213 287 287 287 670 744 744 744>
LayerCount: 2
Fore
SplineSet
76 0 m 1
 213 739 l 1
 287 739 l 1
 227 414 l 1
 610 414 l 1
 670 739 l 1
 744 739 l 1
 607 0 l 1
 533 0 l 1
 597 347 l 1
 214 347 l 1
 150 0 l 1
 76 0 l 1
EndSplineSet
EndChar

StartChar: uni041E
Encoding: 190 1054 126
Width: 869
Flags: MW
HStem: -13 68<368 531 368 540> 684 68<473.5 636.5>
VStem: 106 76<240 313> 824 76<426 499.5>
LayerCount: 2
Fore
SplineSet
579 752 m 0
 765 752 900 615 900 437 c 0
 900 415 897 392 893 369 c 0
 854 159 647 -13 433 -13 c 0
 242 -13 106 124 106 302 c 0
 106 324 108 346 112 369 c 0
 151 582 359 752 579 752 c 0
558 684 m 0
 389 684 219 539 187 369 c 0
 183 350 182 331 182 313 c 0
 182 167 291 55 445 55 c 0
 617 55 786 197 818 368 c 0
 822 388 824 407 824 426 c 0
 824 573 715 684 558 684 c 0
EndSplineSet
EndChar

StartChar: uni041F
Encoding: 191 1055 127
Width: 669
Flags: MW
HStem: 0 21G<76 150 76 76 519 519 519 593> 672 67<275 644 275 275>
LayerCount: 2
Fore
SplineSet
150 0 m 1
 76 0 l 1
 213 739 l 1
 730 739 l 1
 593 0 l 1
 519 0 l 1
 644 672 l 1
 275 672 l 1
 150 0 l 1
EndSplineSet
EndChar

StartChar: uni0420
Encoding: 192 1056 128
Width: 592
Flags: MW
HStem: 0 21G<76 76 76 150> 299 67<218 347 205 355> 672 67<275 380 275 275>
VStem: 590 76<561.5 581.5>
LayerCount: 2
Fore
SplineSet
76 0 m 1
 213 739 l 1
 417 739 l 2
 512 739 566 728 607 700 c 0
 646 674 666 629 666 570 c 0
 666 553 664 534 660 515 c 0
 646 441 609 380 555 345 c 0
 504 312 447 299 347 299 c 2
 205 299 l 1
 150 0 l 1
 76 0 l 1
218 366 m 1
 355 366 l 2
 423 366 467 373 501 391 c 0
 544 412 575 458 586 516 c 0
 589 530 590 543 590 556 c 0
 590 607 569 642 529 656 c 0
 498 667 453 672 380 672 c 2
 275 672 l 1
 218 366 l 1
EndSplineSet
EndChar

StartChar: uni0421
Encoding: 193 1057 129
Width: 813
Flags: MW
HStem: -13 68<365 475.5 365 505> 547 21G<785 868 785 785> 684 68<468.5 588.5>
VStem: 105 77<239 306>
LayerCount: 2
Fore
SplineSet
724 194 m 1
 806 194 l 1
 707 57 580 -13 430 -13 c 0
 235 -13 105 115 105 294 c 0
 105 318 107 342 112 367 c 0
 153 588 346 752 566 752 c 0
 719 752 835 674 868 547 c 1
 785 547 l 1
 765 593 748 615 717 637 c 0
 674 668 620 684 557 684 c 0
 380 684 221 548 188 370 c 0
 184 350 182 331 182 312 c 0
 182 166 289 55 441 55 c 0
 510 55 581 78 640 119 c 0
 667 138 688 156 724 194 c 1
EndSplineSet
EndChar

StartChar: uni0422
Encoding: 194 1058 130
Width: 426
Flags: MW
HStem: 0 21G<176 176 176 250> 672 67<144 301 132 556 375 375 375 544>
LayerCount: 2
Fore
SplineSet
176 0 m 1
 301 672 l 1
 132 672 l 1
 144 739 l 1
 556 739 l 1
 544 672 l 1
 375 672 l 1
 250 0 l 1
 176 0 l 1
EndSplineSet
EndChar

StartChar: uni0423
Encoding: 195 1059 131
Width: 564
Flags: MW
HStem: 0 21G<159 237 159 159> 719 20G<147 225 225 225 613 691 691 691>
LayerCount: 2
Fore
SplineSet
691 739 m 1
 237 0 l 1
 159 0 l 1
 279 196 l 1
 147 739 l 1
 225 739 l 1
 335 287 l 1
 613 739 l 1
 691 739 l 1
EndSplineSet
EndChar

StartChar: uni0424
Encoding: 196 1060 132
Width: 812
Flags: MW
HStem: 0 21G<369 443 369 369> 54 68<379 392 392 453> 631 68<486 499 499 560> 719 20G<506 580 580 580>
VStem: 100 76<274 325.5> 775 76<422 474>
LayerCount: 2
Fore
SplineSet
573 699 m 1
 749 685 851 570 851 431 c 0
 851 413 849 394 846 376 c 0
 814 204 660 69 453 54 c 1
 443 0 l 1
 369 0 l 1
 379 54 l 1
 202 67 100 173 100 316 c 0
 100 335 102 355 106 376 c 0
 136 539 295 683 499 699 c 1
 506 739 l 1
 580 739 l 1
 573 699 l 1
466 122 m 1
 630 137 746 243 771 376 c 0
 774 391 775 406 775 420 c 0
 775 528 698 618 560 631 c 1
 466 122 l 1
486 631 m 1
 324 616 205 503 181 376 c 0
 178 360 176 344 176 329 c 0
 176 219 253 135 392 122 c 1
 486 631 l 1
EndSplineSet
EndChar

StartChar: uni0425
Encoding: 197 1061 133
Width: 609
Flags: MW
HStem: 0 21G<8 8 8 95 514 514 514 601> 719 20G<159 246 246 246 637 723 723 723>
LayerCount: 2
Fore
SplineSet
8 0 m 1
 329 378 l 1
 159 739 l 1
 246 739 l 1
 387 443 l 1
 637 739 l 1
 723 739 l 1
 419 378 l 1
 601 0 l 1
 514 0 l 1
 364 316 l 1
 95 0 l 1
 8 0 l 1
EndSplineSet
EndChar

StartChar: uni0426
Encoding: 198 1062 134
Width: 706
Flags: MW
HStem: 0 67<162 521 595 600> 719 20G<213 287 287 287 646 720 720 720>
VStem: 603 52<-136 -136>
LayerCount: 2
Fore
SplineSet
646 739 m 1
 720 739 l 1
 595 67 l 1
 692 67 l 1
 655 -136 l 1
 603 -136 l 1
 600 0 l 1
 76 0 l 1
 213 739 l 1
 287 739 l 1
 162 67 l 1
 521 67 l 1
 646 739 l 1
EndSplineSet
EndChar

StartChar: uni0427
Encoding: 199 1063 135
Width: 595
Flags: MW
HStem: 0 21G<445 519 445 445> 290 67<342 385.5> 719 20G<180 255 255 255 582 656 656 656>
VStem: 131 77<446.5 458>
LayerCount: 2
Fore
SplineSet
180 739 m 1
 255 739 l 1
 213 510 l 2
 210 494 208 479 208 465 c 0
 208 428 218 399 243 384 c 0
 271 366 308 357 376 357 c 0
 423 357 466 362 513 368 c 1
 582 739 l 1
 656 739 l 1
 519 0 l 1
 445 0 l 1
 501 301 l 1
 454 295 412 290 359 290 c 0
 285 290 212 305 173 338 c 0
 144 363 131 402 131 448 c 0
 131 468 134 488 138 510 c 2
 180 739 l 1
EndSplineSet
EndChar

StartChar: uni0428
Encoding: 200 1064 136
Width: 896
Flags: MW
HStem: 0 67<162 423 497 758> 719 20G<213 287 287 287 548 622 622 622 883 957 957 957>
LayerCount: 2
Fore
SplineSet
820 0 m 1
 76 0 l 1
 213 739 l 1
 287 739 l 1
 162 67 l 1
 423 67 l 1
 548 739 l 1
 622 739 l 1
 497 67 l 1
 758 67 l 1
 883 739 l 1
 957 739 l 1
 820 0 l 1
EndSplineSet
EndChar

StartChar: uni0429
Encoding: 201 1065 137
Width: 943
Flags: MW
HStem: 0 67<162 423 497 758 832 837> 719 20G<213 287 287 287 548 622 622 622 883 957 957 957>
VStem: 840 52<-136 -136>
LayerCount: 2
Fore
SplineSet
883 739 m 1
 957 739 l 1
 832 67 l 1
 929 67 l 1
 892 -136 l 1
 840 -136 l 1
 837 0 l 1
 76 0 l 1
 213 739 l 1
 287 739 l 1
 162 67 l 1
 423 67 l 1
 548 739 l 1
 622 739 l 1
 497 67 l 1
 758 67 l 1
 883 739 l 1
EndSplineSet
EndChar

StartChar: uni042A
Encoding: 202 1066 138
Width: 757
Flags: MW
HStem: 0 67<329 434 434 447> 358 67<383 538 396 520> 672 67<144 368 132 454>
VStem: 700 77<256.5 268.5>
LayerCount: 2
Fore
SplineSet
383 358 m 1
 329 67 l 1
 434 67 l 2
 507 67 554 72 589 82 c 0
 645 98 684 147 697 215 c 0
 699 227 700 238 700 249 c 0
 700 288 686 318 658 334 c 0
 630 351 588 358 520 358 c 2
 383 358 l 1
454 739 m 1
 396 425 l 1
 538 425 l 2
 638 425 690 413 729 381 c 0
 761 355 777 314 777 264 c 0
 777 249 775 233 772 216 c 0
 757 134 713 70 651 38 c 0
 600 11 542 0 447 0 c 2
 243 0 l 1
 368 672 l 1
 132 672 l 1
 144 739 l 1
 454 739 l 1
EndSplineSet
EndChar

StartChar: uni042B
Encoding: 203 1067 139
Width: 811
Flags: MW
HStem: 0 67<162 267 267 280> 358 67<216 371 229 353> 719 20G<213 287 287 287 798 872 872 872>
VStem: 533 77<256.5 268.5>
LayerCount: 2
Fore
SplineSet
661 0 m 1
 798 739 l 1
 872 739 l 1
 735 0 l 1
 661 0 l 1
213 739 m 1
 287 739 l 1
 229 425 l 1
 371 425 l 2
 471 425 523 413 562 381 c 0
 594 355 610 314 610 264 c 0
 610 249 608 233 605 216 c 0
 590 134 546 70 484 38 c 0
 433 11 375 0 280 0 c 2
 76 0 l 1
 213 739 l 1
216 358 m 1
 162 67 l 1
 267 67 l 2
 340 67 387 72 422 82 c 0
 478 98 517 147 530 215 c 0
 532 227 533 238 533 249 c 0
 533 288 519 318 491 334 c 0
 463 351 421 358 353 358 c 2
 216 358 l 1
EndSplineSet
EndChar

StartChar: uni042C
Encoding: 204 1068 140
Width: 590
Flags: MW
HStem: 0 67<162 267 267 280> 358 67<216 371 229 353> 719 20G<213 287 287 287>
VStem: 533 77<256.5 268.5>
LayerCount: 2
Fore
SplineSet
213 739 m 1
 287 739 l 1
 229 425 l 1
 371 425 l 2
 471 425 523 413 562 381 c 0
 594 355 610 314 610 264 c 0
 610 249 608 233 605 216 c 0
 590 134 546 70 484 38 c 0
 433 11 375 0 280 0 c 2
 76 0 l 1
 213 739 l 1
216 358 m 1
 162 67 l 1
 267 67 l 2
 340 67 387 72 422 82 c 0
 478 98 517 147 530 215 c 0
 532 227 533 238 533 249 c 0
 533 288 519 318 491 334 c 0
 463 351 421 358 353 358 c 2
 216 358 l 1
EndSplineSet
EndChar

StartChar: uni042D
Encoding: 205 1069 141
Width: 813
Flags: MW
HStem: -13 68<332.5 473.5 332.5 489.5> 343 67<300 757 288 768> 547 21G<147 230 147 147> 684 68<449 588>
VStem: 769 75<432.5 504.5>
LayerCount: 2
Fore
SplineSet
161 194 m 1
 206 115 273 55 392 55 c 0
 555 55 713 182 757 343 c 1
 288 343 l 1
 300 410 l 1
 768 410 l 1
 768 417 769 424 769 431 c 0
 769 578 666 684 510 684 c 0
 388 684 299 631 230 547 c 1
 147 547 l 1
 228 674 372 752 525 752 c 0
 718 752 844 626 844 445 c 0
 844 420 842 394 837 367 c 0
 797 151 600 -13 379 -13 c 0
 229 -13 128 57 79 194 c 1
 161 194 l 1
EndSplineSet
EndChar

StartChar: uni042E
Encoding: 206 1070 142
Width: 1093
Flags: MW
HStem: -19 67<579.5 750 579.5 758> 0 21G<76 150 76 76> 347 67<227 317 214 331> 691 67<689.5 859> 719 20G<213 287 287 287>
VStem: 314 76<237 307.5> 1048 76<427.5 500.5>
LayerCount: 2
Fore
SplineSet
779 691 m 0xb6
 600 691 428 544 396 372 c 0
 392 352 390 331 390 312 c 0
 390 162 499 48 660 48 c 0
 840 48 1010 193 1042 367 c 0
 1046 387 1048 407 1048 426 c 0
 1048 575 939 691 779 691 c 0xb6
791 758 m 0
 988 758 1124 620 1124 439 c 0
 1124 416 1121 393 1117 369 c 0
 1078 157 869 -19 647 -19 c 0xb6
 448 -19 314 115 314 300 c 0
 314 315 315 331 317 347 c 1
 214 347 l 1
 150 0 l 1
 76 0 l 1
 213 739 l 1
 287 739 l 1x6e
 227 414 l 1
 331 414 l 1
 388 607 585 758 791 758 c 0
EndSplineSet
EndChar

StartChar: uni042F
Encoding: 207 1071 143
Width: 607
Flags: MW
HStem: 0 21G<25 112 25 25 457 531 457 457> 309 67<394 514 374 527> 672 67<467 480 480 582>
VStem: 143 77<465.5 477>
LayerCount: 2
Fore
SplineSet
527 376 m 1
 582 672 l 1
 480 672 l 2
 409 672 364 668 330 657 c 0
 276 641 237 591 224 521 c 0
 222 508 220 496 220 485 c 0
 220 446 233 415 260 400 c 0
 287 383 328 376 394 376 c 2
 527 376 l 1
531 0 m 1
 457 0 l 1
 514 309 l 1
 374 309 l 1
 112 0 l 1
 25 0 l 1
 292 314 l 1
 245 320 215 333 190 354 c 0
 159 380 143 420 143 469 c 0
 143 485 145 502 148 520 c 0
 163 603 207 669 268 701 c 0
 318 728 374 739 467 739 c 2
 668 739 l 1
 531 0 l 1
EndSplineSet
Substitution2: "'locl' Localized Forms in Cyrillic lookup 7 subtable" uni042F.loclBGR
Substitution2: "'aalt' Access All Alternates lookup 0 subtable" uni042F.loclBGR
EndChar

StartChar: uni0430
Encoding: 208 1072 144
Width: 683
Flags: MW
HStem: -13 68<291.5 380.5> 0 21G<546 620 546 546> 492 68<361.5 474.5> 527 20G<647 721 721 721>
VStem: 87 77<181.5 225>
LayerCount: 2
Fore
SplineSet
721 547 m 1x18
 620 0 l 1
 546 0 l 1x58
 564 96 l 1
 492 18 427 -13 334 -13 c 0
 185 -13 87 81 87 216 c 0
 87 234 88 253 92 272 c 0
 122 436 270 560 434 560 c 0xa8
 529 560 588 527 629 450 c 1
 647 547 l 1
 721 547 l 1x18
420 492 m 0xa8
 303 492 190 395 168 275 c 0
 165 261 164 246 164 233 c 0
 164 130 238 55 345 55 c 0
 464 55 574 151 597 275 c 0
 600 290 601 304 601 318 c 0
 601 420 529 492 420 492 c 0xa8
EndSplineSet
EndChar

StartChar: uni0431
Encoding: 209 1073 145
Width: 668
Flags: MW
HStem: -13 68<302.5 406.5 290.5 417.5> 492 68<376.5 481>
VStem: 101 69<178.5 236.5 178.5 242.5> 606 76<320 369.5>
LayerCount: 2
Fore
SplineSet
721 720 m 1
 491 699 l 2
 320 683 215 583 181 418 c 1
 184 417 l 1
 228 491 311 560 442 560 c 0
 585 560 682 463 682 329 c 0
 682 311 680 293 677 274 c 0
 647 110 500 -13 335 -13 c 0
 270 -13 218 5 181 35 c 0
 123 81 101 136 101 216 c 0
 101 269 111 334 126 415 c 0
 167 638 285 749 497 768 c 2
 734 788 l 1
 721 720 l 1
345 55 m 0
 468 55 579 150 602 276 c 0
 605 291 606 305 606 319 c 0
 606 420 535 492 427 492 c 0
 305 492 196 397 174 276 c 0
 171 260 170 244 170 229 c 0
 170 128 236 55 345 55 c 0
EndSplineSet
Substitution2: "'ss02' Style Set 2 lookup 16 subtable" uni0431.serbian
Substitution2: "'salt' Stylistic Alternatives lookup 11 subtable" uni0431.serbian
Substitution2: "'locl' Localized Forms in Cyrillic lookup 7 subtable" uni0431.loclBGR
Substitution2: "'locl' Localized Forms in Cyrillic lookup 5 subtable" uni0431.serbian
AlternateSubs2: "'aalt' Access All Alternates lookup 1 subtable" uni0431.serbian uni0431.loclBGR
EndChar

StartChar: uni0432
Encoding: 210 1074 146
Width: 535
Flags: MW
HStem: 0 67<149 290 290 297> 254 67<184 329 196 325> 480 67<226 359 226 226>
VStem: 456 76<185.5 209> 476 72<426.5 440>
LayerCount: 2
Fore
SplineSet
184 254 m 1xf0
 149 67 l 1
 290 67 l 2
 372 67 441 93 454 163 c 0
 455 169 456 175 456 181 c 0
 456 237 399 254 325 254 c 2
 184 254 l 1xf0
546 403 m 0
 535 344 481 306 451 294 c 1
 507 272 532 236 532 190 c 0xf0
 532 181 531 172 529 163 c 0
 512 70 417 0 297 0 c 2
 63 0 l 1
 164 547 l 1
 383 547 l 2
 486 547 548 505 548 431 c 0xe8
 548 422 548 413 546 403 c 0
475 403 m 0
 476 408 476 412 476 417 c 0xe8
 476 463 428 480 359 480 c 2
 226 480 l 1
 196 321 l 1
 329 321 l 2
 405 321 464 346 475 403 c 0
EndSplineSet
Substitution2: "'locl' Localized Forms in Cyrillic lookup 7 subtable" uni0432.loclBGR
Substitution2: "'aalt' Access All Alternates lookup 0 subtable" uni0432.loclBGR
EndChar

StartChar: uni0433
Encoding: 211 1075 147
Width: 355
Flags: MW
HStem: 0 21G<63 137 63 63> 480 67<226 432 226 226>
LayerCount: 2
Fore
SplineSet
444 547 m 1
 432 480 l 1
 226 480 l 1
 137 0 l 1
 63 0 l 1
 164 547 l 1
 444 547 l 1
EndSplineSet
Substitution2: "'locl' Localized Forms in Cyrillic lookup 7 subtable" uni0433.loclBGR
Substitution2: "'locl' Localized Forms in Cyrillic lookup 6 subtable" uni0433.loclMKD
Substitution2: "'locl' Localized Forms in Cyrillic lookup 3 subtable" uni0433.loclSRB
AlternateSubs2: "'aalt' Access All Alternates lookup 1 subtable" uni0433.loclSRB uni0433.loclMKD uni0433.loclBGR
EndChar

StartChar: uni0434
Encoding: 212 1076 148
Width: 670
Flags: MW
HStem: 0 67<95 100 178 516 95 95> 527 20G<394 478 478 478>
VStem: 579 51<-126 -126>
LayerCount: 2
Fore
SplineSet
575 0 m 1
 95 0 l 1
 45 -126 l 1
 -6 -126 l 1
 29 67 l 1
 100 67 l 1
 394 547 l 1
 478 547 l 1
 594 67 l 1
 665 67 l 1
 630 -126 l 1
 579 -126 l 1
 575 0 l 1
516 67 m 1
 421 463 l 1
 178 67 l 1
 516 67 l 1
EndSplineSet
Substitution2: "'locl' Localized Forms in Cyrillic lookup 7 subtable" uni0434.loclBGR
Substitution2: "'locl' Localized Forms in Cyrillic lookup 6 subtable" uni0434.loclSRB
Substitution2: "'locl' Localized Forms in Cyrillic lookup 3 subtable" uni0434.loclSRB
AlternateSubs2: "'aalt' Access All Alternates lookup 1 subtable" uni0434.loclSRB uni0434.loclBGR
EndChar

StartChar: uni0435
Encoding: 213 1077 149
Width: 650
Flags: MW
HStem: -13 68<287 380.5 287 388.5> 249 67<177 596 177 657 162 596> 492 68<364 469>
VStem: 88 73<176 228 176 230> 596 71<316 349>
LayerCount: 2
Fore
SplineSet
657 249 m 1
 162 249 l 1
 161 241 161 232 161 224 c 0
 161 128 235 55 339 55 c 0
 422 55 508 105 553 180 c 1
 630 180 l 1
 569 65 448 -13 329 -13 c 0
 186 -13 88 86 88 221 c 0
 88 239 90 257 93 276 c 0
 122 435 271 560 429 560 c 0
 537 560 623 503 654 411 c 0
 662 386 667 363 667 335 c 0
 667 311 663 283 657 249 c 1
177 316 m 1
 596 316 l 1
 591 425 522 492 416 492 c 0
 312 492 216 421 177 316 c 1
EndSplineSet
EndChar

StartChar: uni0436
Encoding: 214 1078 150
Width: 702
Flags: MW
HStem: 0 21G<5 98 5 5 314 388 314 314 604 697 604 604> 527 20G<106 199 199 199 415 489 489 489 705 798 798 798>
LayerCount: 2
Fore
SplineSet
415 547 m 1
 489 547 l 1
 443 299 l 1
 705 547 l 1
 798 547 l 1
 515 281 l 1
 697 0 l 1
 604 0 l 1
 437 262 l 1
 388 0 l 1
 314 0 l 1
 363 262 l 1
 98 0 l 1
 5 0 l 1
 291 281 l 1
 106 547 l 1
 199 547 l 1
 369 299 l 1
 415 547 l 1
EndSplineSet
Substitution2: "'locl' Localized Forms in Cyrillic lookup 7 subtable" uni0436.loclBGR
Substitution2: "'aalt' Access All Alternates lookup 0 subtable" uni0436.loclBGR
EndChar

StartChar: uni0437
Encoding: 215 1079 151
Width: 480
Flags: MW
HStem: -13 68<215 285.5 215 295> 258 61<255 299.5> 491 69<300.5 355>
VStem: 64 76<121 138.5> 139 75<409 409> 400 76<179 196.5> 417 76<430 440.5>
LayerCount: 2
Fore
SplineSet
244 258 m 1xf4
 255 319 l 1
 354 319 406 355 416 409 c 0
 417 413 417 417 417 421 c 0
 417 460 381 491 329 491 c 0
 272 491 226 454 214 409 c 1
 139 409 l 1
 159 494 245 560 343 560 c 0
 431 560 493 507 493 434 c 0xea
 493 426 493 417 491 409 c 0
 481 357 437 308 381 292 c 1
 433 277 476 242 476 183 c 0
 476 175 475 167 473 158 c 0
 455 63 352 -13 238 -13 c 0
 133 -13 64 51 64 135 c 0
 64 142 64 150 65 158 c 1
 140 158 l 1
 140 147 l 2
 140 95 181 55 249 55 c 0
 322 55 387 101 398 158 c 0
 399 163 400 168 400 173 c 0
 400 220 355 258 244 258 c 1xf4
EndSplineSet
Substitution2: "'locl' Localized Forms in Cyrillic lookup 7 subtable" uni0437.loclBGR
Substitution2: "'aalt' Access All Alternates lookup 0 subtable" uni0437.loclBGR
EndChar

StartChar: uni0438
Encoding: 216 1080 152
Width: 607
Flags: MW
HStem: 0 21G<63 137 63 63 470 544 470 470> 527 20G<164 238 238 238 571 645 645 645>
LayerCount: 2
Fore
SplineSet
571 547 m 1
 645 547 l 1
 544 0 l 1
 470 0 l 1
 552 442 l 1
 137 0 l 1
 63 0 l 1
 164 547 l 1
 238 547 l 1
 156 105 l 1
 571 547 l 1
EndSplineSet
Substitution2: "'locl' Localized Forms in Cyrillic lookup 6 subtable" uni0438.loclBGR
Substitution2: "'locl' Localized Forms in Cyrillic lookup 3 subtable" uni0438.loclBGR
Substitution2: "'locl' Localized Forms in Cyrillic lookup 7 subtable" uni0438.loclBGR
Substitution2: "'aalt' Access All Alternates lookup 0 subtable" uni0438.loclBGR
EndChar

StartChar: uni0439
Encoding: 217 1081 153
Width: 607
Flags: MW
HStem: 0 21G<63 137 63 63 470 544 470 470> 527 20G<164 238 238 238 571 645 645 645> 616 46<405.5 450.5 405.5 457> 726 20G<289 363 363 363 519 593 593 593>
VStem: 289 72<701 725 700.5 746> 519 74<746 746>
LayerCount: 2
Fore
SplineSet
289 746 m 1
 363 746 l 1
 361 737 361 729 361 721 c 0
 361 680 385 662 426 662 c 0
 475 662 508 688 519 746 c 1
 593 746 l 1
 561 656 497 616 417 616 c 0
 337 616 289 656 289 746 c 1
571 547 m 1
 645 547 l 1
 544 0 l 1
 470 0 l 1
 552 442 l 1
 137 0 l 1
 63 0 l 1
 164 547 l 1
 238 547 l 1
 156 105 l 1
 571 547 l 1
EndSplineSet
Substitution2: "'locl' Localized Forms in Cyrillic lookup 7 subtable" uni0439.loclBGR
Substitution2: "'aalt' Access All Alternates lookup 0 subtable" uni0439.loclBGR
EndChar

StartChar: uni043A
Encoding: 218 1082 154
Width: 488
Flags: MW
HStem: 0 21G<63 137 63 63 386 483 386 386> 527 20G<164 238 238 238 488 584 584 584>
LayerCount: 2
Fore
SplineSet
164 547 m 1
 238 547 l 1
 193 303 l 1
 488 547 l 1
 584 547 l 1
 262 282 l 1
 483 0 l 1
 386 0 l 1
 185 258 l 1
 137 0 l 1
 63 0 l 1
 164 547 l 1
EndSplineSet
Substitution2: "'locl' Localized Forms in Cyrillic lookup 7 subtable" uni043A.loclBGR
Substitution2: "'aalt' Access All Alternates lookup 0 subtable" uni043A.loclBGR
EndChar

StartChar: uni043B
Encoding: 219 1083 155
Width: 563
Flags: MW
HStem: 0 21G<5 83 5 5 480 558 480 480> 527 20G<341 424 424 424>
LayerCount: 2
Fore
SplineSet
558 0 m 1
 480 0 l 1
 368 463 l 1
 83 0 l 1
 5 0 l 1
 341 547 l 1
 424 547 l 1
 558 0 l 1
EndSplineSet
Substitution2: "'locl' Localized Forms in Cyrillic lookup 7 subtable" uni043B.loclBGR
Substitution2: "'aalt' Access All Alternates lookup 0 subtable" uni043B.loclBGR
EndChar

StartChar: uni043C
Encoding: 220 1084 156
Width: 738
Flags: MW
HStem: 0 21G<63 63 63 137 337 337 337 401 601 601 601 675> 527 20G<164 279 279 279 661 776 776 776>
LayerCount: 2
Fore
SplineSet
63 0 m 1
 164 547 l 1
 279 547 l 1
 388 103 l 1
 661 547 l 1
 776 547 l 1
 675 0 l 1
 601 0 l 1
 687 466 l 1
 401 0 l 1
 337 0 l 1
 223 466 l 1
 137 0 l 1
 63 0 l 1
EndSplineSet
EndChar

StartChar: uni043D
Encoding: 221 1085 157
Width: 602
Flags: MW
HStem: 0 21G<63 137 63 63 465 539 465 465> 245 67<195 510 182 523> 527 20G<164 238 238 238 566 640 640 640>
LayerCount: 2
Fore
SplineSet
539 0 m 1
 465 0 l 1
 510 245 l 1
 182 245 l 1
 137 0 l 1
 63 0 l 1
 164 547 l 1
 238 547 l 1
 195 312 l 1
 523 312 l 1
 566 547 l 1
 640 547 l 1
 539 0 l 1
EndSplineSet
EndChar

StartChar: uni043E
Encoding: 222 1086 158
Width: 655
Flags: MW
HStem: -13 68<287.5 402 287.5 412.5> 492 68<357 471>
VStem: 87 76<177 226> 593 76<321.5 370.5>
LayerCount: 2
Fore
SplineSet
436 560 m 0
 577 560 669 465 669 331 c 0
 669 312 667 292 663 272 c 0
 633 108 493 -13 332 -13 c 0
 185 -13 87 82 87 217 c 0
 87 235 89 254 93 273 c 0
 124 439 268 560 436 560 c 0
417 492 m 0
 297 492 190 398 167 272 c 0
 164 257 163 242 163 228 c 0
 163 126 233 55 342 55 c 0
 462 55 565 145 588 271 c 0
 591 288 593 304 593 319 c 0
 593 422 525 492 417 492 c 0
EndSplineSet
EndChar

StartChar: uni043F
Encoding: 223 1087 159
Width: 597
Flags: MW
HStem: 0 21G<63 137 63 63 460 534 460 460> 480 67<226 549 226 226>
LayerCount: 2
Fore
SplineSet
534 0 m 1
 460 0 l 1
 549 480 l 1
 226 480 l 1
 137 0 l 1
 63 0 l 1
 164 547 l 1
 635 547 l 1
 534 0 l 1
EndSplineSet
Substitution2: "'locl' Localized Forms in Cyrillic lookup 7 subtable" uni043F.loclBGR
Substitution2: "'locl' Localized Forms in Cyrillic lookup 6 subtable" uni043F.loclSRB
Substitution2: "'locl' Localized Forms in Cyrillic lookup 3 subtable" uni043F.loclSRB
AlternateSubs2: "'aalt' Access All Alternates lookup 1 subtable" uni043F.loclSRB uni043F.loclBGR
EndChar

StartChar: uni0440
Encoding: 224 1088 160
Width: 682
Flags: MW
HStem: -192 21G<27 101 27 27> -13 68<305 420.5 305 430> 492 68<409 492.5> 527 20G<164 238 238 238>
VStem: 620 76<320 369>
LayerCount: 2
Fore
SplineSet
164 547 m 1xd8
 238 547 l 1xd8
 221 453 l 1
 280 523 362 560 456 560 c 0xe8
 600 560 696 464 696 329 c 0
 696 311 695 292 691 273 c 0
 661 112 512 -13 348 -13 c 0
 257 -13 189 24 154 94 c 1
 101 -192 l 1
 27 -192 l 1
 164 547 l 1xd8
437 492 m 0xe8
 317 492 206 396 183 273 c 0
 180 258 179 245 179 231 c 0
 179 129 251 55 359 55 c 0
 482 55 592 148 615 271 c 0
 618 287 620 302 620 317 c 0
 620 421 548 492 437 492 c 0xe8
EndSplineSet
EndChar

StartChar: uni0441
Encoding: 225 1089 161
Width: 647
Flags: MW
HStem: -13 68<292.5 371> 492 68<364 465.5>
VStem: 88 76<181 229.5>
LayerCount: 2
Fore
SplineSet
554 161 m 1
 638 161 l 1
 596 103 569 74 527 46 c 0
 470 7 404 -13 338 -13 c 0
 189 -13 88 85 88 221 c 0
 88 238 90 256 93 275 c 0
 122 434 275 560 439 560 c 0
 563 560 654 491 678 381 c 1
 595 381 l 1
 566 453 506 492 425 492 c 0
 303 492 191 396 168 273 c 0
 165 259 164 245 164 232 c 0
 164 130 238 55 347 55 c 0
 425 55 483 85 554 161 c 1
EndSplineSet
EndChar

StartChar: uni0442
Encoding: 226 1090 162
Width: 384
Flags: MW
HStem: 0 21G<156 230 156 156> 480 67<113 245 101 473 319 461 319 319>
LayerCount: 2
Fore
SplineSet
461 480 m 1
 319 480 l 1
 230 0 l 1
 156 0 l 1
 245 480 l 1
 101 480 l 1
 113 547 l 1
 473 547 l 1
 461 480 l 1
EndSplineSet
Substitution2: "'locl' Localized Forms in Cyrillic lookup 7 subtable" uni0442.loclBGR
Substitution2: "'locl' Localized Forms in Cyrillic lookup 6 subtable" uni0442.loclSRB
Substitution2: "'locl' Localized Forms in Cyrillic lookup 3 subtable" uni0442.loclSRB
AlternateSubs2: "'aalt' Access All Alternates lookup 1 subtable" uni0442.loclSRB uni0442.loclBGR
EndChar

StartChar: uni0443
Encoding: 227 1091 163
Width: 536
Flags: MW
HStem: -192 21G<96 96 96 175> 527 20G<110 191 191 191 549 628 628 628>
LayerCount: 2
Fore
SplineSet
96 -192 m 1
 224 18 l 1
 110 547 l 1
 191 547 l 1
 284 111 l 1
 549 547 l 1
 628 547 l 1
 175 -192 l 1
 96 -192 l 1
EndSplineSet
EndChar

StartChar: uni0444
Encoding: 228 1092 164
Width: 784
Flags: MW
HStem: -192 21G<319 393 319 319> -12 68<353 365 365 427> 491 68<446 459 459 520> 719 20G<492 566 566 566>
VStem: 83 77<166 211.5> 725 77<334.5 380>
LayerCount: 2
Fore
SplineSet
492 739 m 1
 566 739 l 1
 533 559 l 1
 721 550 802 476 802 346 c 0
 802 323 800 299 795 273 c 0
 763 99 652 -2 427 -12 c 1
 393 -192 l 1
 319 -192 l 1
 353 -12 l 1
 165 -3 83 71 83 200 c 0
 83 223 86 247 91 273 c 0
 123 447 234 549 459 559 c 1
 492 739 l 1
446 491 m 1
 271 482 191 408 166 273 c 0
 162 252 160 233 160 215 c 0
 160 117 220 64 365 56 c 1
 446 491 l 1
439 56 m 1
 614 65 695 138 720 273 c 0
 724 294 725 313 725 331 c 0
 725 429 665 483 520 491 c 1
 439 56 l 1
EndSplineSet
EndChar

StartChar: uni0445
Encoding: 229 1093 165
Width: 480
Flags: MW
HStem: 0 21G<8 8 8 92 387 387 387 472> 527 20G<109 193 193 193 488 573 573 573>
LayerCount: 2
Fore
SplineSet
8 0 m 1
 250 279 l 1
 109 547 l 1
 193 547 l 1
 302 336 l 1
 488 547 l 1
 573 547 l 1
 333 279 l 1
 472 0 l 1
 387 0 l 1
 281 219 l 1
 92 0 l 1
 8 0 l 1
EndSplineSet
EndChar

StartChar: uni0446
Encoding: 230 1094 166
Width: 622
Flags: MW
HStem: 0 67<149 462 149 535> 527 20G<164 238 238 238 551 625 625 625>
VStem: 539 51<-126 -126>
LayerCount: 2
Fore
SplineSet
625 547 m 1
 536 67 l 1
 625 67 l 1
 590 -126 l 1
 539 -126 l 1
 535 0 l 1
 63 0 l 1
 164 547 l 1
 238 547 l 1
 149 67 l 1
 462 67 l 1
 551 547 l 1
 625 547 l 1
EndSplineSet
Substitution2: "'locl' Localized Forms in Cyrillic lookup 7 subtable" uni0446.loclBGR
Substitution2: "'aalt' Access All Alternates lookup 0 subtable" uni0446.loclBGR
EndChar

StartChar: uni0447
Encoding: 231 1095 167
Width: 523
Flags: MW
HStem: 0 21G<386 460 386 386> 208 67<273 285.5> 527 20G<146 220 220 220 487 561 561 561>
VStem: 111 75<318 343>
LayerCount: 2
Fore
SplineSet
561 547 m 1
 460 0 l 1
 386 0 l 1
 426 218 l 1
 375 212 318 208 253 208 c 0
 219 208 174 220 152 239 c 0
 124 261 111 294 111 336 c 0
 111 350 113 365 116 381 c 2
 146 547 l 1
 220 547 l 1
 190 381 l 2
 187 367 186 356 186 345 c 0
 186 291 222 275 324 275 c 0
 365 275 394 278 439 284 c 1
 487 547 l 1
 561 547 l 1
EndSplineSet
EndChar

StartChar: uni0448
Encoding: 232 1096 168
Width: 802
Flags: MW
HStem: 0 67<149 376 450 677> 527 20G<164 238 238 238 465 539 539 539 766 840 840 840>
LayerCount: 2
Fore
SplineSet
739 0 m 1
 63 0 l 1
 164 547 l 1
 238 547 l 1
 149 67 l 1
 376 67 l 1
 465 547 l 1
 539 547 l 1
 450 67 l 1
 677 67 l 1
 766 547 l 1
 840 547 l 1
 739 0 l 1
EndSplineSet
Substitution2: "'locl' Localized Forms in Cyrillic lookup 7 subtable" uni0448.loclBGR
Substitution2: "'aalt' Access All Alternates lookup 0 subtable" uni0448.loclBGR
EndChar

StartChar: uni0449
Encoding: 233 1097 169
Width: 837
Flags: MW
HStem: 0 67<149 376 450 677> 527 20G<164 238 238 238 465 539 539 539 766 840 840 840>
VStem: 754 51<-126 -126>
LayerCount: 2
Fore
SplineSet
840 547 m 1
 751 67 l 1
 840 67 l 1
 805 -126 l 1
 754 -126 l 1
 750 0 l 1
 63 0 l 1
 164 547 l 1
 238 547 l 1
 149 67 l 1
 376 67 l 1
 465 547 l 1
 539 547 l 1
 450 67 l 1
 677 67 l 1
 766 547 l 1
 840 547 l 1
EndSplineSet
Substitution2: "'locl' Localized Forms in Cyrillic lookup 7 subtable" uni0449.loclBGR
Substitution2: "'aalt' Access All Alternates lookup 0 subtable" uni0449.loclBGR
EndChar

StartChar: uni044A
Encoding: 234 1098 170
Width: 631
Flags: MW
HStem: 0 67<271 413 413 420> 261 67<307 481 320 449> 480 67<113 274 101 360>
VStem: 566 75<190 210.5>
LayerCount: 2
Fore
SplineSet
481 328 m 2
 583 328 641 273 641 195 c 0
 641 185 640 175 638 164 c 0
 621 70 535 0 420 0 c 2
 185 0 l 1
 274 480 l 1
 101 480 l 1
 113 547 l 1
 360 547 l 1
 320 328 l 1
 481 328 l 2
307 261 m 1
 271 67 l 1
 413 67 l 2
 503 67 551 101 563 164 c 0
 564 172 566 179 566 186 c 0
 566 235 528 261 449 261 c 2
 307 261 l 1
EndSplineSet
Substitution2: "'locl' Localized Forms in Cyrillic lookup 7 subtable" uni044A.loclBGR
Substitution2: "'aalt' Access All Alternates lookup 0 subtable" uni044A.loclBGR
EndChar

StartChar: uni044B
Encoding: 235 1099 171
Width: 679
Flags: MW
HStem: 0 67<149 281 281 288> 261 67<185 349 198 317> 527 20G<164 238 238 238 643 717 717 717>
VStem: 434 75<190 210.5>
LayerCount: 2
Fore
SplineSet
185 261 m 1
 149 67 l 1
 281 67 l 2
 371 67 419 101 431 164 c 0
 432 172 434 179 434 186 c 0
 434 235 396 261 317 261 c 2
 185 261 l 1
349 328 m 2
 451 328 509 273 509 195 c 0
 509 185 508 175 506 164 c 0
 489 70 403 0 288 0 c 2
 63 0 l 1
 164 547 l 1
 238 547 l 1
 198 328 l 1
 349 328 l 2
717 547 m 1
 616 0 l 1
 542 0 l 1
 643 547 l 1
 717 547 l 1
EndSplineSet
Substitution2: "'locl' Localized Forms in Cyrillic lookup 7 subtable" uni044B.loclBGR
Substitution2: "'aalt' Access All Alternates lookup 0 subtable" uni044B.loclBGR
EndChar

StartChar: uni044C
Encoding: 236 1100 172
Width: 509
Flags: MW
HStem: 0 67<149 291 291 298> 261 67<185 359 198 327> 527 20G<164 238 238 238>
VStem: 444 75<190 210.5>
LayerCount: 2
Fore
SplineSet
185 261 m 1
 149 67 l 1
 291 67 l 2
 381 67 429 101 441 164 c 0
 442 172 444 179 444 186 c 0
 444 235 406 261 327 261 c 2
 185 261 l 1
359 328 m 2
 461 328 519 273 519 195 c 0
 519 185 518 175 516 164 c 0
 499 70 413 0 298 0 c 2
 63 0 l 1
 164 547 l 1
 238 547 l 1
 198 328 l 1
 359 328 l 2
EndSplineSet
Substitution2: "'locl' Localized Forms in Cyrillic lookup 7 subtable" uni044C.loclBGR
Substitution2: "'aalt' Access All Alternates lookup 0 subtable" uni044C.loclBGR
EndChar

StartChar: uni044D
Encoding: 237 1101 173
Width: 644
Flags: MW
HStem: -13 68<278 373.5 278 386> 243 67<256 570 244 581> 492 68<360.5 454.5>
VStem: 582 76<318.5 366>
LayerCount: 2
Fore
SplineSet
153 155 m 1
 182 95 239 55 317 55 c 0
 430 55 536 136 570 243 c 1
 244 243 l 1
 256 310 l 1
 581 310 l 2
 581 312 582 313 582 315 c 0
 582 417 508 492 401 492 c 0
 320 492 251 455 196 387 c 1
 111 387 l 1
 178 494 289 560 413 560 c 0
 559 560 658 460 658 327 c 0
 658 310 656 293 653 275 c 0
 623 112 470 -13 302 -13 c 0
 176 -13 101 56 68 155 c 1
 153 155 l 1
EndSplineSet
EndChar

StartChar: uni044E
Encoding: 238 1102 174
Width: 857
Flags: MW
HStem: -17 68<480 598.5 480 609> 0 21G<63 137 63 63> 245 67<195 277 182 290> 496 68<553.5 670> 527 20G<164 238 238 238>
VStem: 276 76<174.5 222.5> 794 77<322.5 370>
LayerCount: 2
Fore
SplineSet
616 496 m 0xb6
 491 496 381 402 357 275 c 0
 354 258 352 242 352 227 c 0
 352 122 423 51 537 51 c 0
 660 51 765 143 789 271 c 0
 792 287 794 303 794 318 c 0
 794 422 724 496 616 496 c 0xb6
629 564 m 0
 776 564 871 469 871 332 c 0
 871 313 869 293 865 272 c 0
 834 106 691 -17 527 -17 c 0xb6
 373 -17 276 80 276 218 c 0
 276 227 276 236 277 245 c 1
 182 245 l 1
 137 0 l 1
 63 0 l 1
 164 547 l 1
 238 547 l 1x6e
 195 312 l 1
 290 312 l 1
 334 457 475 564 629 564 c 0
EndSplineSet
Substitution2: "'locl' Localized Forms in Cyrillic lookup 7 subtable" uni044E.loclBGR
Substitution2: "'aalt' Access All Alternates lookup 0 subtable" uni044E.loclBGR
EndChar

StartChar: uni044F
Encoding: 239 1103 175
Width: 505
Flags: MW
HStem: 0 21G<9 93 9 9 368 368 368 442> 221 67<288 421 294 409> 480 67<323 330 330 457>
VStem: 102 76<338.5 358>
LayerCount: 2
Fore
SplineSet
421 288 m 1
 457 480 l 1
 330 480 l 2
 240 480 191 446 180 384 c 0
 179 377 178 370 178 363 c 0
 178 314 215 288 294 288 c 2
 421 288 l 1
288 221 m 1
 93 0 l 1
 9 0 l 1
 209 227 l 1
 140 243 102 291 102 353 c 0
 102 363 103 373 105 384 c 0
 122 477 208 547 323 547 c 2
 543 547 l 1
 442 0 l 1
 368 0 l 1
 409 221 l 1
 288 221 l 1
EndSplineSet
Substitution2: "'locl' Localized Forms in Cyrillic lookup 7 subtable" uni044F.loclBGR
Substitution2: "'aalt' Access All Alternates lookup 0 subtable" uni044F.loclBGR
EndChar

StartChar: uni2116
Encoding: 240 8470 176
Width: 1053
Flags: MW
HStem: 0 21G<76 76 76 150 548 548 548 622> 316 67<754 1047 742 1059> 442 63<909 954 909 959> 682 63<936 981>
VStem: 790 68<556.5 570.5> 1032 69<615.5 630.5>
LayerCount: 2
Fore
SplineSet
975 745 m 0
 1048 745 1101 689 1101 620 c 0
 1101 611 1100 603 1098 594 c 0
 1083 511 1001 442 917 442 c 0
 843 442 790 496 790 566 c 0
 790 575 791 584 793 593 c 0
 809 677 890 745 975 745 c 0
960 682 m 0
 912 682 869 643 860 594 c 0
 859 588 858 582 858 577 c 0
 858 536 888 505 930 505 c 0
 978 505 1022 544 1031 593 c 0
 1032 599 1032 605 1032 610 c 0
 1032 651 1002 682 960 682 c 0
754 383 m 1
 1059 383 l 1
 1047 316 l 1
 742 316 l 1
 754 383 l 1
76 0 m 1
 213 739 l 1
 313 739 l 1
 573 136 l 1
 685 739 l 1
 759 739 l 1
 622 0 l 1
 548 0 l 1
 269 640 l 1
 150 0 l 1
 76 0 l 1
EndSplineSet
EndChar

StartChar: uni0451
Encoding: 241 1105 177
Width: 650
Flags: MW
HStem: -13 68<287 380.5 287 388.5> 249 67<177 596 177 657 162 596> 492 68<364 469> 623 126<358 408 334 432 358 481 505 555>
VStem: 88 73<176 228 176 230> 596 71<316 349>
LayerCount: 2
Fore
SplineSet
657 249 m 1
 162 249 l 1
 161 241 161 232 161 224 c 0
 161 128 235 55 339 55 c 0
 422 55 508 105 553 180 c 1
 630 180 l 1
 569 65 448 -13 329 -13 c 0
 186 -13 88 86 88 221 c 0
 88 239 90 257 93 276 c 0
 122 435 271 560 429 560 c 0
 537 560 623 503 654 411 c 0
 662 386 667 363 667 335 c 0
 667 311 663 283 657 249 c 1
177 316 m 1
 596 316 l 1
 591 425 522 492 416 492 c 0
 312 492 216 421 177 316 c 1
358 749 m 1
 432 749 l 1
 408 623 l 1
 334 623 l 1
 358 749 l 1
505 749 m 1
 579 749 l 1
 555 623 l 1
 481 623 l 1
 505 749 l 1
EndSplineSet
EndChar

StartChar: uni0452
Encoding: 242 1106 178
Width: 662
Flags: MW
HStem: -181 67<393 444 393 456> 0 21G<135 209 135 135 525 525 599 599> 412 68<424 467.5> 574 67<131 241 118 254 131 315 328 502> 719 20G<272 346 346 346>
VStem: 571 76<285.5 294>
LayerCount: 2
Fore
SplineSet
380 -181 m 1
 393 -114 l 1
 495 -114 519 -35 525 0 c 2
 565 214 l 2
 570 238 571 259 571 278 c 0
 571 310 565 335 551 356 c 0
 528 391 493 412 442 412 c 0
 385 412 337 385 300 341 c 0
 274 311 261 277 250 220 c 2
 209 0 l 1
 135 0 l 1
 241 574 l 1
 118 574 l 1
 131 641 l 1
 254 641 l 1
 272 739 l 1
 346 739 l 1
 328 641 l 1
 515 641 l 1
 502 574 l 1
 315 574 l 1
 282 396 l 1
 329 450 387 480 461 480 c 0
 541 480 594 449 625 396 c 0
 640 369 647 337 647 298 c 0
 647 273 645 246 639 214 c 2
 599 0 l 2
 588 -60 532 -181 380 -181 c 1
EndSplineSet
EndChar

StartChar: uni0453
Encoding: 243 1107 179
Width: 355
Flags: MW
HStem: 0 21G<63 137 63 63> 480 67<226 432 226 226> 610 172
VStem: 230 238<666 724>
LayerCount: 2
Fore
SplineSet
230 666 m 1
 445 782 l 1
 468 724 l 1
 254 610 l 1
 230 666 l 1
444 547 m 1
 432 480 l 1
 226 480 l 1
 137 0 l 1
 63 0 l 1
 164 547 l 1
 444 547 l 1
EndSplineSet
EndChar

StartChar: uni0454
Encoding: 244 1108 180
Width: 644
Flags: MW
HStem: -13 68<292.5 386 292.5 401> 243 67<177 490 164 502> 492 68<370.5 465.5>
VStem: 88 76<181.5 229.5>
LayerCount: 2
Fore
SplineSet
549 155 m 1
 634 155 l 1
 565 56 464 -13 338 -13 c 0
 189 -13 88 85 88 221 c 0
 88 238 90 256 93 275 c 0
 122 434 275 560 439 560 c 0
 563 560 650 494 677 387 c 1
 592 387 l 1
 563 455 506 492 425 492 c 0
 316 492 213 415 177 310 c 1
 502 310 l 1
 490 243 l 1
 164 243 l 1
 164 232 l 2
 164 131 238 55 347 55 c 0
 425 55 498 95 549 155 c 1
EndSplineSet
EndChar

StartChar: uni0455
Encoding: 245 1109 181
Width: 388
Flags: MW
HStem: -13 68<176.5 231 176.5 241.5> 492 68<261 304.5>
VStem: 44 75<112 129> 111 77<364 400.5> 316 77<185.5 189.5> 349 76<434.5 448>
LayerCount: 2
Fore
SplineSet
48 161 m 1xe8
 121 161 l 1
 120 153 119 146 119 139 c 0
 119 85 149 55 204 55 c 0
 258 55 304 95 314 150 c 0
 316 158 316 165 316 172 c 0xe8
 316 207 294 226 227 255 c 0
 156 287 155 287 136 308 c 0
 119 327 111 350 111 378 c 0
 111 387 111 396 113 406 c 0
 129 495 207 560 297 560 c 0
 376 560 425 512 425 439 c 0
 425 430 424 421 423 412 c 1
 348 412 l 1
 349 417 349 422 349 427 c 0
 349 469 326 492 283 492 c 0
 239 492 198 457 190 413 c 0
 189 408 188 403 188 398 c 0xd4
 188 374 201 355 227 340 c 0
 242 333 245 331 321 297 c 0
 370 275 393 240 393 191 c 0
 393 180 392 169 390 157 c 0
 371 57 291 -13 192 -13 c 0
 99 -13 44 39 44 123 c 0
 44 135 46 148 48 161 c 1xe8
EndSplineSet
EndChar

StartChar: uni0456
Encoding: 246 1110 182
Width: 200
Flags: MW
HStem: 0 21G<63 63 63 137> 527 20G<164 238 238 238> 719 20G<200 274 274 274>
VStem: 63 211
LayerCount: 2
Fore
SplineSet
63 0 m 1
 164 547 l 1
 238 547 l 1
 137 0 l 1
 63 0 l 1
177 613 m 1
 200 739 l 1
 274 739 l 1
 251 613 l 1
 177 613 l 1
EndSplineSet
Substitution2: "Single Substitution lookup 26 subtable" uni0456.dotless
Substitution2: "'aalt' Access All Alternates lookup 0 subtable" uni0456.dotless
EndChar

StartChar: uni0457
Encoding: 247 1111 183
Width: 200
Flags: MW
HStem: 0 21G<64 64 64 138> 527 20G<165 239 239 239> 623 126<129 179 105 203 129 252 276 326>
VStem: 64 286
LayerCount: 2
Fore
SplineSet
129 749 m 1
 203 749 l 1
 179 623 l 1
 105 623 l 1
 129 749 l 1
276 749 m 1
 350 749 l 1
 326 623 l 1
 252 623 l 1
 276 749 l 1
64 0 m 1
 165 547 l 1
 239 547 l 1
 138 0 l 1
 64 0 l 1
EndSplineSet
EndChar

StartChar: uni0458
Encoding: 248 1112 184
Width: 203
Flags: MW
HStem: -192 71<-81 -67> 527 20G<167 241 241 241> 719 20G<203 277 277 277>
LayerCount: 2
Fore
SplineSet
241 547 m 1
 147 38 l 2
 127 -72 100 -118 36 -158 c 0
 0 -180 -35 -190 -81 -192 c 1
 -67 -121 l 1
 17 -116 52 -76 73 38 c 2
 167 547 l 1
 241 547 l 1
180 613 m 1
 203 739 l 1
 277 739 l 1
 254 613 l 1
 180 613 l 1
EndSplineSet
Substitution2: "Single Substitution lookup 26 subtable" uni0458.dotless
Substitution2: "'aalt' Access All Alternates lookup 0 subtable" uni0458.dotless
EndChar

StartChar: uni0459
Encoding: 249 1113 185
Width: 850
Flags: MW
HStem: 0 67<490 632 632 639> 261 67<526 700 539 668> 527 20G<484 579 579 579>
VStem: 785 75<190 210.5>
LayerCount: 2
Fore
SplineSet
700 328 m 2
 802 328 860 273 860 195 c 0
 860 185 859 175 857 164 c 0
 840 70 754 0 639 0 c 2
 404 0 l 1
 488 452 l 1
 92 0 l 1
 5 0 l 1
 484 547 l 1
 579 547 l 1
 539 328 l 1
 700 328 l 2
526 261 m 1
 490 67 l 1
 632 67 l 2
 722 67 770 101 782 164 c 0
 783 172 785 179 785 186 c 0
 785 235 747 261 668 261 c 2
 526 261 l 1
EndSplineSet
EndChar

StartChar: uni045A
Encoding: 250 1114 186
Width: 881
Flags: MW
HStem: 0 67<521 663 663 670> 261 67<198 483 185 496 570 699 198 557> 527 20G<164 238 238 238 536 610 610 610>
VStem: 816 75<190 210.5>
LayerCount: 2
Fore
SplineSet
731 328 m 2
 833 328 891 273 891 195 c 0
 891 185 890 175 888 164 c 0
 871 70 785 0 670 0 c 2
 435 0 l 1
 483 261 l 1
 185 261 l 1
 137 0 l 1
 63 0 l 1
 164 547 l 1
 238 547 l 1
 198 328 l 1
 496 328 l 1
 536 547 l 1
 610 547 l 1
 570 328 l 1
 731 328 l 2
557 261 m 1
 521 67 l 1
 663 67 l 2
 753 67 801 101 813 164 c 0
 814 172 816 179 816 186 c 0
 816 235 778 261 699 261 c 2
 557 261 l 1
EndSplineSet
EndChar

StartChar: uni045B
Encoding: 251 1115 187
Width: 662
Flags: MW
HStem: 0 21G<135 209 135 135 525 599 525 525> 412 68<424 467.5> 574 67<131 241 118 254 131 315 328 502> 719 20G<272 346 346 346>
VStem: 571 76<285.5 294>
LayerCount: 2
Fore
SplineSet
241 574 m 1
 118 574 l 1
 131 641 l 1
 254 641 l 1
 272 739 l 1
 346 739 l 1
 328 641 l 1
 515 641 l 1
 502 574 l 1
 315 574 l 1
 282 396 l 1
 329 450 387 480 461 480 c 0
 541 480 594 449 625 396 c 0
 640 369 647 337 647 298 c 0
 647 273 645 246 639 214 c 2
 599 0 l 1
 525 0 l 1
 565 214 l 2
 570 238 571 259 571 278 c 0
 571 310 565 335 551 356 c 0
 528 391 493 412 442 412 c 0
 385 412 337 385 300 341 c 0
 274 311 261 277 250 220 c 2
 209 0 l 1
 135 0 l 1
 241 574 l 1
EndSplineSet
EndChar

StartChar: uni045C
Encoding: 252 1116 188
Width: 488
Flags: MW
HStem: 0 21G<63 137 63 63 386 483 386 386> 527 20G<164 238 238 238 488 584 584 584> 610 172
VStem: 287 238<666 724>
LayerCount: 2
Fore
SplineSet
287 666 m 1
 502 782 l 1
 525 724 l 1
 311 610 l 1
 287 666 l 1
164 547 m 1
 238 547 l 1
 193 303 l 1
 488 547 l 1
 584 547 l 1
 262 282 l 1
 483 0 l 1
 386 0 l 1
 185 258 l 1
 137 0 l 1
 63 0 l 1
 164 547 l 1
EndSplineSet
EndChar

StartChar: section
Encoding: 253 167 189
Width: 615
Flags: MW
HStem: -141 67<263.5 333 263.5 341> 685 67<403.5 463.5>
VStem: 115 70<7.5 33> 147 72<290.5 338> 241 70<559.5 562.5> 441 70<60.5 66.5> 515 70<311 311.5> 524 72<606 660.5>
LayerCount: 2
Fore
SplineSet
595 606 m 1xdd
 524 606 l 1xdd
 523 659 493 685 434 685 c 0
 373 685 323 646 313 591 c 0
 312 585 311 579 311 574 c 0
 311 545 327 521 356 505 c 2
 500 431 l 2
 557 401 585 363 585 315 c 0
 585 307 585 298 583 289 c 0
 573 234 536 183 480 146 c 1
 501 119 511 94 511 65 c 0
 511 56 510 47 508 37 c 0
 489 -65 395 -141 287 -141 c 0
 182 -141 115 -73 115 27 c 0
 115 39 116 51 118 64 c 1
 186 64 l 1
 185 57 185 50 185 43 c 0xee
 185 -28 228 -74 299 -74 c 0
 367 -74 428 -27 439 35 c 0
 440 40 441 45 441 50 c 0
 441 83 417 108 364 137 c 2
 234 207 l 2
 172 241 147 269 147 312 c 0
 147 320 148 329 150 339 c 0
 161 401 198 450 264 491 c 1
 248 513 241 533 241 558 c 0
 241 567 242 578 244 589 c 0
 261 683 347 752 446 752 c 0
 537 752 596 699 596 622 c 0
 596 617 596 612 595 606 c 1xdd
468 365 m 2
 296 454 l 1
 257 430 227 390 220 350 c 0
 219 345 219 340 219 336 c 0
 219 312 233 293 261 278 c 2
 441 182 l 1
 478 206 506 244 513 280 c 0
 514 286 515 292 515 297 c 0xde
 515 326 500 349 468 365 c 2
EndSplineSet
EndChar

StartChar: uni045E
Encoding: 254 1118 190
Width: 536
Flags: MW
HStem: -192 21G<96 96 96 175> 527 20G<110 191 191 191 549 628 628 628> 616 46<370.5 415.5 370.5 422> 726 20G<254 328 328 328 484 558 558 558>
VStem: 254 72<701 725 700.5 746> 484 74<746 746>
LayerCount: 2
Fore
SplineSet
254 746 m 1
 328 746 l 1
 326 737 326 729 326 721 c 0
 326 680 350 662 391 662 c 0
 440 662 473 688 484 746 c 1
 558 746 l 1
 526 656 462 616 382 616 c 0
 302 616 254 656 254 746 c 1
96 -192 m 1
 224 18 l 1
 110 547 l 1
 191 547 l 1
 284 111 l 1
 549 547 l 1
 628 547 l 1
 175 -192 l 1
 96 -192 l 1
EndSplineSet
EndChar

StartChar: uni045F
Encoding: 255 1119 191
Width: 588
Flags: MW
HStem: 0 67<149 254 334 463 149 525 334 334> 527 20G<164 238 238 238 552 626 626 626>
VStem: 245 50<-131 -131>
LayerCount: 2
Fore
SplineSet
626 547 m 1
 525 0 l 1
 334 0 l 1
 295 -131 l 1
 245 -131 l 1
 254 0 l 1
 63 0 l 1
 164 547 l 1
 238 547 l 1
 149 67 l 1
 463 67 l 1
 552 547 l 1
 626 547 l 1
EndSplineSet
EndChar

StartChar: exclamdown
Encoding: 257 161 192
Width: 295
Flags: MW
HStem: -192 21G<75 75 75 149> 527 20G<212 286 286 286>
VStem: 75 211
LayerCount: 2
Fore
SplineSet
75 -192 m 1
 176 352 l 1
 250 352 l 1
 149 -192 l 1
 75 -192 l 1
189 421 m 1
 212 547 l 1
 286 547 l 1
 263 421 l 1
 189 421 l 1
EndSplineSet
EndChar

StartChar: cent
Encoding: 258 162 193
Width: 554
Flags: MW
HStem: 151 66<287 287 282 353> 547 67<373 373 373 415.5>
VStem: 112 75<312.5 345>
LayerCount: 2
Fore
SplineSet
270 62 m 1
 287 151 l 1
 181 160 112 236 112 338 c 0
 112 352 113 367 116 382 c 0
 139 507 244 601 373 614 c 1
 390 707 l 1
 456 707 l 1
 439 614 l 1
 523 602 581 545 595 463 c 1
 512 463 l 1
 491 518 447 547 384 547 c 0
 290 547 207 477 190 383 c 0
 188 372 187 361 187 351 c 0
 187 274 242 217 322 217 c 0
 377 217 421 238 476 290 c 1
 557 290 l 1
 516 217 435 162 353 151 c 1
 336 62 l 1
 270 62 l 1
EndSplineSet
EndChar

StartChar: sterling
Encoding: 259 163 194
Width: 554
Flags: MW
HStem: 0 67<59 210 71 210 297 344> 347 67<95 170 95 208 82 170 306 306 306 521> 685 67<386 480>
VStem: 162 74<466.5 478.5> 278 74<214.5 241> 562 73<239.5 268 239.5 268> 585 70<541 618>
LayerCount: 2
Fore
SplineSet
59 0 m 1xfc
 71 67 l 1
 210 67 l 1
 244 98 265 136 274 183 c 0
 276 196 278 209 278 220 c 0
 278 262 259 293 208 347 c 1
 82 347 l 1
 95 414 l 1
 170 414 l 1
 165 438 162 455 162 472 c 0
 162 485 163 497 166 512 c 0
 192 652 308 752 445 752 c 0
 572 752 655 676 655 560 c 0
 655 554 654 547 654 541 c 1
 585 541 l 1xfa
 582 632 526 685 434 685 c 0
 338 685 259 615 240 513 c 0
 237 499 236 487 236 476 c 0
 236 457 240 440 250 414 c 1
 534 414 l 1
 521 347 l 1
 306 347 l 1
 336 306 352 264 352 220 c 0
 352 208 350 196 348 184 c 0
 341 146 328 116 297 67 c 1
 354 67 l 2
 416 67 461 80 493 106 c 0
 525 133 551 177 559 219 c 0
 561 230 562 240 562 257 c 2
 562 268 l 1
 634 268 l 1
 635 259 635 252 635 245 c 0
 635 234 634 225 632 213 c 0
 619 144 576 80 519 43 c 0
 474 14 418 0 344 0 c 2
 59 0 l 1xfc
EndSplineSet
EndChar

StartChar: currency
Encoding: 260 164 195
Width: 554
Flags: MW
HStem: 50 72<256.5 313.5> 483 70<350 407 350 412>
VStem: 77 73<231.5 257.5> 517 72<345.5 371.5 345.5 384>
LayerCount: 2
Fore
SplineSet
121 494 m 1
 186 548 l 1
 221 506 l 1
 280 540 322 553 378 553 c 0
 436 553 482 538 520 507 c 1
 571 549 l 1
 615 494 l 1
 566 452 l 1
 582 420 589 389 589 354 c 0
 589 337 588 319 584 300 c 0
 573 240 548 191 509 153 c 1
 544 111 l 1
 480 58 l 1
 447 100 l 1
 382 62 342 50 285 50 c 0
 228 50 192 63 145 100 c 1
 95 58 l 1
 52 112 l 1
 100 153 l 1
 84 183 77 214 77 249 c 0
 77 266 78 284 82 303 c 0
 93 362 115 406 157 452 c 1
 121 494 l 1
365 483 m 0
 264 483 172 405 153 302 c 0
 151 290 150 277 150 266 c 0
 150 181 210 122 302 122 c 0
 403 122 494 200 513 302 c 0
 515 315 517 329 517 341 c 0
 517 427 459 483 365 483 c 0
EndSplineSet
EndChar

StartChar: yen
Encoding: 261 165 196
Width: 554
Flags: MW
HStem: 0 21G<260 260 260 333> 237 67<106 289 106 304 94 289 415 583> 396 67<129 234 129 257 116 234 529 619> 719 20G<137 213 213 213 650 726 726 726>
LayerCount: 2
Fore
SplineSet
260 0 m 1
 304 237 l 1
 94 237 l 1
 106 304 l 1
 289 304 l 1
 257 396 l 1
 116 396 l 1
 129 463 l 1
 234 463 l 1
 137 739 l 1
 213 739 l 1
 358 327 l 1
 650 739 l 1
 726 739 l 1
 529 463 l 1
 632 463 l 1
 619 396 l 1
 480 396 l 1
 415 304 l 1
 595 304 l 1
 583 237 l 1
 377 237 l 1
 333 0 l 1
 260 0 l 1
EndSplineSet
EndChar

StartChar: brokenbar
Encoding: 262 166 197
Width: 672
Flags: MW
HStem: 0 21G<304 368 304 304> 719 20G<441 505 505 505>
VStem: 304 201
LayerCount: 2
Fore
SplineSet
505 739 m 1
 450 444 l 1
 386 444 l 1
 441 739 l 1
 505 739 l 1
423 295 m 1
 368 0 l 1
 304 0 l 1
 359 295 l 1
 423 295 l 1
EndSplineSet
EndChar

StartChar: dieresis
Encoding: 263 168 198
Width: 369
Flags: MW
HStem: 623 126<213 263 189 287 213 336 360 410>
VStem: 189 245<623 749>
LayerCount: 2
Fore
SplineSet
213 749 m 1
 287 749 l 1
 263 623 l 1
 189 623 l 1
 213 749 l 1
360 749 m 1
 434 749 l 1
 410 623 l 1
 336 623 l 1
 360 749 l 1
EndSplineSet
EndChar

StartChar: copyright
Encoding: 264 169 199
Width: 747
Flags: MW
HStem: -13 52<300.5 470 300.5 476.5> 148 56<383 444 383 450> 538 56<440 508> 700 52<411 580.5>
VStem: 53 57<231.5 310.5> 228 62<302.5 337.5> 773 57<427.5 509>
LayerCount: 2
Fore
SplineSet
549 261 m 1
 624 261 l 1
 571 190 491 148 409 148 c 0
 303 148 228 227 228 331 c 0
 228 344 229 358 232 372 c 0
 255 496 371 594 493 594 c 0
 577 594 639 552 667 477 c 1
 593 477 l 1
 567 518 532 538 484 538 c 0
 396 538 310 464 293 372 c 0
 291 361 290 351 290 341 c 0
 290 264 345 204 421 204 c 0
 467 204 510 223 549 261 c 1
517 752 m 0
 700 752 830 616 830 439 c 0
 830 416 827 393 823 369 c 0
 784 158 582 -13 371 -13 c 0
 184 -13 53 121 53 299 c 0
 53 322 55 345 59 369 c 0
 99 583 300 752 517 752 c 0
499 700 m 0
 323 700 149 550 115 369 c 0
 111 348 110 328 110 308 c 0
 110 155 221 39 380 39 c 0
 560 39 733 187 767 369 c 0
 771 391 773 412 773 432 c 0
 773 586 662 700 499 700 c 0
EndSplineSet
EndChar

StartChar: ordfeminine
Encoding: 265 170 200
Width: 369
Flags: MW
HStem: 319 51<100 398 90 408> 441 49<251.5 285.5> 696 49<286 336>
VStem: 139 53<552.5 571.5>
LayerCount: 2
Fore
SplineSet
470 739 m 1
 416 448 l 1
 368 448 l 1
 376 493 l 1
 339 456 307 441 264 441 c 0
 191 441 139 496 139 567 c 0
 139 576 139 585 141 594 c 0
 156 677 237 745 321 745 c 0
 362 745 401 724 414 694 c 1
 422 739 l 1
 470 739 l 1
312 696 m 0
 260 696 204 647 194 594 c 0
 193 588 192 582 192 576 c 0
 192 529 228 490 275 490 c 0
 327 490 382 538 392 592 c 0
 393 599 394 606 394 612 c 0
 394 660 360 696 312 696 c 0
100 370 m 1
 408 370 l 1
 398 319 l 1
 90 319 l 1
 100 370 l 1
EndSplineSet
EndChar

StartChar: guillemotleft
Encoding: 266 171 201
Width: 425
Flags: MW
HStem: 99 400<171 245 245 344>
VStem: 96 376<300 467>
LayerCount: 2
Fore
SplineSet
171 99 m 1
 96 300 l 1
 245 499 l 1
 299 467 l 1
 174 300 l 1
 236 132 l 1
 171 99 l 1
344 99 m 1
 267 300 l 1
 418 499 l 1
 472 467 l 1
 347 300 l 1
 409 132 l 1
 344 99 l 1
EndSplineSet
EndChar

StartChar: logicalnot
Encoding: 267 172 202
Width: 606
Flags: MW
HStem: 363 73<132 550 118 636>
LayerCount: 2
Fore
SplineSet
132 436 m 1
 636 436 l 1
 582 148 l 1
 510 148 l 1
 550 363 l 1
 118 363 l 1
 132 436 l 1
EndSplineSet
EndChar

StartChar: registered
Encoding: 268 174 203
Width: 747
Flags: MW
HStem: -13 52<300.5 470 300.5 476.5> 527 58<407 474 407 407> 700 52<411 580.5>
VStem: 53 57<231.5 310.5> 556 64<472.5 483.5> 773 57<427.5 509>
LayerCount: 2
Fore
SplineSet
559 157 m 1
 483 157 l 1
 376 359 l 1
 338 157 l 1
 277 157 l 1
 356 585 l 1
 488 585 l 2
 541 585 576 574 597 549 c 0
 612 531 620 506 620 477 c 0
 620 468 619 458 617 448 c 0
 603 372 553 328 468 317 c 1
 559 157 l 1
377 365 m 1
 421 365 l 2
 498 365 544 394 554 448 c 0
 555 453 556 459 556 464 c 0
 556 503 525 527 474 527 c 2
 407 527 l 1
 377 365 l 1
517 752 m 0
 700 752 830 616 830 439 c 0
 830 416 827 393 823 369 c 0
 784 158 582 -13 371 -13 c 0
 184 -13 53 121 53 299 c 0
 53 322 55 345 59 369 c 0
 99 583 300 752 517 752 c 0
499 700 m 0
 323 700 149 550 115 369 c 0
 111 348 110 328 110 308 c 0
 110 155 221 39 380 39 c 0
 560 39 733 187 767 369 c 0
 771 391 773 412 773 432 c 0
 773 586 662 700 499 700 c 0
EndSplineSet
EndChar

StartChar: macron
Encoding: 269 175 204
Width: 485
Flags: MW
HStem: 643 64<205 530 193 542>
LayerCount: 2
Fore
SplineSet
205 707 m 1
 542 707 l 1
 530 643 l 1
 193 643 l 1
 205 707 l 1
EndSplineSet
EndChar

StartChar: degree
Encoding: 270 176 205
Width: 400
Flags: MW
HStem: 380 57<258 307 258 312> 629 57<291 340>
VStem: 146 57<493 509> 394 58<559 574.5>
LayerCount: 2
Fore
SplineSet
331 686 m 0
 403 686 452 635 452 564 c 0
 452 554 451 544 449 533 c 0
 433 447 354 380 270 380 c 0
 196 380 146 433 146 504 c 0
 146 514 147 524 149 534 c 0
 165 619 244 686 331 686 c 0
317 629 m 0
 265 629 215 585 205 533 c 0
 204 527 203 521 203 515 c 0
 203 471 235 437 281 437 c 0
 333 437 382 479 392 533 c 0
 393 539 394 546 394 552 c 0
 394 597 363 629 317 629 c 0
EndSplineSet
EndChar

StartChar: plusminus
Encoding: 271 177 206
Width: 606
Flags: MW
HStem: 0 74<65 555 51 569> 295 74<119 320 106 333 410 610 119 397>
LayerCount: 2
Fore
SplineSet
333 369 m 1
 373 585 l 1
 450 585 l 1
 410 369 l 1
 623 369 l 1
 610 295 l 1
 397 295 l 1
 365 124 l 1
 288 124 l 1
 320 295 l 1
 106 295 l 1
 119 369 l 1
 333 369 l 1
569 74 m 1
 555 0 l 1
 51 0 l 1
 65 74 l 1
 569 74 l 1
EndSplineSet
EndChar

StartChar: uni00B2
Encoding: 272 178 207
Width: 332
Flags: MW
HStem: 288 55<165 371> 692 55<276.5 318.5>
VStem: 124 60<583 583> 373 62<627 641.5>
LayerCount: 2
Fore
SplineSet
65 288 m 1
 75 339 l 1
 266 489 l 2
 315 527 314 527 329 541 c 0
 353 564 368 586 372 608 c 0
 373 613 373 617 373 622 c 0
 373 661 341 692 296 692 c 0
 257 692 218 668 200 634 c 0
 192 620 189 612 184 583 c 1
 124 583 l 1
 126 595 l 2
 144 686 217 747 309 747 c 0
 383 747 435 697 435 631 c 0
 435 623 434 614 432 606 c 0
 423 559 395 521 320 464 c 2
 165 343 l 1
 382 343 l 1
 371 288 l 1
 65 288 l 1
EndSplineSet
EndChar

StartChar: uni00B3
Encoding: 273 179 208
Width: 332
Flags: MW
HStem: 280 55<213 252 213 259.5> 517 53<224 279.5> 692 55<275.5 310>
VStem: 91 62<399.5 404> 157 61<615 615> 338 63<449.5 458.5> 347 61<646.5 657.5>
LayerCount: 2
Fore
SplineSet
218 615 m 1xfa
 157 615 l 1
 173 695 230 747 305 747 c 0
 366 747 408 706 408 650 c 0xfa
 408 643 407 636 406 628 c 0
 400 594 386 574 350 546 c 1
 384 522 401 492 401 454 c 0
 401 445 400 436 398 427 c 0
 383 347 301 280 218 280 c 0
 163 280 116 309 99 355 c 0
 93 369 91 382 91 398 c 0
 91 410 92 423 94 439 c 1
 155 439 l 1
 153 426 153 415 153 407 c 0
 153 392 156 384 162 373 c 0
 176 349 199 335 227 335 c 0
 277 335 328 377 337 425 c 0
 338 430 338 436 338 441 c 0xfc
 338 476 316 505 282 513 c 0
 271 516 257 517 224 517 c 1
 234 571 l 1
 244 570 249 570 254 570 c 0
 305 570 339 593 346 631 c 0
 347 635 347 639 347 643 c 0
 347 672 326 692 294 692 c 0
 257 692 229 665 220 624 c 2
 218 615 l 1xfa
EndSplineSet
EndChar

StartChar: acute
Encoding: 274 180 209
Width: 375
Flags: MW
HStem: 610 172
VStem: 197 238<666 724>
LayerCount: 2
Fore
SplineSet
197 666 m 1
 412 782 l 1
 435 724 l 1
 221 610 l 1
 197 666 l 1
EndSplineSet
EndChar

StartChar: mu
Encoding: 275 181 210
Width: 608
Flags: MW
HStem: -192 21G<27 101 27 27> -13 67<295.5 343.5 295.5 343.5> 0 21G<471 545 471 471> 527 20G<164 238 238 238 572 646 646 646>
LayerCount: 2
Fore
SplineSet
646 547 m 1xd0
 545 0 l 1
 471 0 l 1xb0
 487 85 l 1
 441 18 382 -13 305 -13 c 0
 233 -13 179 22 153 85 c 1
 101 -192 l 1
 27 -192 l 1
 164 547 l 1
 238 547 l 1
 186 266 l 2
 180 232 177 206 177 185 c 0
 177 148 187 126 209 101 c 0
 235 71 275 54 316 54 c 0
 371 54 426 80 463 123 c 0
 491 157 508 199 520 266 c 2
 572 547 l 1
 646 547 l 1xd0
EndSplineSet
EndChar

StartChar: paragraph
Encoding: 276 182 211
Width: 564
Flags: MW
HStem: 672 67<427 541 427 427>
LayerCount: 2
Fore
SplineSet
202 -133 m 1
 293 355 l 1
 192 365 135 423 135 509 c 0
 135 522 136 535 139 549 c 0
 151 616 193 675 254 708 c 0
 292 730 335 739 397 739 c 2
 628 739 l 1
 466 -133 l 1
 391 -133 l 1
 541 672 l 1
 427 672 l 1
 277 -133 l 1
 202 -133 l 1
EndSplineSet
EndChar

StartChar: periodcentered
Encoding: 277 183 212
Width: 277
Flags: MW
HStem: 229 126<143 241 167 217>
VStem: 143 98
LayerCount: 2
Fore
SplineSet
143 229 m 1
 167 355 l 1
 241 355 l 1
 217 229 l 1
 143 229 l 1
EndSplineSet
EndChar

StartChar: cedilla
Encoding: 278 184 213
Width: 324
Flags: MW
HStem: -213 43<119.5 144 119.5 149> -72 33<139 186.5>
VStem: 48 45<-140 -135> 185 45<-104 -99>
LayerCount: 2
Fore
SplineSet
124 0 m 1
 160 0 l 1
 132 -47 l 1
 148 -41 156 -39 167 -39 c 0
 206 -39 230 -64 230 -101 c 0
 230 -107 229 -113 228 -119 c 0
 218 -174 175 -213 123 -213 c 0
 77 -213 50 -187 48 -140 c 1
 93 -135 l 1
 95 -157 108 -170 131 -170 c 0
 157 -170 179 -151 184 -124 c 0
 185 -120 185 -115 185 -111 c 0
 185 -87 171 -72 148 -72 c 0
 130 -72 117 -79 100 -96 c 1
 74 -79 l 1
 124 0 l 1
EndSplineSet
EndChar

StartChar: uni00B9
Encoding: 279 185 214
Width: 332
Flags: MW
HStem: 684 55<235 300 225 370>
VStem: 226 144
LayerCount: 2
Fore
SplineSet
226 288 m 1
 300 684 l 1
 225 684 l 1
 235 739 l 1
 370 739 l 1
 286 288 l 1
 226 288 l 1
EndSplineSet
EndChar

StartChar: ordmasculine
Encoding: 280 186 215
Width: 369
Flags: MW
HStem: 319 51<101 396 91 406> 442 49<251.5 303.5 251.5 308> 696 49<285 337>
VStem: 139 54<550 570.5> 396 54<615.5 637>
LayerCount: 2
Fore
SplineSet
324 745 m 0
 397 745 450 689 450 620 c 0
 450 611 449 603 447 594 c 0
 432 511 350 442 266 442 c 0
 192 442 139 496 139 566 c 0
 139 575 140 584 142 593 c 0
 158 677 239 745 324 745 c 0
312 696 m 0
 258 696 205 650 195 594 c 0
 194 587 193 581 193 574 c 0
 193 526 227 491 276 491 c 0
 331 491 383 536 394 593 c 0
 395 600 396 606 396 613 c 0
 396 661 362 696 312 696 c 0
101 370 m 1
 406 370 l 1
 396 319 l 1
 91 319 l 1
 101 370 l 1
EndSplineSet
EndChar

StartChar: guillemotright
Encoding: 281 187 216
Width: 425
Flags: MW
HStem: 99 400<117 191 191 290>
VStem: 64 377<132 300>
LayerCount: 2
Fore
SplineSet
290 99 m 1
 237 132 l 1
 363 300 l 1
 300 467 l 1
 364 499 l 1
 441 300 l 1
 290 99 l 1
117 99 m 1
 64 132 l 1
 190 300 l 1
 127 467 l 1
 191 499 l 1
 270 300 l 1
 117 99 l 1
EndSplineSet
EndChar

StartChar: onequarter
Encoding: 282 188 217
Width: 831
Flags: MW
HStem: 0 21G<211 211 211 265 701 701 701 761> 79 55<570 716 570 776 786 818> 684 55<238 303 228 373>
LayerCount: 2
Fore
SplineSet
701 0 m 1
 716 79 l 1
 485 79 l 1
 494 129 l 1
 780 451 l 1
 845 451 l 1
 786 134 l 1
 828 134 l 1
 818 79 l 1
 776 79 l 1
 761 0 l 1
 701 0 l 1
726 134 m 1
 768 359 l 1
 570 134 l 1
 726 134 l 1
211 0 m 1
 689 739 l 1
 744 739 l 1
 265 0 l 1
 211 0 l 1
229 288 m 1
 303 684 l 1
 228 684 l 1
 238 739 l 1
 373 739 l 1
 289 288 l 1
 229 288 l 1
EndSplineSet
EndChar

StartChar: onehalf
Encoding: 283 189 218
Width: 831
Flags: MW
HStem: 0 55<605 812> 404 55<717.5 759.5> 684 55<233 298 223 368>
VStem: 565 60<295 295> 814 61<339 353.5>
LayerCount: 2
Fore
SplineSet
206 0 m 1
 684 739 l 1
 739 739 l 1
 260 0 l 1
 206 0 l 1
224 288 m 1
 298 684 l 1
 223 684 l 1
 233 739 l 1
 368 739 l 1
 284 288 l 1
 224 288 l 1
506 0 m 1
 515 51 l 1
 706 201 l 2
 755 239 755 239 770 253 c 0
 794 276 808 298 812 320 c 0
 813 325 814 329 814 334 c 0
 814 373 782 404 737 404 c 0
 698 404 658 380 640 346 c 0
 632 332 630 324 625 295 c 1
 565 295 l 1
 567 307 l 2
 585 398 658 459 750 459 c 0
 824 459 875 409 875 343 c 0
 875 335 875 326 873 318 c 0
 864 271 836 233 761 176 c 2
 605 55 l 1
 822 55 l 1
 812 0 l 1
 506 0 l 1
EndSplineSet
EndChar

StartChar: threequarters
Encoding: 284 190 219
Width: 831
Flags: MW
HStem: 0 21G<239 239 239 293 701 701 701 761> 79 55<570 716 570 776 786 818> 280 55<213 252 213 259.5> 517 53<224 279.5> 692 55<275.5 310> 719 20G<717 772 772 772>
VStem: 90 63<399.5 404.5> 157 61<615 615> 338 63<449.5 458.5> 347 61<646.5 657.5>
LayerCount: 2
Fore
SplineSet
701 0 m 1xf3
 716 79 l 1
 485 79 l 1
 494 129 l 1
 780 451 l 1
 845 451 l 1
 786 134 l 1
 828 134 l 1
 818 79 l 1
 776 79 l 1
 761 0 l 1
 701 0 l 1xf3
726 134 m 1
 768 359 l 1
 570 134 l 1
 726 134 l 1
239 0 m 1
 717 739 l 1
 772 739 l 1xf7
 293 0 l 1
 239 0 l 1
218 615 m 1
 157 615 l 1
 173 695 230 747 305 747 c 0
 366 747 408 706 408 650 c 0xfb40
 408 643 407 636 406 628 c 0
 400 594 386 574 350 546 c 1
 384 522 401 492 401 454 c 0
 401 445 400 436 398 427 c 0
 383 347 301 280 218 280 c 0
 163 280 116 309 99 355 c 0
 93 369 90 383 90 399 c 0
 90 410 91 423 94 439 c 1
 155 439 l 1
 153 426 153 415 153 407 c 0
 153 392 156 384 162 373 c 0
 176 349 199 335 227 335 c 0
 277 335 328 377 337 425 c 0
 338 430 338 436 338 441 c 0xfb80
 338 476 316 505 282 513 c 0
 271 516 257 517 224 517 c 1
 234 571 l 1
 244 570 249 570 254 570 c 0
 305 570 339 593 346 631 c 0
 347 635 347 639 347 643 c 0
 347 672 326 692 294 692 c 0xfb40
 257 692 229 665 220 624 c 2
 218 615 l 1
EndSplineSet
EndChar

StartChar: questiondown
Encoding: 285 191 220
Width: 591
Flags: MW
HStem: -205 67<228 295.5> 527 20G<357 431 431 431>
VStem: 64 75<-55 -24> 463 70<39 39>
LayerCount: 2
Fore
SplineSet
431 547 m 1
 408 421 l 1
 334 421 l 1
 357 547 l 1
 431 547 l 1
463 39 m 1
 533 39 l 1
 520 -27 502 -66 467 -107 c 0
 412 -170 337 -205 254 -205 c 0
 139 -205 64 -134 64 -31 c 0
 64 -17 65 -3 68 12 c 0
 80 77 113 122 190 182 c 0
 276 247 312 292 325 354 c 1
 395 354 l 1
 392 339 l 2
 386 305 366 267 339 232 c 0
 318 205 303 191 252 150 c 0
 172 86 151 59 142 10 c 0
 140 0 139 -10 139 -20 c 0
 139 -90 189 -138 267 -138 c 0
 328 -138 388 -108 423 -57 c 0
 441 -32 451 -7 463 39 c 1
EndSplineSet
EndChar

StartChar: Agrave
Encoding: 286 192 221
Width: 740
Flags: MW
HStem: 0 21G<11 11 11 89 648 648 648 729> 249 67<284 571 284 587 243 571> 719 20G<465 548 548 548>
LayerCount: 2
Fore
SplineSet
11 0 m 1
 465 739 l 1
 548 739 l 1
 729 0 l 1
 648 0 l 1
 587 249 l 1
 243 249 l 1
 89 0 l 1
 11 0 l 1
284 316 m 1
 571 316 l 1
 491 655 l 1
 284 316 l 1
432 958 m 1
 609 848 l 1
 566 792 l 1
 389 900 l 1
 432 958 l 1
EndSplineSet
EndChar

StartChar: Aacute
Encoding: 287 193 222
Width: 740
Flags: MW
HStem: 0 21G<11 11 11 89 648 648 648 729> 249 67<284 571 284 587 243 571> 719 20G<465 548 548 548>
LayerCount: 2
Fore
SplineSet
11 0 m 1
 465 739 l 1
 548 739 l 1
 729 0 l 1
 648 0 l 1
 587 249 l 1
 243 249 l 1
 89 0 l 1
 11 0 l 1
284 316 m 1
 571 316 l 1
 491 655 l 1
 284 316 l 1
447 848 m 1
 662 964 l 1
 685 906 l 1
 471 792 l 1
 447 848 l 1
EndSplineSet
EndChar

StartChar: Acircumflex
Encoding: 288 194 223
Width: 740
Flags: MW
HStem: 0 21G<11 11 11 89 648 648 648 729> 249 67<284 571 284 587 243 571> 719 20G<465 548 548 548>
LayerCount: 2
Fore
SplineSet
11 0 m 1
 465 739 l 1
 548 739 l 1
 729 0 l 1
 648 0 l 1
 587 249 l 1
 243 249 l 1
 89 0 l 1
 11 0 l 1
284 316 m 1
 571 316 l 1
 491 655 l 1
 284 316 l 1
342 805 m 1
 511 931 l 1
 577 931 l 1
 696 805 l 1
 607 805 l 1
 535 879 l 1
 433 805 l 1
 342 805 l 1
EndSplineSet
EndChar

StartChar: Atilde
Encoding: 289 195 224
Width: 740
Flags: MW
HStem: 0 21G<11 11 11 89 648 648 648 729> 249 67<284 571 284 587 243 571> 719 20G<465 548 548 548> 815 64<586.5 594.5> 847 63<472 483.5>
LayerCount: 2
Fore
SplineSet
11 0 m 1xe0
 465 739 l 1
 548 739 l 1
 729 0 l 1
 648 0 l 1
 587 249 l 1
 243 249 l 1
 89 0 l 1
 11 0 l 1xe0
284 316 m 1
 571 316 l 1
 491 655 l 1
 284 316 l 1
654 910 m 1xe8
 678 864 l 1
 657 838 611 815 578 815 c 0xf0
 563 815 547 821 516 837 c 0
 502 843 489 847 478 847 c 0xe8
 459 847 450 843 420 821 c 2
 412 815 l 1xf0
 388 861 l 1
 417 892 454 910 490 910 c 0xe8
 508 910 518 907 546 893 c 0
 562 886 582 879 591 879 c 0xf0
 610 879 629 888 654 910 c 1xe8
EndSplineSet
EndChar

StartChar: Adieresis
Encoding: 290 196 225
Width: 740
Flags: MW
HStem: 0 21G<11 11 11 89 648 648 648 729> 249 67<284 571 284 587 243 571> 719 20G<465 548 548 548> 805 126<433 483 409 507 433 556 580 630>
LayerCount: 2
Fore
SplineSet
11 0 m 1
 465 739 l 1
 548 739 l 1
 729 0 l 1
 648 0 l 1
 587 249 l 1
 243 249 l 1
 89 0 l 1
 11 0 l 1
284 316 m 1
 571 316 l 1
 491 655 l 1
 284 316 l 1
433 931 m 1
 507 931 l 1
 483 805 l 1
 409 805 l 1
 433 931 l 1
580 931 m 1
 654 931 l 1
 630 805 l 1
 556 805 l 1
 580 931 l 1
EndSplineSet
EndChar

StartChar: Aring
Encoding: 291 197 226
Width: 740
Flags: MW
HStem: 0 21G<11 11 11 89 648 648 648 729> 249 67<284 571 284 587 243 571> 719 20G<465 548 548 548> 792 41<511.5 538 511.5 542.5> 935 41<528.5 555>
VStem: 440 42<862 869.5> 586 41<898.5 905>
LayerCount: 2
Fore
SplineSet
11 0 m 1
 465 739 l 1
 548 739 l 1
 729 0 l 1
 648 0 l 1
 587 249 l 1
 243 249 l 1
 89 0 l 1
 11 0 l 1
284 316 m 1
 571 316 l 1
 491 655 l 1
 284 316 l 1
552 976 m 0
 596 976 627 943 627 901 c 0
 627 896 627 890 626 884 c 0
 617 833 568 792 517 792 c 0
 472 792 440 825 440 867 c 0
 440 872 441 877 442 883 c 0
 452 935 500 976 552 976 c 0
542 935 m 0
 515 935 488 912 483 883 c 0
 482 880 482 877 482 874 c 0
 482 850 499 833 524 833 c 0
 552 833 580 856 585 883 c 0
 586 886 586 890 586 893 c 0
 586 917 568 935 542 935 c 0
EndSplineSet
EndChar

StartChar: AE
Encoding: 292 198 227
Width: 992
Flags: MW
HStem: 0 67<629 936> 250 67<378 589 318 602> 340 67<692 988 680 1000> 672 67<742 1061 742 742>
LayerCount: 2
Fore
SplineSet
11 0 m 1
 659 739 l 1
 1073 739 l 1
 1061 672 l 1
 742 672 l 1
 692 407 l 1
 1000 407 l 1
 988 340 l 1
 680 340 l 1
 629 67 l 1
 948 67 l 1
 936 0 l 1
 543 0 l 1
 589 250 l 1
 318 250 l 1
 99 0 l 1
 11 0 l 1
378 317 m 1
 602 317 l 1
 662 644 l 1
 378 317 l 1
EndSplineSet
EndChar

StartChar: Ccedilla
Encoding: 293 199 228
Width: 813
Flags: MW
HStem: -240 47<375.5 401 375.5 407> -99 38<395 448> -13 68<427 475.5 365 504> 547 21G<785 868 785 785> 684 68<468.5 588.5>
VStem: 105 77<244.5 304> 300 49<-166 -159> 442 49<-128 -125>
LayerCount: 2
Fore
SplineSet
427 -13 m 1
 392 -68 l 1
 407 -63 416 -61 428 -61 c 0
 468 -61 491 -86 491 -125 c 0
 491 -131 490 -138 489 -145 c 0
 479 -201 434 -240 380 -240 c 0
 333 -240 305 -214 300 -166 c 1
 349 -159 l 1
 353 -183 364 -193 387 -193 c 0
 415 -193 436 -175 441 -147 c 0
 442 -143 442 -139 442 -136 c 0
 442 -114 427 -99 404 -99 c 0
 386 -99 374 -105 356 -121 c 1
 329 -103 l 1
 388 -12 l 1
 304 1 262 18 214 57 c 0
 142 116 105 197 105 292 c 0
 105 316 107 341 112 367 c 0
 153 588 346 752 566 752 c 0
 719 752 835 674 868 547 c 1
 785 547 l 1
 765 593 748 615 717 637 c 0
 674 668 620 684 557 684 c 0
 380 684 221 548 188 370 c 0
 184 350 182 331 182 312 c 0
 182 166 289 55 441 55 c 0
 510 55 581 78 640 119 c 0
 667 138 688 156 724 194 c 1
 806 194 l 1
 710 58 581 -13 427 -13 c 1
EndSplineSet
EndChar

StartChar: Egrave
Encoding: 294 200 229
Width: 536
Flags: MW
HStem: 0 67<162 480> 340 67<225 532 213 544> 672 67<275 605 275 275>
LayerCount: 2
Fore
SplineSet
76 0 m 1
 213 739 l 1
 617 739 l 1
 605 672 l 1
 275 672 l 1
 225 407 l 1
 544 407 l 1
 532 340 l 1
 213 340 l 1
 162 67 l 1
 492 67 l 1
 480 0 l 1
 76 0 l 1
340 958 m 1
 517 848 l 1
 474 792 l 1
 297 900 l 1
 340 958 l 1
EndSplineSet
EndChar

StartChar: Eacute
Encoding: 295 201 230
Width: 536
Flags: MW
HStem: 0 67<162 480> 340 67<225 532 213 544> 672 67<275 605 275 275>
LayerCount: 2
Fore
SplineSet
76 0 m 1
 213 739 l 1
 617 739 l 1
 605 672 l 1
 275 672 l 1
 225 407 l 1
 544 407 l 1
 532 340 l 1
 213 340 l 1
 162 67 l 1
 492 67 l 1
 480 0 l 1
 76 0 l 1
355 848 m 1
 570 964 l 1
 593 906 l 1
 379 792 l 1
 355 848 l 1
EndSplineSet
EndChar

StartChar: Ecircumflex
Encoding: 296 202 231
Width: 536
Flags: MW
HStem: 0 67<162 480> 340 67<225 532 213 544> 672 67<275 605 275 275>
LayerCount: 2
Fore
SplineSet
76 0 m 1
 213 739 l 1
 617 739 l 1
 605 672 l 1
 275 672 l 1
 225 407 l 1
 544 407 l 1
 532 340 l 1
 213 340 l 1
 162 67 l 1
 492 67 l 1
 480 0 l 1
 76 0 l 1
250 805 m 1
 419 931 l 1
 485 931 l 1
 604 805 l 1
 515 805 l 1
 443 879 l 1
 341 805 l 1
 250 805 l 1
EndSplineSet
EndChar

StartChar: Edieresis
Encoding: 297 203 232
Width: 536
Flags: MW
HStem: 0 67<162 480> 340 67<225 532 213 544> 672 67<275 605 275 275> 805 126<341 391 317 415 341 464 488 538>
LayerCount: 2
Fore
SplineSet
76 0 m 1
 213 739 l 1
 617 739 l 1
 605 672 l 1
 275 672 l 1
 225 407 l 1
 544 407 l 1
 532 340 l 1
 213 340 l 1
 162 67 l 1
 492 67 l 1
 480 0 l 1
 76 0 l 1
341 931 m 1
 415 931 l 1
 391 805 l 1
 317 805 l 1
 341 931 l 1
488 931 m 1
 562 931 l 1
 538 805 l 1
 464 805 l 1
 488 931 l 1
EndSplineSet
EndChar

StartChar: Igrave
Encoding: 298 204 233
Width: 226
Flags: MW
HStem: 0 21G<76 76 76 150> 719 20G<213 287 287 287>
VStem: 76 309
LayerCount: 2
Fore
SplineSet
76 0 m 1
 213 739 l 1
 287 739 l 1
 150 0 l 1
 76 0 l 1
208 958 m 1
 385 848 l 1
 342 792 l 1
 165 900 l 1
 208 958 l 1
EndSplineSet
EndChar

StartChar: Iacute
Encoding: 299 205 234
Width: 226
Flags: MW
HStem: 0 21G<76 76 76 150> 719 20G<213 287 287 287>
VStem: 76 318
LayerCount: 2
Fore
SplineSet
76 0 m 1
 213 739 l 1
 287 739 l 1
 150 0 l 1
 76 0 l 1
156 848 m 1
 371 964 l 1
 394 906 l 1
 180 792 l 1
 156 848 l 1
EndSplineSet
EndChar

StartChar: Icircumflex
Encoding: 300 206 235
Width: 226
Flags: MW
HStem: 0 21G<76 76 76 150> 719 20G<213 287 287 287>
LayerCount: 2
Fore
SplineSet
76 0 m 1
 213 739 l 1
 287 739 l 1
 150 0 l 1
 76 0 l 1
85 805 m 1
 254 931 l 1
 320 931 l 1
 439 805 l 1
 350 805 l 1
 278 879 l 1
 176 805 l 1
 85 805 l 1
EndSplineSet
EndChar

StartChar: Idieresis
Encoding: 301 207 236
Width: 226
Flags: MW
HStem: 0 21G<77 77 77 151> 719 20G<214 288 288 288> 805 126<176 226 152 250 176 299 323 373>
VStem: 77 320
LayerCount: 2
Fore
SplineSet
77 0 m 1
 214 739 l 1
 288 739 l 1
 151 0 l 1
 77 0 l 1
176 931 m 1
 250 931 l 1
 226 805 l 1
 152 805 l 1
 176 931 l 1
323 931 m 1
 397 931 l 1
 373 805 l 1
 299 805 l 1
 323 931 l 1
EndSplineSet
EndChar

StartChar: Eth
Encoding: 302 208 237
Width: 790
Flags: MW
HStem: 0 67<208 311 311 321> 347 67<103 186 90 199 273 465 103 260> 672 67<321 424 321 321>
VStem: 746 76<436 475.5>
LayerCount: 2
Fore
SplineSet
186 347 m 1
 90 347 l 1
 103 414 l 1
 199 414 l 1
 259 739 l 1
 433 739 l 2
 571 739 648 722 711 676 c 0
 784 624 822 546 822 449 c 0
 822 423 819 396 814 367 c 0
 788 226 705 115 577 51 c 0
 507 16 428 0 321 0 c 2
 122 0 l 1
 186 347 l 1
260 347 m 1
 208 67 l 1
 311 67 l 2
 446 67 528 87 597 138 c 0
 671 193 723 276 740 370 c 0
 744 392 746 413 746 433 c 0
 746 518 710 588 646 628 c 0
 598 659 532 672 424 672 c 2
 321 672 l 1
 273 414 l 1
 478 414 l 1
 465 347 l 1
 260 347 l 1
EndSplineSet
EndChar

StartChar: Ntilde
Encoding: 303 209 238
Width: 740
Flags: MW
HStem: 0 21G<76 76 76 150 590 590 590 664> 719 20G<213 313 313 313 727 801 801 801> 815 64<590.5 598.5> 847 63<476 487.5>
LayerCount: 2
Fore
SplineSet
76 0 m 1xc0
 213 739 l 1
 313 739 l 1
 613 126 l 1
 727 739 l 1
 801 739 l 1
 664 0 l 1
 590 0 l 1
 270 650 l 1
 150 0 l 1
 76 0 l 1xc0
658 910 m 1xd0
 682 864 l 1
 661 838 615 815 582 815 c 0xe0
 567 815 551 821 520 837 c 0
 506 843 493 847 482 847 c 0xd0
 463 847 454 843 424 821 c 2
 416 815 l 1xe0
 392 861 l 1
 421 892 458 910 494 910 c 0xd0
 512 910 522 907 550 893 c 0
 566 886 586 879 595 879 c 0xe0
 614 879 633 888 658 910 c 1xd0
EndSplineSet
EndChar

StartChar: Ograve
Encoding: 304 210 239
Width: 869
Flags: MW
HStem: -13 68<368 531 368 540> 684 68<473.5 636.5>
VStem: 106 76<240 313> 824 76<426 499.5>
LayerCount: 2
Fore
SplineSet
579 752 m 0
 765 752 900 615 900 437 c 0
 900 415 897 392 893 369 c 0
 854 159 647 -13 433 -13 c 0
 242 -13 106 124 106 302 c 0
 106 324 108 346 112 369 c 0
 151 582 359 752 579 752 c 0
558 684 m 0
 389 684 219 539 187 369 c 0
 183 350 182 331 182 313 c 0
 182 167 291 55 445 55 c 0
 617 55 786 197 818 368 c 0
 822 388 824 407 824 426 c 0
 824 573 715 684 558 684 c 0
496 958 m 1
 673 848 l 1
 630 792 l 1
 453 900 l 1
 496 958 l 1
EndSplineSet
EndChar

StartChar: Oacute
Encoding: 305 211 240
Width: 869
Flags: MW
HStem: -13 68<368 531 368 540> 684 68<473.5 636.5>
VStem: 106 76<240 313> 824 76<426 499.5>
LayerCount: 2
Fore
SplineSet
579 752 m 0
 765 752 900 615 900 437 c 0
 900 415 897 392 893 369 c 0
 854 159 647 -13 433 -13 c 0
 242 -13 106 124 106 302 c 0
 106 324 108 346 112 369 c 0
 151 582 359 752 579 752 c 0
558 684 m 0
 389 684 219 539 187 369 c 0
 183 350 182 331 182 313 c 0
 182 167 291 55 445 55 c 0
 617 55 786 197 818 368 c 0
 822 388 824 407 824 426 c 0
 824 573 715 684 558 684 c 0
511 848 m 1
 726 964 l 1
 749 906 l 1
 535 792 l 1
 511 848 l 1
EndSplineSet
EndChar

StartChar: Ocircumflex
Encoding: 306 212 241
Width: 869
Flags: MW
HStem: -13 68<368 531 368 540> 684 68<473.5 636.5>
VStem: 106 76<240 313> 824 76<426 499.5>
LayerCount: 2
Fore
SplineSet
579 752 m 0
 765 752 900 615 900 437 c 0
 900 415 897 392 893 369 c 0
 854 159 647 -13 433 -13 c 0
 242 -13 106 124 106 302 c 0
 106 324 108 346 112 369 c 0
 151 582 359 752 579 752 c 0
558 684 m 0
 389 684 219 539 187 369 c 0
 183 350 182 331 182 313 c 0
 182 167 291 55 445 55 c 0
 617 55 786 197 818 368 c 0
 822 388 824 407 824 426 c 0
 824 573 715 684 558 684 c 0
406 805 m 1
 575 931 l 1
 641 931 l 1
 760 805 l 1
 671 805 l 1
 599 879 l 1
 497 805 l 1
 406 805 l 1
EndSplineSet
EndChar

StartChar: Otilde
Encoding: 307 213 242
Width: 869
Flags: MW
HStem: -13 68<368 531 368 540> 684 68<473.5 636.5> 815 64<658.5 666.5> 847 63<544 555.5>
VStem: 106 76<240 313> 824 76<426 499.5>
LayerCount: 2
Fore
SplineSet
579 752 m 0xcc
 765 752 900 615 900 437 c 0
 900 415 897 392 893 369 c 0
 854 159 647 -13 433 -13 c 0
 242 -13 106 124 106 302 c 0
 106 324 108 346 112 369 c 0
 151 582 359 752 579 752 c 0xcc
558 684 m 0
 389 684 219 539 187 369 c 0
 183 350 182 331 182 313 c 0
 182 167 291 55 445 55 c 0
 617 55 786 197 818 368 c 0
 822 388 824 407 824 426 c 0
 824 573 715 684 558 684 c 0
726 910 m 1xdc
 750 864 l 1
 729 838 683 815 650 815 c 0xec
 635 815 619 821 588 837 c 0
 574 843 561 847 550 847 c 0xdc
 531 847 522 843 492 821 c 2
 484 815 l 1xec
 460 861 l 1
 489 892 526 910 562 910 c 0xdc
 580 910 590 907 618 893 c 0
 634 886 654 879 663 879 c 0xec
 682 879 701 888 726 910 c 1xdc
EndSplineSet
EndChar

StartChar: Odieresis
Encoding: 308 214 243
Width: 869
Flags: MW
HStem: -13 68<368 531 368 540> 684 68<473.5 636.5> 805 126<497 547 473 571 497 620 644 694>
VStem: 106 76<240 313> 824 76<426 499.5>
LayerCount: 2
Fore
SplineSet
579 752 m 0
 765 752 900 615 900 437 c 0
 900 415 897 392 893 369 c 0
 854 159 647 -13 433 -13 c 0
 242 -13 106 124 106 302 c 0
 106 324 108 346 112 369 c 0
 151 582 359 752 579 752 c 0
558 684 m 0
 389 684 219 539 187 369 c 0
 183 350 182 331 182 313 c 0
 182 167 291 55 445 55 c 0
 617 55 786 197 818 368 c 0
 822 388 824 407 824 426 c 0
 824 573 715 684 558 684 c 0
497 931 m 1
 571 931 l 1
 547 805 l 1
 473 805 l 1
 497 931 l 1
644 931 m 1
 718 931 l 1
 694 805 l 1
 620 805 l 1
 644 931 l 1
EndSplineSet
EndChar

StartChar: multiply
Encoding: 309 215 244
Width: 606
Flags: MW
HStem: 531 20G<205 205 605 605>
LayerCount: 2
Fore
SplineSet
410 299 m 1
 573 99 l 1
 512 48 l 1
 349 248 l 1
 112 48 l 1
 69 99 l 1
 306 299 l 1
 144 500 l 1
 205 551 l 1
 368 351 l 1
 605 551 l 1
 648 500 l 1
 410 299 l 1
EndSplineSet
EndChar

StartChar: Oslash
Encoding: 310 216 245
Width: 868
Flags: MW
HStem: -13 68<416.5 533.5 416.5 543.5> 684 68<469.5 587.5>
VStem: 106 75<274 309> 824 76<434 464.5>
LayerCount: 2
Fore
SplineSet
75 -42 m 1
 191 82 l 1
 135 137 106 212 106 297 c 0
 106 321 108 345 113 370 c 0
 153 584 353 752 570 752 c 0
 646 752 721 731 765 696 c 1
 882 821 l 1
 928 779 l 1
 814 656 l 1
 872 599 900 528 900 446 c 0
 900 422 898 398 893 372 c 0
 853 157 651 -13 436 -13 c 0
 363 -13 294 6 241 42 c 1
 124 -83 l 1
 75 -42 l 1
245 138 m 1
 714 641 l 1
 673 669 618 684 557 684 c 0
 382 684 220 545 187 366 c 0
 183 345 181 325 181 306 c 0
 181 242 203 186 245 138 c 1
761 600 m 1
 292 97 l 1
 343 67 387 55 446 55 c 0
 621 55 784 193 817 369 c 0
 821 391 824 413 824 433 c 0
 824 496 803 550 761 600 c 1
EndSplineSet
EndChar

StartChar: Ugrave
Encoding: 311 217 246
Width: 655
Flags: MW
HStem: -13 68<307 366.5> 719 20G<213 287 287 287 642 716 716 716>
VStem: 117 76<184 195.5>
LayerCount: 2
Fore
SplineSet
213 739 m 1
 287 739 l 1
 202 278 l 2
 197 249 193 222 193 199 c 0
 193 169 198 145 207 125 c 0
 227 82 277 55 337 55 c 0
 398 55 458 82 494 125 c 0
 523 160 545 211 557 278 c 2
 642 739 l 1
 716 739 l 1
 631 278 l 2
 613 183 587 127 541 78 c 0
 486 20 408 -13 325 -13 c 0
 243 -13 175 20 142 78 c 0
 125 108 117 140 117 182 c 0
 117 209 121 241 128 278 c 2
 213 739 l 1
389 958 m 1
 566 848 l 1
 523 792 l 1
 346 900 l 1
 389 958 l 1
EndSplineSet
EndChar

StartChar: Uacute
Encoding: 312 218 247
Width: 655
Flags: MW
HStem: -13 68<307 366.5> 719 20G<213 287 287 287 642 716 716 716>
VStem: 117 76<184 195.5>
LayerCount: 2
Fore
SplineSet
213 739 m 1
 287 739 l 1
 202 278 l 2
 197 249 193 222 193 199 c 0
 193 169 198 145 207 125 c 0
 227 82 277 55 337 55 c 0
 398 55 458 82 494 125 c 0
 523 160 545 211 557 278 c 2
 642 739 l 1
 716 739 l 1
 631 278 l 2
 613 183 587 127 541 78 c 0
 486 20 408 -13 325 -13 c 0
 243 -13 175 20 142 78 c 0
 125 108 117 140 117 182 c 0
 117 209 121 241 128 278 c 2
 213 739 l 1
404 848 m 1
 619 964 l 1
 642 906 l 1
 428 792 l 1
 404 848 l 1
EndSplineSet
EndChar

StartChar: Ucircumflex
Encoding: 313 219 248
Width: 655
Flags: MW
HStem: -13 68<307 366.5> 719 20G<213 287 287 287 642 716 716 716>
VStem: 117 76<184 195.5>
LayerCount: 2
Fore
SplineSet
213 739 m 1
 287 739 l 1
 202 278 l 2
 197 249 193 222 193 199 c 0
 193 169 198 145 207 125 c 0
 227 82 277 55 337 55 c 0
 398 55 458 82 494 125 c 0
 523 160 545 211 557 278 c 2
 642 739 l 1
 716 739 l 1
 631 278 l 2
 613 183 587 127 541 78 c 0
 486 20 408 -13 325 -13 c 0
 243 -13 175 20 142 78 c 0
 125 108 117 140 117 182 c 0
 117 209 121 241 128 278 c 2
 213 739 l 1
299 805 m 1
 468 931 l 1
 534 931 l 1
 653 805 l 1
 564 805 l 1
 492 879 l 1
 390 805 l 1
 299 805 l 1
EndSplineSet
EndChar

StartChar: Udieresis
Encoding: 314 220 249
Width: 655
Flags: MW
HStem: -13 68<307 366.5> 719 20G<213 287 287 287 642 716 716 716> 805 126<390 440 366 464 390 513 537 587>
VStem: 117 76<184 195.5>
LayerCount: 2
Fore
SplineSet
213 739 m 1
 287 739 l 1
 202 278 l 2
 197 249 193 222 193 199 c 0
 193 169 198 145 207 125 c 0
 227 82 277 55 337 55 c 0
 398 55 458 82 494 125 c 0
 523 160 545 211 557 278 c 2
 642 739 l 1
 716 739 l 1
 631 278 l 2
 613 183 587 127 541 78 c 0
 486 20 408 -13 325 -13 c 0
 243 -13 175 20 142 78 c 0
 125 108 117 140 117 182 c 0
 117 209 121 241 128 278 c 2
 213 739 l 1
390 931 m 1
 464 931 l 1
 440 805 l 1
 366 805 l 1
 390 931 l 1
537 931 m 1
 611 931 l 1
 587 805 l 1
 513 805 l 1
 537 931 l 1
EndSplineSet
EndChar

StartChar: Yacute
Encoding: 315 221 250
Width: 592
Flags: MW
HStem: 0 21G<258 258 258 332> 719 20G<139 221 221 221 646 727 727 727>
LayerCount: 2
Fore
SplineSet
258 0 m 1
 304 247 l 1
 139 739 l 1
 221 739 l 1
 354 325 l 1
 646 739 l 1
 727 739 l 1
 378 247 l 1
 332 0 l 1
 258 0 l 1
373 848 m 1
 588 964 l 1
 611 906 l 1
 397 792 l 1
 373 848 l 1
EndSplineSet
EndChar

StartChar: Thorn
Encoding: 316 222 251
Width: 592
Flags: MW
HStem: 0 21G<76 76 76 150> 166 67<193 323 181 330> 539 67<255 355 250 392> 719 20G<213 280 280 280>
VStem: 565 76<428.5 448.5>
LayerCount: 2
Fore
SplineSet
76 0 m 1
 213 739 l 1
 280 739 l 1
 255 606 l 1
 392 606 l 2
 487 606 541 595 582 567 c 0
 621 541 641 496 641 437 c 0
 641 420 640 401 636 382 c 0
 622 308 584 247 530 212 c 0
 479 179 423 166 323 166 c 2
 181 166 l 1
 150 0 l 1
 76 0 l 1
193 233 m 1
 330 233 l 2
 398 233 443 240 477 258 c 0
 520 279 550 325 561 383 c 0
 564 397 565 410 565 423 c 0
 565 474 544 509 504 523 c 0
 473 534 428 539 355 539 c 2
 250 539 l 1
 193 233 l 1
EndSplineSet
EndChar

StartChar: germandbls
Encoding: 317 223 252
Width: 554
Flags: MW
HStem: -13 68<294 364.5 294 376> 0 21G<59 59 59 133> 343 65<328 363 300 383> 684 68<367.5 425>
VStem: 488 77<238 264.5> 503 76<578.5 608>
LayerCount: 2
Fore
SplineSet
59 0 m 1x78
 148 481 l 2
 164 566 184 620 218 664 c 0
 259 718 329 752 402 752 c 0
 509 752 579 683 579 585 c 0x74
 579 572 578 558 575 544 c 0
 562 472 526 424 461 389 c 1
 530 366 565 316 565 245 c 0
 565 231 564 215 561 199 c 0
 538 77 435 -13 317 -13 c 0xb8
 231 -13 175 28 153 109 c 1
 133 0 l 1
 59 0 l 1x78
171 203 m 1
 222 203 l 1
 220 192 219 182 219 172 c 0
 219 102 261 55 327 55 c 0
 402 55 471 117 486 197 c 0
 488 208 488 218 488 228 c 0xb8
 488 301 433 343 333 343 c 0
 323 343 318 343 287 341 c 1
 300 408 l 1
 313 408 l 2
 413 408 485 462 501 548 c 0
 503 558 503 567 503 576 c 0
 503 640 459 684 391 684 c 0
 344 684 297 660 271 621 c 0
 248 587 235 552 222 481 c 2
 171 203 l 1
EndSplineSet
EndChar

StartChar: agrave
Encoding: 318 224 253
Width: 683
Flags: MW
HStem: -13 68<291.5 380.5> 0 21G<546 620 546 546> 492 68<361.5 474.5> 527 20G<647 721 721 721>
VStem: 87 77<181.5 225>
LayerCount: 2
Fore
SplineSet
721 547 m 1x18
 620 0 l 1
 546 0 l 1x58
 564 96 l 1
 492 18 427 -13 334 -13 c 0
 185 -13 87 81 87 216 c 0
 87 234 88 253 92 272 c 0
 122 436 270 560 434 560 c 0xa8
 529 560 588 527 629 450 c 1
 647 547 l 1
 721 547 l 1x18
420 492 m 0xa8
 303 492 190 395 168 275 c 0
 165 261 164 246 164 233 c 0
 164 130 238 55 345 55 c 0
 464 55 574 151 597 275 c 0
 600 290 601 304 601 318 c 0
 601 420 529 492 420 492 c 0xa8
379 776 m 1
 556 666 l 1
 513 610 l 1
 336 718 l 1
 379 776 l 1
EndSplineSet
EndChar

StartChar: aacute
Encoding: 319 225 254
Width: 683
Flags: MW
HStem: -13 68<291.5 380.5> 0 21G<546 620 546 546> 492 68<361.5 474.5> 527 20G<647 721 721 721>
VStem: 87 77<181.5 225>
LayerCount: 2
Fore
SplineSet
721 547 m 1x18
 620 0 l 1
 546 0 l 1x58
 564 96 l 1
 492 18 427 -13 334 -13 c 0
 185 -13 87 81 87 216 c 0
 87 234 88 253 92 272 c 0
 122 436 270 560 434 560 c 0xa8
 529 560 588 527 629 450 c 1
 647 547 l 1
 721 547 l 1x18
420 492 m 0xa8
 303 492 190 395 168 275 c 0
 165 261 164 246 164 233 c 0
 164 130 238 55 345 55 c 0
 464 55 574 151 597 275 c 0
 600 290 601 304 601 318 c 0
 601 420 529 492 420 492 c 0xa8
394 666 m 1
 609 782 l 1
 632 724 l 1
 418 610 l 1
 394 666 l 1
EndSplineSet
EndChar

StartChar: acircumflex
Encoding: 320 226 255
Width: 683
Flags: MW
HStem: -13 68<291.5 380.5> 0 21G<546 620 546 546> 492 68<361.5 474.5> 527 20G<647 721 721 721> 729 20G<458 524 524 524>
VStem: 87 77<181.5 225>
LayerCount: 2
Fore
SplineSet
721 547 m 1x1c
 620 0 l 1
 546 0 l 1x5c
 564 96 l 1
 492 18 427 -13 334 -13 c 0
 185 -13 87 81 87 216 c 0
 87 234 88 253 92 272 c 0
 122 436 270 560 434 560 c 0xac
 529 560 588 527 629 450 c 1
 647 547 l 1
 721 547 l 1x1c
420 492 m 0xac
 303 492 190 395 168 275 c 0
 165 261 164 246 164 233 c 0
 164 130 238 55 345 55 c 0
 464 55 574 151 597 275 c 0
 600 290 601 304 601 318 c 0
 601 420 529 492 420 492 c 0xac
289 623 m 1
 458 749 l 1
 524 749 l 1
 643 623 l 1
 554 623 l 1
 482 697 l 1
 380 623 l 1
 289 623 l 1
EndSplineSet
EndChar

StartChar: atilde
Encoding: 321 227 256
Width: 683
Flags: MW
HStem: -13 68<291.5 380.5> 0 21G<546 620 546 546> 492 68<361.5 474.5> 527 20G<647 721 721 721> 633 64<530.5 538.5> 665 63<416 427.5>
VStem: 87 77<181.5 225>
LayerCount: 2
Fore
SplineSet
721 547 m 1x12
 620 0 l 1
 546 0 l 1x52
 564 96 l 1
 492 18 427 -13 334 -13 c 0
 185 -13 87 81 87 216 c 0
 87 234 88 253 92 272 c 0
 122 436 270 560 434 560 c 0xa2
 529 560 588 527 629 450 c 1
 647 547 l 1
 721 547 l 1x12
420 492 m 0xa2
 303 492 190 395 168 275 c 0
 165 261 164 246 164 233 c 0
 164 130 238 55 345 55 c 0
 464 55 574 151 597 275 c 0
 600 290 601 304 601 318 c 0
 601 420 529 492 420 492 c 0xa2
598 728 m 1x06
 622 682 l 1
 601 656 555 633 522 633 c 0x0a
 507 633 491 639 460 655 c 0
 446 661 433 665 422 665 c 0x06
 403 665 394 661 364 639 c 2
 356 633 l 1x0a
 332 679 l 1
 361 710 398 728 434 728 c 0x06
 452 728 462 725 490 711 c 0
 506 704 526 697 535 697 c 0x0a
 554 697 573 706 598 728 c 1x06
EndSplineSet
EndChar

StartChar: adieresis
Encoding: 322 228 257
Width: 683
Flags: MW
HStem: -13 68<291.5 380.5> 0 21G<546 620 546 546> 492 68<361.5 474.5> 527 20G<647 721 721 721> 623 126<380 430 356 454 380 503 527 577>
VStem: 87 77<181.5 225>
LayerCount: 2
Fore
SplineSet
721 547 m 1x1c
 620 0 l 1
 546 0 l 1x5c
 564 96 l 1
 492 18 427 -13 334 -13 c 0
 185 -13 87 81 87 216 c 0
 87 234 88 253 92 272 c 0
 122 436 270 560 434 560 c 0xac
 529 560 588 527 629 450 c 1
 647 547 l 1
 721 547 l 1x1c
420 492 m 0xac
 303 492 190 395 168 275 c 0
 165 261 164 246 164 233 c 0
 164 130 238 55 345 55 c 0
 464 55 574 151 597 275 c 0
 600 290 601 304 601 318 c 0
 601 420 529 492 420 492 c 0xac
380 749 m 1
 454 749 l 1
 430 623 l 1
 356 623 l 1
 380 749 l 1
527 749 m 1
 601 749 l 1
 577 623 l 1
 503 623 l 1
 527 749 l 1
EndSplineSet
EndChar

StartChar: aring
Encoding: 323 229 258
Width: 683
Flags: MW
HStem: -13 68<291.5 380.5> 0 21G<546 620 546 546> 492 68<361.5 474.5> 527 20G<647 721 721 721> 610 41<459.5 486 459.5 489.5> 753 41<476.5 503>
VStem: 87 77<181.5 225> 387 42<680 687.5> 533 42<716.5 723>
LayerCount: 2
Fore
SplineSet
721 547 m 1x1f80
 620 0 l 1
 546 0 l 1x5f80
 564 96 l 1
 492 18 427 -13 334 -13 c 0
 185 -13 87 81 87 216 c 0
 87 234 88 253 92 272 c 0
 122 436 270 560 434 560 c 0xaf80
 529 560 588 527 629 450 c 1
 647 547 l 1
 721 547 l 1x1f80
420 492 m 0xaf80
 303 492 190 395 168 275 c 0
 165 261 164 246 164 233 c 0
 164 130 238 55 345 55 c 0
 464 55 574 151 597 275 c 0
 600 290 601 304 601 318 c 0
 601 420 529 492 420 492 c 0xaf80
499 794 m 0
 543 794 575 761 575 719 c 0
 575 714 574 708 573 702 c 0
 564 651 515 610 464 610 c 0
 419 610 387 643 387 685 c 0
 387 690 388 695 389 701 c 0
 399 753 447 794 499 794 c 0
490 753 m 0
 463 753 435 730 430 701 c 0
 429 698 429 695 429 692 c 0
 429 668 447 651 472 651 c 0
 500 651 527 674 532 701 c 0
 533 704 533 708 533 711 c 0
 533 735 516 753 490 753 c 0
EndSplineSet
EndChar

StartChar: ae
Encoding: 324 230 259
Width: 1157
Flags: MW
HStem: -13 68<289.5 374.5 796 891> 0 21G<548 619 548 548> 247 67<684 1104 684 1164 669 1104> 492 68<390.5 478 893.5 980.5> 527 20G<649 720 720 720>
VStem: 87 78<180 226> 1104 70<325 354 325 368>
LayerCount: 2
Fore
SplineSet
1164 247 m 1x36
 669 247 l 1
 668 240 668 234 668 228 c 0
 668 128 743 55 849 55 c 0
 933 55 1016 103 1061 178 c 1
 1138 178 l 1
 1079 64 958 -13 837 -13 c 0xb6
 750 -13 683 22 636 92 c 1
 619 0 l 1
 548 0 l 1x66
 565 92 l 1
 489 18 420 -13 329 -13 c 0
 184 -13 87 83 87 217 c 0
 87 235 88 253 92 272 c 0
 106 345 147 419 206 472 c 0
 270 530 347 560 434 560 c 0xb6
 530 560 592 526 632 452 c 1
 649 547 l 1
 720 547 l 1x2e
 703 452 l 1
 776 526 849 560 938 560 c 0
 1041 560 1121 509 1157 423 c 0
 1168 396 1174 370 1174 338 c 0
 1174 312 1171 283 1164 247 c 1x36
684 314 m 1
 1104 314 l 1
 1104 422 1034 492 927 492 c 0
 818 492 719 419 684 314 c 1
422 492 m 0
 301 492 192 397 169 274 c 0
 166 259 165 245 165 231 c 0
 165 129 236 55 343 55 c 0
 466 55 578 151 601 277 c 0
 604 292 606 307 606 321 c 0
 606 423 534 492 422 492 c 0
EndSplineSet
EndChar

StartChar: ccedilla
Encoding: 325 231 260
Width: 647
Flags: MW
HStem: -224 43<300 324.5 300 328> -84 33<318.5 367> -13 68<341 341> 492 68<364 465.5>
VStem: 88 76<181 229> 229 45<-151 -146> 366 44<-116 -111>
LayerCount: 2
Fore
SplineSet
341 -13 m 1
 313 -58 l 1
 328 -52 336 -51 347 -51 c 0
 387 -51 410 -75 410 -113 c 0
 410 -119 410 -125 409 -131 c 0
 399 -186 354 -224 302 -224 c 0
 257 -224 230 -198 229 -151 c 1
 274 -146 l 1
 276 -169 289 -181 311 -181 c 0
 338 -181 360 -162 365 -135 c 0
 366 -131 366 -127 366 -123 c 0
 366 -99 351 -84 327 -84 c 0
 310 -84 298 -90 281 -108 c 1
 254 -90 l 1
 304 -11 l 1
 172 3 88 96 88 220 c 0
 88 238 90 256 93 275 c 0
 122 434 275 560 439 560 c 0
 563 560 654 491 678 381 c 1
 595 381 l 1
 566 453 506 492 425 492 c 0
 303 492 191 396 168 273 c 0
 165 259 164 245 164 232 c 0
 164 130 238 55 347 55 c 0
 425 55 483 85 554 161 c 1
 638 161 l 1
 563 49 461 -11 341 -13 c 1
EndSplineSet
EndChar

StartChar: egrave
Encoding: 326 232 261
Width: 650
Flags: MW
HStem: -13 68<287 380.5 287 388.5> 249 67<177 596 177 657 162 596> 492 68<364 469>
VStem: 88 73<176 228 176 230> 596 71<316 349>
LayerCount: 2
Fore
SplineSet
657 249 m 1
 162 249 l 1
 161 241 161 232 161 224 c 0
 161 128 235 55 339 55 c 0
 422 55 508 105 553 180 c 1
 630 180 l 1
 569 65 448 -13 329 -13 c 0
 186 -13 88 86 88 221 c 0
 88 239 90 257 93 276 c 0
 122 435 271 560 429 560 c 0
 537 560 623 503 654 411 c 0
 662 386 667 363 667 335 c 0
 667 311 663 283 657 249 c 1
177 316 m 1
 596 316 l 1
 591 425 522 492 416 492 c 0
 312 492 216 421 177 316 c 1
358 776 m 1
 535 666 l 1
 492 610 l 1
 315 718 l 1
 358 776 l 1
EndSplineSet
EndChar

StartChar: eacute
Encoding: 327 233 262
Width: 650
Flags: MW
HStem: -13 68<287 380.5 287 388.5> 249 67<177 596 177 657 162 596> 492 68<364 469>
VStem: 88 73<176 228 176 230> 596 71<316 349>
LayerCount: 2
Fore
SplineSet
657 249 m 1
 162 249 l 1
 161 241 161 232 161 224 c 0
 161 128 235 55 339 55 c 0
 422 55 508 105 553 180 c 1
 630 180 l 1
 569 65 448 -13 329 -13 c 0
 186 -13 88 86 88 221 c 0
 88 239 90 257 93 276 c 0
 122 435 271 560 429 560 c 0
 537 560 623 503 654 411 c 0
 662 386 667 363 667 335 c 0
 667 311 663 283 657 249 c 1
177 316 m 1
 596 316 l 1
 591 425 522 492 416 492 c 0
 312 492 216 421 177 316 c 1
369 666 m 1
 584 782 l 1
 607 724 l 1
 393 610 l 1
 369 666 l 1
EndSplineSet
EndChar

StartChar: ecircumflex
Encoding: 328 234 263
Width: 650
Flags: MW
HStem: -13 68<287 380.5 287 388.5> 249 67<177 596 177 657 162 596> 492 68<364 469> 729 20G<437 503 503 503>
VStem: 88 73<176 228 176 230> 596 71<316 349>
LayerCount: 2
Fore
SplineSet
657 249 m 1
 162 249 l 1
 161 241 161 232 161 224 c 0
 161 128 235 55 339 55 c 0
 422 55 508 105 553 180 c 1
 630 180 l 1
 569 65 448 -13 329 -13 c 0
 186 -13 88 86 88 221 c 0
 88 239 90 257 93 276 c 0
 122 435 271 560 429 560 c 0
 537 560 623 503 654 411 c 0
 662 386 667 363 667 335 c 0
 667 311 663 283 657 249 c 1
177 316 m 1
 596 316 l 1
 591 425 522 492 416 492 c 0
 312 492 216 421 177 316 c 1
268 623 m 1
 437 749 l 1
 503 749 l 1
 622 623 l 1
 533 623 l 1
 461 697 l 1
 359 623 l 1
 268 623 l 1
EndSplineSet
EndChar

StartChar: edieresis
Encoding: 329 235 264
Width: 650
Flags: MW
HStem: -13 68<287 380.5 287 388.5> 249 67<177 596 177 657 162 596> 492 68<364 469> 623 126<358 408 334 432 358 481 505 555>
VStem: 88 73<176 228 176 230> 596 71<316 349>
LayerCount: 2
Fore
SplineSet
657 249 m 1
 162 249 l 1
 161 241 161 232 161 224 c 0
 161 128 235 55 339 55 c 0
 422 55 508 105 553 180 c 1
 630 180 l 1
 569 65 448 -13 329 -13 c 0
 186 -13 88 86 88 221 c 0
 88 239 90 257 93 276 c 0
 122 435 271 560 429 560 c 0
 537 560 623 503 654 411 c 0
 662 386 667 363 667 335 c 0
 667 311 663 283 657 249 c 1
177 316 m 1
 596 316 l 1
 591 425 522 492 416 492 c 0
 312 492 216 421 177 316 c 1
358 749 m 1
 432 749 l 1
 408 623 l 1
 334 623 l 1
 358 749 l 1
505 749 m 1
 579 749 l 1
 555 623 l 1
 481 623 l 1
 505 749 l 1
EndSplineSet
EndChar

StartChar: igrave
Encoding: 330 236 265
Width: 200
Flags: MW
HStem: 0 21G<63 63 63 137> 527 20G<164 238 238 238>
VStem: 63 275
LayerCount: 2
Fore
SplineSet
63 0 m 1
 164 547 l 1
 238 547 l 1
 137 0 l 1
 63 0 l 1
161 776 m 1
 338 666 l 1
 295 610 l 1
 118 718 l 1
 161 776 l 1
EndSplineSet
EndChar

StartChar: iacute
Encoding: 331 237 266
Width: 200
Flags: MW
HStem: 0 21G<63 63 63 137> 527 20G<164 238 238 238>
VStem: 63 285
LayerCount: 2
Fore
SplineSet
63 0 m 1
 164 547 l 1
 238 547 l 1
 137 0 l 1
 63 0 l 1
110 666 m 1
 325 782 l 1
 348 724 l 1
 134 610 l 1
 110 666 l 1
EndSplineSet
EndChar

StartChar: icircumflex
Encoding: 332 238 267
Width: 200
Flags: MW
HStem: 0 21G<63 63 63 137> 527 20G<164 238 238 238> 729 20G<207 273 273 273>
LayerCount: 2
Fore
SplineSet
63 0 m 1
 164 547 l 1
 238 547 l 1
 137 0 l 1
 63 0 l 1
38 623 m 1
 207 749 l 1
 273 749 l 1
 392 623 l 1
 303 623 l 1
 231 697 l 1
 129 623 l 1
 38 623 l 1
EndSplineSet
EndChar

StartChar: idieresis
Encoding: 333 239 268
Width: 200
Flags: MW
HStem: 0 21G<64 64 64 138> 527 20G<165 239 239 239> 623 126<129 179 105 203 129 252 276 326>
VStem: 64 286
LayerCount: 2
Fore
SplineSet
129 749 m 1
 203 749 l 1
 179 623 l 1
 105 623 l 1
 129 749 l 1
276 749 m 1
 350 749 l 1
 326 623 l 1
 252 623 l 1
 276 749 l 1
64 0 m 1
 165 547 l 1
 239 547 l 1
 138 0 l 1
 64 0 l 1
EndSplineSet
EndChar

StartChar: eth
Encoding: 334 240 269
Width: 655
Flags: MW
HStem: -13 68<288 403 288 414.5> 492 64<357 436 341 471> 736 20G<406 406>
VStem: 87 76<177 226> 593 79<337 370.5>
LayerCount: 2
Fore
SplineSet
348 727 m 1
 406 756 l 1
 432 735 443 724 464 701 c 1
 567 743 l 1
 598 699 l 1
 501 660 l 1
 535 625 570 582 604 537 c 0
 651 472 672 414 672 348 c 0
 672 326 670 303 665 279 c 0
 633 107 497 -13 332 -13 c 0
 184 -13 87 82 87 217 c 0
 87 235 89 254 93 274 c 0
 123 435 263 556 419 556 c 0
 453 556 472 552 512 538 c 1
 462 600 461 602 434 630 c 1
 340 591 l 1
 312 637 l 1
 398 672 l 1
 385 688 384 688 369 705 c 0
 361 712 355 719 348 727 c 1
417 492 m 0
 297 492 190 398 167 272 c 0
 164 257 163 242 163 228 c 0
 163 126 233 55 343 55 c 0
 463 55 564 144 588 271 c 0
 591 288 593 304 593 319 c 0
 593 422 525 492 417 492 c 0
EndSplineSet
EndChar

StartChar: ntilde
Encoding: 335 241 270
Width: 610
Flags: MW
HStem: 0 21G<63 63 63 137 473 473 473 547> 492 68<381 421.5> 527 20G<164 238 238 238> 633 64<477.5 485.5> 665 63<363 374.5>
VStem: 534 76<367 376.5>
LayerCount: 2
Fore
SplineSet
63 0 m 1xc4
 164 547 l 1
 238 547 l 1xa4
 225 476 l 1
 282 533 345 560 417 560 c 0
 494 560 554 530 587 475 c 0
 603 447 610 418 610 380 c 0
 610 354 607 324 600 287 c 2
 547 0 l 1
 473 0 l 1
 526 287 l 2
 531 316 534 340 534 361 c 0
 534 392 528 415 515 436 c 0
 492 472 448 492 395 492 c 0
 335 492 278 466 241 422 c 0
 216 392 204 360 193 301 c 2
 137 0 l 1
 63 0 l 1xc4
545 728 m 1x8c
 569 682 l 1
 548 656 502 633 469 633 c 0x94
 454 633 438 639 407 655 c 0
 393 661 380 665 369 665 c 0x8c
 350 665 341 661 311 639 c 2
 303 633 l 1x94
 279 679 l 1
 308 710 345 728 381 728 c 0x8c
 399 728 409 725 437 711 c 0
 453 704 473 697 482 697 c 0x94
 501 697 520 706 545 728 c 1x8c
EndSplineSet
EndChar

StartChar: ograve
Encoding: 336 242 271
Width: 655
Flags: MW
HStem: -13 68<287.5 402 287.5 412.5> 492 68<357 471>
VStem: 87 76<177 226> 593 76<321.5 370.5>
LayerCount: 2
Fore
SplineSet
436 560 m 0
 577 560 669 465 669 331 c 0
 669 312 667 292 663 272 c 0
 633 108 493 -13 332 -13 c 0
 185 -13 87 82 87 217 c 0
 87 235 89 254 93 273 c 0
 124 439 268 560 436 560 c 0
417 492 m 0
 297 492 190 398 167 272 c 0
 164 257 163 242 163 228 c 0
 163 126 233 55 342 55 c 0
 462 55 565 145 588 271 c 0
 591 288 593 304 593 319 c 0
 593 422 525 492 417 492 c 0
355 776 m 1
 532 666 l 1
 489 610 l 1
 312 718 l 1
 355 776 l 1
EndSplineSet
EndChar

StartChar: oacute
Encoding: 337 243 272
Width: 655
Flags: MW
HStem: -13 68<287.5 402 287.5 412.5> 492 68<357 471>
VStem: 87 76<177 226> 593 76<321.5 370.5>
LayerCount: 2
Fore
SplineSet
436 560 m 0
 577 560 669 465 669 331 c 0
 669 312 667 292 663 272 c 0
 633 108 493 -13 332 -13 c 0
 185 -13 87 82 87 217 c 0
 87 235 89 254 93 273 c 0
 124 439 268 560 436 560 c 0
417 492 m 0
 297 492 190 398 167 272 c 0
 164 257 163 242 163 228 c 0
 163 126 233 55 342 55 c 0
 462 55 565 145 588 271 c 0
 591 288 593 304 593 319 c 0
 593 422 525 492 417 492 c 0
370 666 m 1
 585 782 l 1
 608 724 l 1
 394 610 l 1
 370 666 l 1
EndSplineSet
EndChar

StartChar: ocircumflex
Encoding: 338 244 273
Width: 655
Flags: MW
HStem: -13 68<287.5 402 287.5 412.5> 492 68<357 471> 729 20G<434 500 500 500>
VStem: 87 76<177 226> 593 76<321.5 370.5>
LayerCount: 2
Fore
SplineSet
436 560 m 0
 577 560 669 465 669 331 c 0
 669 312 667 292 663 272 c 0
 633 108 493 -13 332 -13 c 0
 185 -13 87 82 87 217 c 0
 87 235 89 254 93 273 c 0
 124 439 268 560 436 560 c 0
417 492 m 0
 297 492 190 398 167 272 c 0
 164 257 163 242 163 228 c 0
 163 126 233 55 342 55 c 0
 462 55 565 145 588 271 c 0
 591 288 593 304 593 319 c 0
 593 422 525 492 417 492 c 0
265 623 m 1
 434 749 l 1
 500 749 l 1
 619 623 l 1
 530 623 l 1
 458 697 l 1
 356 623 l 1
 265 623 l 1
EndSplineSet
EndChar

StartChar: otilde
Encoding: 339 245 274
Width: 655
Flags: MW
HStem: -13 68<287.5 402 287.5 412.5> 492 68<357 471> 633 64<513.5 521.5> 665 63<399 410.5>
VStem: 87 76<177 226> 593 76<321.5 370.5>
LayerCount: 2
Fore
SplineSet
436 560 m 0xcc
 577 560 669 465 669 331 c 0
 669 312 667 292 663 272 c 0
 633 108 493 -13 332 -13 c 0
 185 -13 87 82 87 217 c 0
 87 235 89 254 93 273 c 0
 124 439 268 560 436 560 c 0xcc
417 492 m 0
 297 492 190 398 167 272 c 0
 164 257 163 242 163 228 c 0
 163 126 233 55 342 55 c 0
 462 55 565 145 588 271 c 0
 591 288 593 304 593 319 c 0
 593 422 525 492 417 492 c 0
581 728 m 1xdc
 605 682 l 1
 584 656 538 633 505 633 c 0xec
 490 633 474 639 443 655 c 0
 429 661 416 665 405 665 c 0xdc
 386 665 377 661 347 639 c 2
 339 633 l 1xec
 315 679 l 1
 344 710 381 728 417 728 c 0xdc
 435 728 445 725 473 711 c 0
 489 704 509 697 518 697 c 0xec
 537 697 556 706 581 728 c 1xdc
EndSplineSet
EndChar

StartChar: odieresis
Encoding: 340 246 275
Width: 655
Flags: MW
HStem: -13 68<287.5 402 287.5 412.5> 492 68<357 471> 623 126<356 406 332 430 356 479 503 553>
VStem: 87 76<177 226> 593 76<321.5 370.5>
LayerCount: 2
Fore
SplineSet
436 560 m 0
 577 560 669 465 669 331 c 0
 669 312 667 292 663 272 c 0
 633 108 493 -13 332 -13 c 0
 185 -13 87 82 87 217 c 0
 87 235 89 254 93 273 c 0
 124 439 268 560 436 560 c 0
417 492 m 0
 297 492 190 398 167 272 c 0
 164 257 163 242 163 228 c 0
 163 126 233 55 342 55 c 0
 462 55 565 145 588 271 c 0
 591 288 593 304 593 319 c 0
 593 422 525 492 417 492 c 0
356 749 m 1
 430 749 l 1
 406 623 l 1
 332 623 l 1
 356 749 l 1
503 749 m 1
 577 749 l 1
 553 623 l 1
 479 623 l 1
 503 749 l 1
EndSplineSet
EndChar

StartChar: divide
Encoding: 341 247 276
Width: 606
Flags: MW
HStem: 112 87<296 367 280 383> 267 74<114 604 100 618> 409 87<351 422 335 438>
CounterMasks: 1 e0
LayerCount: 2
Fore
SplineSet
422 409 m 1
 335 409 l 1
 351 496 l 1
 438 496 l 1
 422 409 l 1
367 112 m 1
 280 112 l 1
 296 199 l 1
 383 199 l 1
 367 112 l 1
618 341 m 1
 604 267 l 1
 100 267 l 1
 114 341 l 1
 618 341 l 1
EndSplineSet
EndChar

StartChar: oslash
Encoding: 342 248 277
Width: 653
Flags: MW
HStem: -13 68<313.5 396 313.5 409> 492 68<360 439>
VStem: 87 75<203 222> 593 76<330 348>
LayerCount: 2
Fore
SplineSet
73 1 m 1
 137 68 l 1
 102 119 87 162 87 213 c 0
 87 231 88 251 92 272 c 0
 122 432 272 560 432 560 c 0
 486 560 530 547 570 519 c 1
 641 594 l 1
 686 552 l 1
 617 478 l 1
 652 439 669 394 669 339 c 0
 669 321 667 301 663 281 c 0
 631 110 491 -13 327 -13 c 0
 271 -13 233 -2 183 28 c 1
 119 -39 l 1
 73 1 l 1
188 121 m 1
 521 468 l 1
 492 484 458 492 420 492 c 0
 300 492 190 394 166 266 c 0
 163 250 162 234 162 220 c 0
 162 186 170 156 188 121 c 1
566 426 m 1
 233 79 l 1
 270 61 294 55 333 55 c 0
 459 55 563 147 588 280 c 0
 591 298 593 314 593 330 c 0
 593 366 584 396 566 426 c 1
EndSplineSet
EndChar

StartChar: ugrave
Encoding: 343 249 278
Width: 608
Flags: MW
HStem: -13 68<280.5 335.5> 0 21G<471 545 471 471> 527 20G<164 238 238 238 572 646 646 646>
VStem: 100 76<168.5 176>
LayerCount: 2
Fore
SplineSet
646 547 m 1xb0
 545 0 l 1
 471 0 l 1x70
 487 85 l 1
 437 17 378 -13 293 -13 c 0
 208 -13 147 19 118 79 c 0
 106 102 100 129 100 163 c 0
 100 189 104 218 110 252 c 2
 164 547 l 1
 238 547 l 1
 184 252 l 2
 179 226 176 202 176 181 c 0
 176 156 180 136 187 120 c 0
 205 79 251 55 310 55 c 0
 368 55 422 79 461 123 c 0
 490 157 508 199 520 266 c 2
 572 547 l 1
 646 547 l 1xb0
332 776 m 1
 509 666 l 1
 466 610 l 1
 289 718 l 1
 332 776 l 1
EndSplineSet
EndChar

StartChar: uacute
Encoding: 344 250 279
Width: 608
Flags: MW
HStem: -13 68<280.5 335.5> 0 21G<471 545 471 471> 527 20G<164 238 238 238 572 646 646 646>
VStem: 100 76<168.5 176>
LayerCount: 2
Fore
SplineSet
646 547 m 1xb0
 545 0 l 1
 471 0 l 1x70
 487 85 l 1
 437 17 378 -13 293 -13 c 0
 208 -13 147 19 118 79 c 0
 106 102 100 129 100 163 c 0
 100 189 104 218 110 252 c 2
 164 547 l 1
 238 547 l 1
 184 252 l 2
 179 226 176 202 176 181 c 0
 176 156 180 136 187 120 c 0
 205 79 251 55 310 55 c 0
 368 55 422 79 461 123 c 0
 490 157 508 199 520 266 c 2
 572 547 l 1
 646 547 l 1xb0
347 666 m 1
 562 782 l 1
 585 724 l 1
 371 610 l 1
 347 666 l 1
EndSplineSet
EndChar

StartChar: ucircumflex
Encoding: 345 251 280
Width: 608
Flags: MW
HStem: -13 68<280.5 335.5> 0 21G<471 545 471 471> 527 20G<164 238 238 238 572 646 646 646> 729 20G<411 477 477 477>
VStem: 100 76<168.5 176>
LayerCount: 2
Fore
SplineSet
646 547 m 1xb8
 545 0 l 1
 471 0 l 1x78
 487 85 l 1
 437 17 378 -13 293 -13 c 0
 208 -13 147 19 118 79 c 0
 106 102 100 129 100 163 c 0
 100 189 104 218 110 252 c 2
 164 547 l 1
 238 547 l 1
 184 252 l 2
 179 226 176 202 176 181 c 0
 176 156 180 136 187 120 c 0
 205 79 251 55 310 55 c 0
 368 55 422 79 461 123 c 0
 490 157 508 199 520 266 c 2
 572 547 l 1
 646 547 l 1xb8
242 623 m 1
 411 749 l 1
 477 749 l 1
 596 623 l 1
 507 623 l 1
 435 697 l 1
 333 623 l 1
 242 623 l 1
EndSplineSet
EndChar

StartChar: udieresis
Encoding: 346 252 281
Width: 608
Flags: MW
HStem: -13 68<280.5 335.5> 0 21G<471 545 471 471> 527 20G<164 238 238 238 572 646 646 646> 623 126<333 383 309 407 333 456 480 530>
VStem: 100 76<168.5 176>
LayerCount: 2
Fore
SplineSet
646 547 m 1xb8
 545 0 l 1
 471 0 l 1x78
 487 85 l 1
 437 17 378 -13 293 -13 c 0
 208 -13 147 19 118 79 c 0
 106 102 100 129 100 163 c 0
 100 189 104 218 110 252 c 2
 164 547 l 1
 238 547 l 1
 184 252 l 2
 179 226 176 202 176 181 c 0
 176 156 180 136 187 120 c 0
 205 79 251 55 310 55 c 0
 368 55 422 79 461 123 c 0
 490 157 508 199 520 266 c 2
 572 547 l 1
 646 547 l 1xb8
333 749 m 1
 407 749 l 1
 383 623 l 1
 309 623 l 1
 333 749 l 1
480 749 m 1
 554 749 l 1
 530 623 l 1
 456 623 l 1
 480 749 l 1
EndSplineSet
EndChar

StartChar: yacute
Encoding: 347 253 282
Width: 536
Flags: MW
HStem: -192 21G<96 96 96 175> 527 20G<110 191 191 191 549 628 628 628>
LayerCount: 2
Fore
SplineSet
96 -192 m 1
 224 18 l 1
 110 547 l 1
 191 547 l 1
 284 111 l 1
 549 547 l 1
 628 547 l 1
 175 -192 l 1
 96 -192 l 1
318 666 m 1
 533 782 l 1
 556 724 l 1
 342 610 l 1
 318 666 l 1
EndSplineSet
EndChar

StartChar: thorn
Encoding: 348 254 283
Width: 682
Flags: MW
HStem: -192 21G<27 101 27 27> -13 68<305 420.5 305 430> 492 68<409 492.5> 719 20G<200 274 274 274>
VStem: 620 76<320 369>
LayerCount: 2
Fore
SplineSet
200 739 m 1
 274 739 l 1
 221 453 l 1
 280 523 362 560 456 560 c 0
 600 560 696 464 696 329 c 0
 696 311 695 292 691 273 c 0
 661 112 512 -13 348 -13 c 0
 257 -13 189 24 154 94 c 1
 101 -192 l 1
 27 -192 l 1
 200 739 l 1
437 492 m 0
 317 492 206 396 183 273 c 0
 180 258 179 245 179 231 c 0
 179 129 251 55 359 55 c 0
 482 55 592 148 615 271 c 0
 618 287 620 302 620 317 c 0
 620 421 548 492 437 492 c 0
EndSplineSet
EndChar

StartChar: ydieresis
Encoding: 349 255 284
Width: 536
Flags: MW
HStem: -192 21G<96 96 96 175> 527 20G<110 191 191 191 549 628 628 628> 623 126<294 344 270 368 294 417 441 491>
LayerCount: 2
Fore
SplineSet
96 -192 m 1
 224 18 l 1
 110 547 l 1
 191 547 l 1
 284 111 l 1
 549 547 l 1
 628 547 l 1
 175 -192 l 1
 96 -192 l 1
294 749 m 1
 368 749 l 1
 344 623 l 1
 270 623 l 1
 294 749 l 1
441 749 m 1
 515 749 l 1
 491 623 l 1
 417 623 l 1
 441 749 l 1
EndSplineSet
EndChar

StartChar: dotlessi
Encoding: 350 305 285
Width: 200
Flags: MW
HStem: 0 21G<63 63 63 137> 527 20G<164 238 238 238>
VStem: 63 175
LayerCount: 2
Fore
SplineSet
63 0 m 1
 164 547 l 1
 238 547 l 1
 137 0 l 1
 63 0 l 1
EndSplineSet
EndChar

StartChar: Lslash
Encoding: 351 321 286
Width: 517
Flags: MW
HStem: 0 67<208 502> 719 20G<259 333 333 333>
LayerCount: 2
Fore
SplineSet
122 0 m 1
 178 303 l 1
 68 224 l 1
 83 307 l 1
 194 387 l 1
 259 739 l 1
 333 739 l 1
 277 436 l 1
 461 569 l 1
 446 485 l 1
 261 353 l 1
 208 67 l 1
 514 67 l 1
 502 0 l 1
 122 0 l 1
EndSplineSet
EndChar

StartChar: lslash
Encoding: 352 322 287
Width: 300
Flags: MW
HStem: 0 21G<114 114 114 188> 719 20G<251 325 325 325>
VStem: 90 274<293 506>
LayerCount: 2
Fore
SplineSet
114 0 m 1
 178 346 l 1
 90 293 l 1
 104 365 l 1
 191 418 l 1
 251 739 l 1
 325 739 l 1
 272 451 l 1
 364 506 l 1
 350 433 l 1
 258 379 l 1
 188 0 l 1
 114 0 l 1
EndSplineSet
EndChar

StartChar: OE
Encoding: 353 338 288
Width: 1194
Flags: MW
HStem: -13 68<368 510.5> 0 67<831 1138> 340 67<894 1190 882 1202> 672 67<944 1263 944 944> 684 68<466 636.5>
VStem: 106 76<236 308>
LayerCount: 2
Fore
SplineSet
882 739 m 1x34
 1275 739 l 1
 1263 672 l 1
 944 672 l 1
 894 407 l 1
 1202 407 l 1
 1190 340 l 1
 882 340 l 1
 831 67 l 1
 1150 67 l 1
 1138 0 l 1
 745 0 l 1x74
 773 151 l 1
 692 44 578 -13 443 -13 c 0
 239 -13 106 114 106 296 c 0
 106 320 108 345 113 371 c 0
 153 589 349 752 571 752 c 0xac
 710 752 812 695 855 592 c 1
 882 739 l 1x34
554 684 m 0xac
 378 684 221 550 188 371 c 0
 184 350 182 330 182 310 c 0
 182 162 288 55 448 55 c 0
 626 55 781 188 815 371 c 0
 819 394 821 416 821 437 c 0
 821 585 719 684 554 684 c 0xac
EndSplineSet
EndChar

StartChar: oe
Encoding: 354 339 289
Width: 1137
Flags: MW
HStem: -13 68<288 382 800.5 859.5> 248 67<666 1085 666 1142 654 1085> 492 68<355.5 468 866 960.5>
VStem: 88 76<179.5 228> 1085 71<329.5 368>
LayerCount: 2
Fore
SplineSet
1142 248 m 1
 654 248 l 1
 653 238 652 228 652 219 c 0
 652 185 661 159 681 130 c 0
 716 80 767 55 834 55 c 0
 920 55 990 96 1045 179 c 1
 1119 179 l 1
 1096 129 1059 85 1007 47 c 0
 953 7 893 -13 826 -13 c 0
 711 -13 625 43 597 138 c 1
 518 33 435 -13 329 -13 c 0
 184 -13 88 85 88 219 c 0
 88 237 89 255 93 274 c 0
 123 436 269 560 428 560 c 0
 536 560 606 513 648 414 c 1
 723 512 812 560 920 560 c 0
 1062 560 1156 467 1156 338 c 0
 1156 321 1154 304 1151 286 c 0
 1150 278 1146 265 1142 248 c 1
666 315 m 1
 1085 315 l 1
 1085 421 1015 492 906 492 c 0
 804 492 713 425 666 315 c 1
414 492 m 0
 297 492 191 398 168 273 c 0
 165 258 164 244 164 230 c 0
 164 129 235 55 341 55 c 0
 458 55 564 150 587 275 c 0
 590 291 591 306 591 320 c 0
 591 421 522 492 414 492 c 0
EndSplineSet
EndChar

StartChar: Scaron
Encoding: 355 352 290
Width: 498
Flags: MW
HStem: -13 68<242 307.5 242 315> 552 21G<483 560 483 483> 684 68<339 410>
VStem: 58 80<164.5 176> 145 77<519.5 522> 441 77<240.5 247> 485 79<585 607.5>
LayerCount: 2
Fore
SplineSet
60 207 m 1xfc
 139 207 l 1
 138 197 138 188 138 180 c 0
 138 149 144 128 158 107 c 0
 179 74 219 55 265 55 c 0
 350 55 422 117 438 202 c 0
 440 212 441 222 441 231 c 0xfc
 441 263 430 290 408 308 c 0
 386 325 357 339 302 356 c 0
 220 383 200 394 176 422 c 0
 155 445 145 479 145 516 c 0
 145 528 146 540 148 553 c 0
 170 669 271 752 390 752 c 0
 497 752 564 689 564 591 c 0
 564 579 562 566 560 552 c 1
 483 552 l 1
 484 560 485 567 485 574 c 0xfa
 485 641 444 684 376 684 c 0
 302 684 238 630 224 555 c 0
 223 547 222 540 222 532 c 0
 222 507 230 484 243 469 c 0
 260 452 280 443 343 423 c 0
 415 400 443 386 470 364 c 0
 501 337 518 295 518 247 c 0
 518 234 517 220 514 206 c 0
 491 80 379 -13 251 -13 c 0
 131 -13 58 58 58 170 c 0
 58 182 58 194 60 207 c 1xfc
609 931 m 1
 440 805 l 1
 374 805 l 1
 255 931 l 1
 344 931 l 1
 416 857 l 1
 518 931 l 1
 609 931 l 1
EndSplineSet
EndChar

StartChar: scaron
Encoding: 356 353 291
Width: 388
Flags: MW
HStem: -13 68<177.5 232 177.5 242.5> 492 68<262 305.5> 729 20G<156 245 245 245 419 510 510 510>
VStem: 45 75<112 129> 112 77<364 400.5> 317 77<185.5 189.5> 350 76<434.5 448>
LayerCount: 2
Fore
SplineSet
49 161 m 1xf4
 122 161 l 1
 121 153 120 146 120 139 c 0
 120 85 150 55 205 55 c 0
 259 55 305 95 315 150 c 0
 317 158 317 165 317 172 c 0xf4
 317 207 295 226 228 255 c 0
 157 287 156 287 137 308 c 0
 120 327 112 350 112 378 c 0
 112 387 112 396 114 406 c 0
 130 495 208 560 298 560 c 0
 377 560 426 512 426 439 c 0
 426 430 425 421 424 412 c 1
 349 412 l 1
 350 417 350 422 350 427 c 0
 350 469 327 492 284 492 c 0
 240 492 199 457 191 413 c 0
 190 408 189 403 189 398 c 0xea
 189 374 202 355 228 340 c 0
 243 333 246 331 322 297 c 0
 371 275 394 240 394 191 c 0
 394 180 393 169 391 157 c 0
 372 57 292 -13 193 -13 c 0
 100 -13 45 39 45 123 c 0
 45 135 47 148 49 161 c 1xf4
510 749 m 1
 341 623 l 1
 275 623 l 1
 156 749 l 1
 245 749 l 1
 317 675 l 1
 419 749 l 1
 510 749 l 1
EndSplineSet
EndChar

StartChar: Ydieresis
Encoding: 357 376 292
Width: 592
Flags: MW
HStem: 0 21G<258 258 258 332> 719 20G<139 221 221 221 646 727 727 727> 805 126<359 409 335 433 359 482 506 556>
LayerCount: 2
Fore
SplineSet
258 0 m 1
 304 247 l 1
 139 739 l 1
 221 739 l 1
 354 325 l 1
 646 739 l 1
 727 739 l 1
 378 247 l 1
 332 0 l 1
 258 0 l 1
359 931 m 1
 433 931 l 1
 409 805 l 1
 335 805 l 1
 359 931 l 1
506 931 m 1
 580 931 l 1
 556 805 l 1
 482 805 l 1
 506 931 l 1
EndSplineSet
EndChar

StartChar: Zcaron
Encoding: 358 381 293
Width: 480
Flags: MW
HStem: 0 67<17 29 29 29 113 474> 672 67<165 505 153 600 588 588>
LayerCount: 2
Fore
SplineSet
17 0 m 1
 29 67 l 1
 505 672 l 1
 153 672 l 1
 165 739 l 1
 600 739 l 1
 588 672 l 1
 113 67 l 1
 486 67 l 1
 474 0 l 1
 17 0 l 1
599 931 m 1
 430 805 l 1
 364 805 l 1
 245 931 l 1
 334 931 l 1
 406 857 l 1
 508 931 l 1
 599 931 l 1
EndSplineSet
EndChar

StartChar: zcaron
Encoding: 359 382 294
Width: 425
Flags: MW
HStem: 0 67<10 22 22 22 109 415> 480 67<121 401 109 497> 729 20G<174 263 263 263 437 528 528 528>
LayerCount: 2
Fore
SplineSet
10 0 m 1
 22 67 l 1
 401 480 l 1
 109 480 l 1
 121 547 l 1
 497 547 l 1
 486 484 l 1
 109 67 l 1
 427 67 l 1
 415 0 l 1
 10 0 l 1
528 749 m 1
 359 623 l 1
 293 623 l 1
 174 749 l 1
 263 749 l 1
 335 675 l 1
 437 749 l 1
 528 749 l 1
EndSplineSet
EndChar

StartChar: florin
Encoding: 360 402 295
Width: 554
Flags: MW
HStem: -153 67<55 77> 517 67<319 407 294 430 500 588 319 476> 751 67<649 656>
LayerCount: 2
Fore
SplineSet
500 584 m 1
 612 584 l 1
 588 517 l 1
 476 517 l 1
 316 86 l 2
 272 -31 251 -68 202 -104 c 0
 159 -136 106 -153 48 -153 c 0
 23 -153 8 -151 -9 -146 c 1
 15 -82 l 1
 35 -85 48 -86 62 -86 c 0
 156 -86 195 -48 248 92 c 2
 407 517 l 1
 294 517 l 1
 319 584 l 1
 430 584 l 1
 439 607 l 2
 468 684 500 733 542 768 c 0
 580 799 629 818 669 818 c 0
 677 818 683 817 697 815 c 1
 674 749 l 1
 664 750 659 751 653 751 c 0
 593 751 546 703 509 607 c 2
 500 584 l 1
EndSplineSet
EndChar

StartChar: uni0237
Encoding: 361 567 296
Width: 203
Flags: MW
HStem: -192 71<-81 -67> 527 20G<167 241 241 241>
VStem: -81 322
LayerCount: 2
Fore
SplineSet
241 547 m 1
 147 38 l 2
 127 -72 100 -118 36 -158 c 0
 0 -180 -35 -190 -81 -192 c 1
 -67 -121 l 1
 17 -116 52 -76 73 38 c 2
 167 547 l 1
 241 547 l 1
EndSplineSet
EndChar

StartChar: circumflex
Encoding: 362 710 297
Width: 502
Flags: MW
HStem: 623 126<189 424 358 454 358 543>
LayerCount: 2
Fore
SplineSet
189 623 m 1
 358 749 l 1
 424 749 l 1
 543 623 l 1
 454 623 l 1
 382 697 l 1
 280 623 l 1
 189 623 l 1
EndSplineSet
EndChar

StartChar: caron
Encoding: 363 711 298
Width: 502
Flags: MW
HStem: 623 126<213 398 213 332>
LayerCount: 2
Fore
SplineSet
567 749 m 1
 398 623 l 1
 332 623 l 1
 213 749 l 1
 302 749 l 1
 374 675 l 1
 476 749 l 1
 567 749 l 1
EndSplineSet
EndChar

StartChar: breve
Encoding: 364 728 299
Width: 453
Flags: MW
HStem: 623 58<341 361.5> 723 20G<212 276 276 276 452 516 516 516>
VStem: 212 64<730.5 743 730.5 743>
LayerCount: 2
Fore
SplineSet
212 743 m 1
 276 743 l 1
 276 718 280 707 293 697 c 0
 308 687 330 681 352 681 c 0
 374 681 398 687 417 697 c 0
 434 707 443 718 452 743 c 1
 516 743 l 1
 498 693 480 670 447 650 c 0
 418 632 382 623 341 623 c 0
 252 623 212 660 212 743 c 1
EndSplineSet
Substitution2: "'ss02' Style Set 2 lookup 15 subtable" breve.cyrlc
Substitution2: "'ss01' Style Set 1 in Latin lookup 14 subtable" breve.cyrlc
Substitution2: "'ss01' Style Set 1 in Cyrillic lookup 13 subtable" breve.cyrlc
Substitution2: "'ss01' Style Set 1 lookup 12 subtable" breve.cyrlc
Substitution2: "'salt' Stylistic Alternatives lookup 10 subtable" breve.cyrlc
Substitution2: "'locl' Localized Forms in Cyrillic lookup 4 subtable" breve.cyrlc
Substitution2: "'locl' Localized Forms in Cyrillic lookup 2 subtable" breve.cyrlc
Substitution2: "'aalt' Access All Alternates lookup 0 subtable" breve.cyrlc
EndChar

StartChar: dotaccent
Encoding: 365 729 300
Width: 222
Flags: MW
HStem: 623 126<213 263 189 286>
VStem: 189 97
LayerCount: 2
Fore
SplineSet
213 749 m 1
 286 749 l 1
 263 623 l 1
 189 623 l 1
 213 749 l 1
EndSplineSet
EndChar

StartChar: ring
Encoding: 366 730 301
Width: 332
Flags: MW
HStem: 610 41<274.5 301 274.5 304.5> 753 41<291.5 318>
VStem: 202 42<680 687.5> 348 42<716.5 723>
LayerCount: 2
Fore
SplineSet
314 794 m 0
 358 794 390 761 390 719 c 0
 390 714 389 708 388 702 c 0
 379 651 330 610 279 610 c 0
 234 610 202 643 202 685 c 0
 202 690 203 695 204 701 c 0
 214 753 262 794 314 794 c 0
305 753 m 0
 278 753 250 730 245 701 c 0
 244 698 244 695 244 692 c 0
 244 668 262 651 287 651 c 0
 315 651 342 674 347 701 c 0
 348 704 348 708 348 711 c 0
 348 735 331 753 305 753 c 0
EndSplineSet
EndChar

StartChar: ogonek
Encoding: 367 731 302
Width: 302
Flags: MW
HStem: -191 45<140.5 151> -20 20G<146 197 197 197>
VStem: 54 51<-118 -114.5>
LayerCount: 2
Fore
SplineSet
146 0 m 1
 197 0 l 1
 147 -31 111 -70 106 -98 c 0
 105 -101 105 -103 105 -106 c 0
 105 -130 125 -146 156 -146 c 0
 172 -146 187 -143 203 -136 c 1
 194 -182 l 1
 173 -188 159 -191 143 -191 c 0
 89 -191 54 -160 54 -117 c 0
 54 -112 54 -107 55 -101 c 0
 62 -61 90 -30 146 0 c 1
EndSplineSet
EndChar

StartChar: tilde
Encoding: 368 732 303
Width: 439
Flags: MW
HStem: 633 64<399.5 407.5> 665 63<285 296.5>
VStem: 201 290<679 682>
LayerCount: 2
Fore
SplineSet
467 728 m 1x60
 491 682 l 1
 470 656 424 633 391 633 c 0xa0
 376 633 360 639 329 655 c 0
 315 661 302 665 291 665 c 0x60
 272 665 263 661 233 639 c 2
 225 633 l 1xa0
 201 679 l 1
 230 710 267 728 303 728 c 0x60
 321 728 331 725 359 711 c 0
 375 704 395 697 404 697 c 0xa0
 423 697 442 706 467 728 c 1x60
EndSplineSet
EndChar

StartChar: hungarumlaut
Encoding: 369 733 304
Width: 552
Flags: MW
HStem: 610 170<222 390 390 418>
LayerCount: 2
Fore
SplineSet
196 657 m 1
 390 780 l 1
 418 731 l 1
 222 610 l 1
 196 657 l 1
392 657 m 1
 586 780 l 1
 614 731 l 1
 418 610 l 1
 392 657 l 1
EndSplineSet
EndChar

StartChar: gravecomb
Encoding: 370 768 305
Width: 0
Flags: MW
HStem: 610 166<-300 -166>
VStem: -343 220<666 718>
LayerCount: 2
Fore
SplineSet
-300 776 m 1
 -123 666 l 1
 -166 610 l 1
 -343 718 l 1
 -300 776 l 1
EndSplineSet
EndChar

StartChar: acutecomb
Encoding: 371 769 306
Width: 0
Flags: MW
HStem: 610 172
VStem: -285 238<666 724>
LayerCount: 2
Fore
SplineSet
-285 666 m 1
 -70 782 l 1
 -47 724 l 1
 -261 610 l 1
 -285 666 l 1
EndSplineSet
EndChar

StartChar: uni0302
Encoding: 372 770 307
Width: 0
Flags: MW
HStem: 623 126<-390 -155 -221 -125 -221 -36>
LayerCount: 2
Fore
SplineSet
-390 623 m 1
 -221 749 l 1
 -155 749 l 1
 -36 623 l 1
 -125 623 l 1
 -197 697 l 1
 -299 623 l 1
 -390 623 l 1
EndSplineSet
EndChar

StartChar: tildecomb
Encoding: 373 771 308
Width: 0
Flags: MW
HStem: 633 64<-141.5 -133.5> 665 63<-256 -244.5>
VStem: -340 290<679 682>
LayerCount: 2
Fore
SplineSet
-74 728 m 1x60
 -50 682 l 1
 -71 656 -117 633 -150 633 c 0xa0
 -165 633 -181 639 -212 655 c 0
 -226 661 -239 665 -250 665 c 0x60
 -269 665 -278 661 -308 639 c 2
 -316 633 l 1xa0
 -340 679 l 1
 -311 710 -274 728 -238 728 c 0x60
 -220 728 -210 725 -182 711 c 0
 -166 704 -146 697 -137 697 c 0xa0
 -118 697 -99 706 -74 728 c 1x60
EndSplineSet
EndChar

StartChar: uni0304
Encoding: 374 772 309
Width: 0
Flags: MW
HStem: 643 64<-365 -40 -377 -28>
LayerCount: 2
Fore
SplineSet
-365 707 m 1
 -28 707 l 1
 -40 643 l 1
 -377 643 l 1
 -365 707 l 1
EndSplineSet
EndChar

StartChar: uni0306
Encoding: 375 774 310
Width: 0
Flags: MW
HStem: 623 58<-212 -191.5> 723 20G<-341 -277 -277 -277 -101 -37 -37 -37>
VStem: -341 64<730.5 743 730.5 743>
LayerCount: 2
Fore
SplineSet
-341 743 m 1
 -277 743 l 1
 -277 718 -273 707 -260 697 c 0
 -245 687 -223 681 -201 681 c 0
 -179 681 -155 687 -136 697 c 0
 -119 707 -110 718 -101 743 c 1
 -37 743 l 1
 -55 693 -73 670 -106 650 c 0
 -135 632 -171 623 -212 623 c 0
 -301 623 -341 660 -341 743 c 1
EndSplineSet
Substitution2: "'ss02' Style Set 2 lookup 15 subtable" uni0306.cyr
Substitution2: "'ss01' Style Set 1 in Latin lookup 14 subtable" uni0306.cyr
Substitution2: "'ss01' Style Set 1 in Cyrillic lookup 13 subtable" uni0306.cyr
Substitution2: "'ss01' Style Set 1 lookup 12 subtable" uni0306.cyr
Substitution2: "'salt' Stylistic Alternatives lookup 10 subtable" uni0306.cyr
Substitution2: "'locl' Localized Forms in Cyrillic lookup 4 subtable" uni0306.cyr
Substitution2: "'locl' Localized Forms in Cyrillic lookup 2 subtable" uni0306.cyr
Substitution2: "'aalt' Access All Alternates lookup 0 subtable" uni0306.cyr
EndChar

StartChar: uni0307
Encoding: 376 775 311
Width: 0
Flags: MW
HStem: 623 126<-225 -175 -249 -152>
VStem: -249 97
LayerCount: 2
Fore
SplineSet
-225 749 m 1
 -152 749 l 1
 -175 623 l 1
 -249 623 l 1
 -225 749 l 1
EndSplineSet
EndChar

StartChar: uni0308
Encoding: 377 776 312
Width: 0
Flags: MW
HStem: 623 126<-299 -249 -323 -225 -299 -176 -152 -102>
VStem: -323 245<623 749>
LayerCount: 2
Fore
SplineSet
-299 749 m 1
 -225 749 l 1
 -249 623 l 1
 -323 623 l 1
 -299 749 l 1
-152 749 m 1
 -78 749 l 1
 -102 623 l 1
 -176 623 l 1
 -152 749 l 1
EndSplineSet
EndChar

StartChar: uni030A
Encoding: 378 778 313
Width: 0
Flags: MW
HStem: 610 41<-218.5 -192 -218.5 -188.5> 753 41<-201.5 -175>
VStem: -291 42<680 687.5> -145 42<716.5 723>
LayerCount: 2
Fore
SplineSet
-179 794 m 0
 -135 794 -103 761 -103 719 c 0
 -103 714 -104 708 -105 702 c 0
 -114 651 -163 610 -214 610 c 0
 -259 610 -291 643 -291 685 c 0
 -291 690 -290 695 -289 701 c 0
 -279 753 -231 794 -179 794 c 0
-188 753 m 0
 -215 753 -243 730 -248 701 c 0
 -249 698 -249 695 -249 692 c 0
 -249 668 -231 651 -206 651 c 0
 -178 651 -151 674 -146 701 c 0
 -145 704 -145 708 -145 711 c 0
 -145 735 -162 753 -188 753 c 0
EndSplineSet
EndChar

StartChar: uni030B
Encoding: 379 779 314
Width: 0
Flags: MW
HStem: 610 170<-369 -201 -201 -173>
LayerCount: 2
Fore
SplineSet
-395 657 m 1
 -201 780 l 1
 -173 731 l 1
 -369 610 l 1
 -395 657 l 1
-199 657 m 1
 -5 780 l 1
 23 731 l 1
 -173 610 l 1
 -199 657 l 1
EndSplineSet
EndChar

StartChar: uni030C
Encoding: 380 780 315
Width: 0
Flags: MW
HStem: 623 126<-366 -181 -366 -247>
LayerCount: 2
Fore
SplineSet
-12 749 m 1
 -181 623 l 1
 -247 623 l 1
 -366 749 l 1
 -277 749 l 1
 -205 675 l 1
 -103 749 l 1
 -12 749 l 1
EndSplineSet
EndChar

StartChar: uni0400
Encoding: 381 1024 316
Width: 536
Flags: MW
HStem: 0 67<162 480> 340 67<225 532 213 544> 672 67<275 605 275 275>
LayerCount: 2
Fore
SplineSet
76 0 m 1
 213 739 l 1
 617 739 l 1
 605 672 l 1
 275 672 l 1
 225 407 l 1
 544 407 l 1
 532 340 l 1
 213 340 l 1
 162 67 l 1
 492 67 l 1
 480 0 l 1
 76 0 l 1
340 958 m 1
 517 848 l 1
 474 792 l 1
 297 900 l 1
 340 958 l 1
EndSplineSet
EndChar

StartChar: uni040D
Encoding: 382 1037 317
Width: 740
Flags: MW
HStem: 0 21G<76 150 76 76 590 664 590 590> 719 20G<213 287 287 287 727 801 801 801> 792 166<391 525>
VStem: 348 220<848 900>
LayerCount: 2
Fore
SplineSet
391 958 m 1
 568 848 l 1
 525 792 l 1
 348 900 l 1
 391 958 l 1
727 739 m 1
 801 739 l 1
 664 0 l 1
 590 0 l 1
 707 629 l 1
 150 0 l 1
 76 0 l 1
 213 739 l 1
 287 739 l 1
 170 110 l 1
 727 739 l 1
EndSplineSet
EndChar

StartChar: uni0450
Encoding: 383 1104 318
Width: 650
Flags: MW
HStem: -13 68<287 380.5 287 388.5> 249 67<177 596 177 657 162 596> 492 68<364 469>
VStem: 88 73<176 228 176 230> 596 71<316 349>
LayerCount: 2
Fore
SplineSet
657 249 m 1
 162 249 l 1
 161 241 161 232 161 224 c 0
 161 128 235 55 339 55 c 0
 422 55 508 105 553 180 c 1
 630 180 l 1
 569 65 448 -13 329 -13 c 0
 186 -13 88 86 88 221 c 0
 88 239 90 257 93 276 c 0
 122 435 271 560 429 560 c 0
 537 560 623 503 654 411 c 0
 662 386 667 363 667 335 c 0
 667 311 663 283 657 249 c 1
177 316 m 1
 596 316 l 1
 591 425 522 492 416 492 c 0
 312 492 216 421 177 316 c 1
358 776 m 1
 535 666 l 1
 492 610 l 1
 315 718 l 1
 358 776 l 1
EndSplineSet
EndChar

StartChar: uni045D
Encoding: 384 1117 319
Width: 607
Flags: MW
HStem: 0 21G<63 137 63 63 470 544 470 470> 527 20G<164 238 238 238 571 645 645 645> 610 166<325 459>
VStem: 282 220<666 718>
LayerCount: 2
Fore
SplineSet
325 776 m 1
 502 666 l 1
 459 610 l 1
 282 718 l 1
 325 776 l 1
571 547 m 1
 645 547 l 1
 544 0 l 1
 470 0 l 1
 552 442 l 1
 137 0 l 1
 63 0 l 1
 164 547 l 1
 238 547 l 1
 156 105 l 1
 571 547 l 1
EndSplineSet
Substitution2: "'locl' Localized Forms in Cyrillic lookup 7 subtable" uni045D.loclBGR
Substitution2: "'aalt' Access All Alternates lookup 0 subtable" uni045D.loclBGR
EndChar

StartChar: uni0462
Encoding: 385 1122 320
Width: 691
Flags: MW
HStem: 0 67<273 375 375 388> 358 67<327 479 340 460> 559 67<128 291 116 303 377 570 128 365> 719 20G<324 398 398 398>
VStem: 634 77<258 270.5>
LayerCount: 2
Fore
SplineSet
327 358 m 1
 273 67 l 1
 375 67 l 2
 446 67 491 72 525 82 c 0
 580 98 618 147 631 215 c 0
 633 228 634 240 634 251 c 0
 634 290 621 318 594 334 c 0
 567 351 526 358 460 358 c 2
 327 358 l 1
324 739 m 1
 398 739 l 1
 377 626 l 1
 582 626 l 1
 570 559 l 1
 365 559 l 1
 340 425 l 1
 479 425 l 2
 576 425 627 412 665 381 c 0
 696 355 711 315 711 266 c 0
 711 250 709 234 706 216 c 0
 691 134 648 70 587 38 c 0
 537 11 481 0 388 0 c 2
 187 0 l 1
 291 559 l 1
 116 559 l 1
 128 626 l 1
 303 626 l 1
 324 739 l 1
EndSplineSet
EndChar

StartChar: uni0463
Encoding: 386 1123 321
Width: 593
Flags: MW
HStem: 0 67<233 375 375 382> 261 67<269 443 282 411> 480 67<113 236 101 248 113 310 322 465> 719 20G<284 358 358 358>
VStem: 528 75<190 210.5>
LayerCount: 2
Fore
SplineSet
443 328 m 2
 545 328 603 273 603 195 c 0
 603 185 602 175 600 164 c 0
 583 70 497 0 382 0 c 2
 147 0 l 1
 236 480 l 1
 101 480 l 1
 113 547 l 1
 248 547 l 1
 284 739 l 1
 358 739 l 1
 322 547 l 1
 477 547 l 1
 465 480 l 1
 310 480 l 1
 282 328 l 1
 443 328 l 2
269 261 m 1
 233 67 l 1
 375 67 l 2
 465 67 513 101 525 164 c 0
 526 172 528 179 528 186 c 0
 528 235 490 261 411 261 c 2
 269 261 l 1
EndSplineSet
EndChar

StartChar: uni0490
Encoding: 387 1168 322
Width: 444
Flags: MW
HStem: 0 21G<76 150 76 76> 672 67<275 507 213 562 275 275>
VStem: 543 51<849 849>
LayerCount: 2
Fore
SplineSet
562 672 m 1
 275 672 l 1
 150 0 l 1
 76 0 l 1
 213 739 l 1
 507 739 l 1
 543 849 l 1
 594 849 l 1
 562 672 l 1
EndSplineSet
EndChar

StartChar: uni0491
Encoding: 388 1169 323
Width: 355
Flags: MW
HStem: 0 21G<63 137 63 63> 480 67<226 379 164 432 226 226>
LayerCount: 2
Fore
SplineSet
462 642 m 1
 432 480 l 1
 226 480 l 1
 137 0 l 1
 63 0 l 1
 164 547 l 1
 379 547 l 1
 413 642 l 1
 462 642 l 1
EndSplineSet
EndChar

StartChar: uni2010
Encoding: 403 8208 338
Width: 332
Flags: MW
HStem: 233 63<86 345 74 357>
VStem: 74 283<233 296>
LayerCount: 2
Fore
SplineSet
86 296 m 1
 357 296 l 1
 345 233 l 1
 74 233 l 1
 86 296 l 1
EndSplineSet
EndChar

StartChar: uni2011
Encoding: 404 8209 339
Width: 332
Flags: MW
HStem: 233 63<86 345 74 357>
VStem: 74 283<233 296>
LayerCount: 2
Fore
SplineSet
86 296 m 1
 357 296 l 1
 345 233 l 1
 74 233 l 1
 86 296 l 1
EndSplineSet
EndChar

StartChar: figuredash
Encoding: 405 8210 340
Width: 554
Flags: MW
HStem: 233 63<86 567 74 579>
LayerCount: 2
Fore
SplineSet
86 296 m 1
 579 296 l 1
 567 233 l 1
 74 233 l 1
 86 296 l 1
EndSplineSet
EndChar

StartChar: endash
Encoding: 406 8211 341
Width: 500
Flags: MW
HStem: 233 63<55 543 43 555>
LayerCount: 2
Fore
SplineSet
55 296 m 1
 555 296 l 1
 543 233 l 1
 43 233 l 1
 55 296 l 1
EndSplineSet
EndChar

StartChar: emdash
Encoding: 407 8212 342
Width: 1000
Flags: MW
HStem: 233 63<55 1043 43 1055>
LayerCount: 2
Fore
SplineSet
55 296 m 1
 1055 296 l 1
 1043 233 l 1
 43 233 l 1
 55 296 l 1
EndSplineSet
EndChar

StartChar: uni2015
Encoding: 408 8213 343
Width: 1000
Flags: MW
HStem: 233 63<55 1043 43 1055>
LayerCount: 2
Fore
SplineSet
55 296 m 1
 1055 296 l 1
 1043 233 l 1
 43 233 l 1
 55 296 l 1
EndSplineSet
EndChar

StartChar: quoteleft
Encoding: 409 8216 344
Width: 351
Flags: MW
HStem: 547 192<287 309 235 361 287 287>
VStem: 235 126
LayerCount: 2
Fore
SplineSet
361 547 m 1
 287 547 l 1
 235 739 l 1
 309 739 l 1
 361 547 l 1
EndSplineSet
EndChar

StartChar: quoteright
Encoding: 410 8217 345
Width: 351
Flags: MW
HStem: 547 192<192 390 192 390>
VStem: 192 198<547 739>
LayerCount: 2
Fore
SplineSet
192 547 m 1
 316 739 l 1
 390 739 l 1
 266 547 l 1
 192 547 l 1
EndSplineSet
EndChar

StartChar: quotesinglbase
Encoding: 411 8218 346
Width: 354
Flags: MW
HStem: -67 193<77 274 77 274>
VStem: 77 197<-67 126>
LayerCount: 2
Fore
SplineSet
77 -67 m 1
 200 126 l 1
 274 126 l 1
 151 -67 l 1
 77 -67 l 1
EndSplineSet
EndChar

StartChar: quotedblleft
Encoding: 412 8220 347
Width: 502
Flags: MW
HStem: 547 192<285 307 233 359 285 285 433 455 233 507 433 433>
VStem: 233 274<547 739>
LayerCount: 2
Fore
SplineSet
507 547 m 1
 433 547 l 1
 381 739 l 1
 455 739 l 1
 507 547 l 1
359 547 m 1
 285 547 l 1
 233 739 l 1
 307 739 l 1
 359 547 l 1
EndSplineSet
EndChar

StartChar: quotedblright
Encoding: 413 8221 348
Width: 484
Flags: MW
HStem: 547 192<188 386 188 386 332 386 312 406 332 332>
LayerCount: 2
Fore
SplineSet
188 547 m 1
 312 739 l 1
 386 739 l 1
 262 547 l 1
 188 547 l 1
332 547 m 1
 456 739 l 1
 530 739 l 1
 406 547 l 1
 332 547 l 1
EndSplineSet
EndChar

StartChar: quotedblbase
Encoding: 414 8222 349
Width: 502
Flags: MW
HStem: -67 193<77 274 77 274 224 274 200 298 224 224>
LayerCount: 2
Fore
SplineSet
77 -67 m 1
 200 126 l 1
 274 126 l 1
 151 -67 l 1
 77 -67 l 1
224 -67 m 1
 347 126 l 1
 421 126 l 1
 298 -67 l 1
 224 -67 l 1
EndSplineSet
EndChar

StartChar: dagger
Encoding: 415 8224 350
Width: 553
Flags: MW
HStem: 470 66<158 324 146 336 410 581 158 398> 719 20G<374 448 448 448>
LayerCount: 2
Fore
SplineSet
448 739 m 1
 410 536 l 1
 593 536 l 1
 581 470 l 1
 398 470 l 1
 286 -133 l 1
 212 -133 l 1
 324 470 l 1
 146 470 l 1
 158 536 l 1
 336 536 l 1
 374 739 l 1
 448 739 l 1
EndSplineSet
EndChar

StartChar: daggerdbl
Encoding: 416 8225 351
Width: 553
Flags: MW
HStem: 331 70<133 299 120 312 386 555 133 373> 493 70<163 329 150 342 416 585 163 403> 719 20G<375 449 449 449>
LayerCount: 2
Fore
SplineSet
449 739 m 1
 416 563 l 1
 598 563 l 1
 585 493 l 1
 403 493 l 1
 386 401 l 1
 568 401 l 1
 555 331 l 1
 373 331 l 1
 287 -133 l 1
 213 -133 l 1
 299 331 l 1
 120 331 l 1
 133 401 l 1
 312 401 l 1
 329 493 l 1
 150 493 l 1
 163 563 l 1
 342 563 l 1
 375 739 l 1
 449 739 l 1
EndSplineSet
EndChar

StartChar: bullet
Encoding: 417 8226 352
Width: 606
Flags: MW
HStem: 118 370<343 376.5>
LayerCount: 2
Fore
SplineSet
396 488 m 0
 485 488 547 423 547 337 c 0
 547 326 546 315 544 303 c 0
 525 201 428 118 325 118 c 0
 235 118 171 183 171 269 c 0
 171 280 172 291 174 303 c 0
 193 407 290 488 396 488 c 0
EndSplineSet
EndChar

StartChar: ellipsis
Encoding: 418 8230 353
Width: 1000
Flags: MW
HStem: 0 126<130 227 153 204 486 537 819 870>
LayerCount: 2
Fore
SplineSet
130 0 m 1
 153 126 l 1
 227 126 l 1
 204 0 l 1
 130 0 l 1
463 0 m 1
 486 126 l 1
 560 126 l 1
 537 0 l 1
 463 0 l 1
796 0 m 1
 819 126 l 1
 893 126 l 1
 870 0 l 1
 796 0 l 1
EndSplineSet
EndChar

StartChar: perthousand
Encoding: 419 8240 354
Width: 1174
Flags: MW
HStem: -13 66<560 616 560 622.5 959 1015> 0 21G<182 254 182 182> 272 66<595.5 652 994.5 1051> 397 66<247.5 303.5 247.5 310.5> 683 66<284 340.5> 719 20G<651 725 725 725>
VStem: 116 67<527.5 546> 404 69<600 620> 428 68<117.5 135> 716 69<189 208.5> 827 68<117.5 135> 1115 69<189 208.5>
LayerCount: 2
Fore
SplineSet
651 739 m 1x7670
 725 739 l 1
 254 0 l 1
 182 0 l 1
 651 739 l 1x7670
642 338 m 0
 726 338 785 275 785 194 c 0
 785 184 784 174 782 163 c 0
 764 66 671 -13 574 -13 c 0
 489 -13 428 49 428 130 c 0xb2f0
 428 140 429 151 431 162 c 0
 449 261 542 338 642 338 c 0
625 272 m 0
 566 272 509 222 498 163 c 0
 497 156 496 150 496 143 c 0
 496 92 534 53 586 53 c 0
 646 53 703 102 714 162 c 0
 715 169 716 176 716 183 c 0
 716 234 679 272 625 272 c 0
1041 338 m 0
 1125 338 1184 275 1184 194 c 0
 1184 184 1183 174 1181 163 c 0
 1163 66 1070 -13 973 -13 c 0
 888 -13 827 49 827 130 c 0
 827 140 828 151 830 162 c 0
 848 261 941 338 1041 338 c 0
1024 272 m 0
 965 272 908 222 897 163 c 0
 896 156 895 150 895 143 c 0
 895 92 933 53 985 53 c 0
 1045 53 1102 102 1113 162 c 0
 1114 169 1115 176 1115 183 c 0
 1115 234 1078 272 1024 272 c 0
330 749 m 0x3b70
 413 749 473 686 473 605 c 0
 473 595 472 584 470 573 c 0
 452 476 359 397 262 397 c 0
 177 397 116 459 116 541 c 0
 116 551 117 562 119 573 c 0
 137 671 230 749 330 749 c 0x3b70
313 683 m 0
 255 683 196 633 185 573 c 0
 184 566 183 560 183 553 c 0
 183 502 221 463 274 463 c 0
 333 463 391 512 402 572 c 0
 403 579 404 587 404 594 c 0
 404 646 368 683 313 683 c 0
EndSplineSet
EndChar

StartChar: guilsinglleft
Encoding: 420 8249 355
Width: 251
Flags: MW
VStem: 96 202<300 467>
LayerCount: 2
Fore
SplineSet
170 99 m 1
 96 300 l 1
 244 499 l 1
 298 467 l 1
 174 300 l 1
 235 132 l 1
 170 99 l 1
EndSplineSet
EndChar

StartChar: guilsinglright
Encoding: 421 8250 356
Width: 251
Flags: MW
VStem: 64 202<132 300>
LayerCount: 2
Fore
SplineSet
117 99 m 1
 64 132 l 1
 189 300 l 1
 127 467 l 1
 191 499 l 1
 266 300 l 1
 117 99 l 1
EndSplineSet
EndChar

StartChar: fraction
Encoding: 422 8260 357
Width: 166
Flags: MW
HStem: 0 21G<-115 -115 -115 -61> 719 20G<364 418 418 418>
LayerCount: 2
Fore
SplineSet
-115 0 m 1
 364 739 l 1
 418 739 l 1
 -61 0 l 1
 -115 0 l 1
EndSplineSet
EndChar

StartChar: Euro
Encoding: 423 8364 358
Width: 870
Flags: MW
HStem: -13 68<488.5 591.5> 263 67<137 221 95 222 301 301 301 718> 397 67<162 234 120 256 162 309 333 802> 551 21G<898 898> 684 68<600 703.5>
VStem: 221 80<263 263>
LayerCount: 2
Fore
SplineSet
795 67 m 1
 721 14 638 -13 545 -13 c 0
 361 -13 236 100 221 263 c 1
 95 263 l 1
 137 330 l 1
 222 330 l 1
 222 342 225 354 227 367 c 0
 229 377 231 387 234 397 c 1
 120 397 l 1
 162 464 l 1
 256 464 l 1
 328 634 494 752 681 752 c 0
 798 752 892 706 946 628 c 1
 898 551 l 1
 878 594 862 616 832 637 c 0
 789 668 735 684 672 684 c 0
 528 684 395 594 333 464 c 1
 844 464 l 1
 802 397 l 1
 309 397 l 1
 306 388 305 379 303 370 c 0
 300 356 298 343 297 330 c 1
 760 330 l 1
 718 263 l 1
 301 263 l 1
 323 142 421 55 556 55 c 0
 657 55 748 105 814 169 c 1
 795 67 l 1
EndSplineSet
EndChar

StartChar: uni20BD
Encoding: 424 8381 359
Width: 554
Flags: MW
HStem: 0 21G<104 178 104 104> 170 67<81 136 69 148 222 409 81 210> 299 67<105 159 92 172 105 233 246 344> 672 67<303 380 303 303>
VStem: 548 75<556.5 586.5>
LayerCount: 2
Fore
SplineSet
246 366 m 1
 349 366 l 2
 404 366 441 373 470 391 c 0
 506 412 533 458 544 516 c 0
 547 533 548 549 548 563 c 0
 548 610 532 643 502 656 c 0
 477 667 439 672 380 672 c 2
 303 672 l 1
 246 366 l 1
148 237 m 1
 159 299 l 1
 92 299 l 1
 105 366 l 1
 172 366 l 1
 241 739 l 1
 416 739 l 2
 497 739 535 728 567 700 c 0
 600 674 623 626 623 564 c 0
 623 549 621 532 618 515 c 0
 604 441 571 380 524 345 c 0
 480 312 430 299 344 299 c 2
 233 299 l 1
 222 237 l 1
 421 237 l 1
 409 170 l 1
 210 170 l 1
 178 0 l 1
 104 0 l 1
 136 170 l 1
 69 170 l 1
 81 237 l 1
 148 237 l 1
EndSplineSet
EndChar

StartChar: trademark
Encoding: 425 8482 360
Width: 1000
Flags: MW
HStem: 681 58<200 331 189 550 395 539 395 395>
LayerCount: 2
Fore
SplineSet
1075 739 m 1
 1001 340 l 1
 937 340 l 1
 1001 684 l 1
 781 340 l 1
 739 340 l 1
 652 685 l 1
 588 340 l 1
 524 340 l 1
 598 739 l 1
 707 739 l 1
 781 455 l 1
 969 739 l 1
 1075 739 l 1
550 739 m 1
 539 681 l 1
 395 681 l 1
 332 340 l 1
 268 340 l 1
 331 681 l 1
 189 681 l 1
 200 739 l 1
 550 739 l 1
EndSplineSet
EndChar

StartChar: minus
Encoding: 426 8722 361
Width: 606
Flags: MW
HStem: 267 74<114 604 100 618>
LayerCount: 2
Fore
SplineSet
618 341 m 1
 604 267 l 1
 100 267 l 1
 114 341 l 1
 618 341 l 1
EndSplineSet
EndChar

StartChar: zero.fitted
Encoding: 427 57344 362
Width: 555
Flags: MW
HStem: -13 67<259.5 324.5> 685 67<376 433.5>
VStem: 71 74<178 193> 548 76<554 566.5>
LayerCount: 2
Fore
SplineSet
80 269 m 2
 119 479 l 2
 136 569 163 627 212 674 c 0
 264 725 336 752 416 752 c 0
 507 752 574 715 606 648 c 0
 618 623 624 598 624 566 c 0
 624 542 621 514 614 479 c 2
 575 269 l 2
 559 183 531 117 491 74 c 0
 438 16 368 -13 281 -13 c 0
 179 -13 110 27 82 103 c 0
 74 125 71 150 71 180 c 0
 71 206 74 236 80 269 c 2
504 281 m 2
 538 462 l 2
 545 499 548 527 548 551 c 0
 548 582 542 603 530 623 c 0
 506 663 462 685 405 685 c 0
 338 685 276 654 239 603 c 0
 217 573 201 529 189 462 c 2
 155 281 l 2
 148 246 145 217 145 193 c 0
 145 163 150 139 160 120 c 0
 184 77 229 54 290 54 c 0
 361 54 421 84 456 138 c 0
 476 168 493 219 504 281 c 2
EndSplineSet
Substitution2: "'tnum' Tabular Numbers in Latin lookup 25 subtable" zero
Substitution2: "'tnum' Tabular Numbers in Cyrillic lookup 24 subtable" zero
Substitution2: "'tnum' Tabular Numbers lookup 23 subtable" zero
Substitution2: "'aalt' Access All Alternates lookup 0 subtable" zero
EndChar

StartChar: one.fitted
Encoding: 428 57345 363
Width: 334
Flags: MW
HStem: 0 21G<157 157 157 230> 672 67<168 282 156 367>
VStem: 157 210
LayerCount: 2
Fore
SplineSet
157 0 m 1
 282 672 l 1
 156 672 l 1
 168 739 l 1
 367 739 l 1
 230 0 l 1
 157 0 l 1
EndSplineSet
Substitution2: "'tnum' Tabular Numbers in Latin lookup 25 subtable" one
Substitution2: "'tnum' Tabular Numbers in Cyrillic lookup 24 subtable" one
Substitution2: "'tnum' Tabular Numbers lookup 23 subtable" one
Substitution2: "'aalt' Access All Alternates lookup 0 subtable" one
EndChar

StartChar: two.fitted
Encoding: 429 57346 364
Width: 541
Flags: MW
HStem: 0 67<34 46 46 46 146 503> 685 67<367.5 441>
VStem: 133 73<500 500> 534 75<565 598.5>
LayerCount: 2
Fore
SplineSet
34 0 m 1
 46 67 l 1
 352 317 l 2
 430 380 429 380 456 407 c 0
 500 449 523 487 531 531 c 0
 533 542 534 552 534 562 c 0
 534 635 482 685 400 685 c 0
 335 685 276 652 241 598 c 0
 224 572 214 544 206 500 c 1
 133 500 l 1
 143 552 150 573 169 608 c 0
 220 698 310 752 413 752 c 0
 532 752 609 679 609 572 c 0
 609 558 608 543 605 527 c 0
 590 448 547 393 425 294 c 2
 146 67 l 1
 515 67 l 1
 503 0 l 1
 34 0 l 1
EndSplineSet
Substitution2: "'tnum' Tabular Numbers in Latin lookup 25 subtable" two
Substitution2: "'tnum' Tabular Numbers in Cyrillic lookup 24 subtable" two
Substitution2: "'tnum' Tabular Numbers lookup 23 subtable" two
Substitution2: "'aalt' Access All Alternates lookup 0 subtable" two
EndChar

StartChar: three.fitted
Encoding: 430 57347 365
Width: 535
Flags: MW
HStem: -13 67<252 324.5 252 334.5> 388 66<290 302> 555 21G<184 257 184 184> 685 67<359 423.5>
VStem: 70 75<173.5 184.5> 184 73<555 555> 473 76<262.5 284> 488 75<598.5 622>
LayerCount: 2
Fore
SplineSet
257 555 m 1xfd
 184 555 l 1
 210 676 296 752 407 752 c 0
 503 752 563 693 563 605 c 0xfd
 563 592 562 579 559 565 c 0
 548 504 515 459 456 423 c 1
 518 389 549 337 549 270 c 0
 549 255 548 240 545 224 c 0
 520 91 399 -13 270 -13 c 0
 178 -13 107 33 81 108 c 0
 74 129 70 151 70 176 c 0
 70 193 72 210 75 231 c 1
 148 231 l 1
 146 214 145 200 145 187 c 0
 145 160 150 141 160 122 c 0
 182 79 225 54 279 54 c 0
 370 54 453 126 470 220 c 0
 472 231 473 242 473 252 c 0xfe
 473 316 436 367 375 382 c 0
 356 386 339 387 290 388 c 1
 302 454 l 1
 331 452 332 452 338 452 c 0
 415 452 472 497 485 569 c 0
 487 578 488 587 488 595 c 0
 488 649 452 685 395 685 c 0
 323 685 273 638 257 555 c 1xfd
EndSplineSet
Substitution2: "'tnum' Tabular Numbers in Latin lookup 25 subtable" three
Substitution2: "'tnum' Tabular Numbers in Cyrillic lookup 24 subtable" three
Substitution2: "'tnum' Tabular Numbers lookup 23 subtable" three
Substitution2: "'aalt' Access All Alternates lookup 0 subtable" three
EndChar

StartChar: four.fitted
Encoding: 431 57348 366
Width: 571
Flags: MW
HStem: 0 21G<402 402 402 475> 135 67<65 65 150 427 53 65 512 568> 719 20G<525 612 612 612>
LayerCount: 2
Fore
SplineSet
402 0 m 1
 427 135 l 1
 53 135 l 1
 65 202 l 1
 525 739 l 1
 612 739 l 1
 512 202 l 1
 580 202 l 1
 568 135 l 1
 500 135 l 1
 475 0 l 1
 402 0 l 1
439 202 m 1
 520 637 l 1
 150 202 l 1
 439 202 l 1
EndSplineSet
Substitution2: "'tnum' Tabular Numbers in Latin lookup 25 subtable" four
Substitution2: "'tnum' Tabular Numbers in Cyrillic lookup 24 subtable" four
Substitution2: "'tnum' Tabular Numbers lookup 23 subtable" four
Substitution2: "'aalt' Access All Alternates lookup 0 subtable" four
EndChar

StartChar: five.fitted
Encoding: 432 57349 367
Width: 554
Flags: MW
HStem: -13 67<242.5 337 242.5 347.5> 436 67<354 402> 672 67<317 591 317 317>
VStem: 68 72<184 202> 503 75<289.5 330>
LayerCount: 2
Fore
SplineSet
137 375 m 1
 270 739 l 1
 603 739 l 1
 591 672 l 1
 317 672 l 1
 243 468 l 1
 293 493 332 503 376 503 c 0
 497 503 578 417 578 298 c 0
 578 281 577 264 574 246 c 0
 547 100 417 -13 278 -13 c 0
 179 -13 102 43 76 134 c 0
 70 155 68 171 68 197 c 0
 68 207 68 219 69 232 c 1
 141 232 l 1
 141 227 140 221 140 216 c 0
 140 119 198 54 287 54 c 0
 387 54 480 138 500 246 c 0
 503 260 503 273 503 286 c 0
 503 374 446 436 358 436 c 0
 300 436 244 409 189 353 c 1
 137 375 l 1
EndSplineSet
Substitution2: "'tnum' Tabular Numbers in Latin lookup 25 subtable" five
Substitution2: "'tnum' Tabular Numbers in Cyrillic lookup 24 subtable" five
Substitution2: "'tnum' Tabular Numbers lookup 23 subtable" five
Substitution2: "'aalt' Access All Alternates lookup 0 subtable" five
EndChar

